
<svg width="929px" height="929px" viewBox="0 0 929 929" version="1.1" xmlns="http://www.w3.org/2000/svg" xmlns:xlink="http://www.w3.org/1999/xlink">
    <!-- Generator: Sketch 50.2 (55047) - http://www.bohemiancoding.com/sketch -->
    <desc>Created with Sketch.</desc>
    <defs></defs>
    <g id="FINAL---Icons" stroke="none" stroke-width="1" fill="none" fill-rule="evenodd">
        <g id="MFStaging-AppIcon-macOS-1024x1024" transform="translate(-48.000000, -48.000000)">
            <g id="Group-3" transform="translate(48.000000, 48.000000)">
                <g id="Group-4">
                    <circle id="Oval" fill="#1C222E" cx="464.5" cy="464.5" r="464.5"></circle>
                    <g id="Group" transform="translate(128.000000, 272.000000)">
                        <g id="Group-2">
                            <path d="M476.57832,276.667386 C429.70297,276.667386 391.70626,239.287453 391.70626,193.173003 C391.70626,147.058552 429.70297,109.67862 476.57832,109.67862 C523.453669,109.67862 561.450379,147.058552 561.450379,193.173003 C561.450379,239.287453 523.453669,276.667386 476.57832,276.667386 M476.57832,0.61040089 C421.538122,0.61040089 371.835238,22.994869 336.270023,58.9703923 C370.55502,93.6592958 391.701655,140.97429 391.701655,193.173003 C391.701655,245.371716 370.55502,292.68671 336.270023,327.371083 C371.835238,363.351136 421.538122,385.731074 476.57832,385.731074 C584.683127,385.731074 672.313643,299.51848 672.313643,193.173003 C672.313643,86.822995 584.683127,0.61040089 476.57832,0.61040089" id="Fill-14" fill="#00A8E7"></path>
                            <path d="M195.96403,276.667386 C149.08868,276.667386 111.09197,239.287453 111.09197,193.173003 C111.09197,147.058552 149.08868,109.67862 195.96403,109.67862 C242.839379,109.67862 280.840694,147.058552 280.840694,193.173003 C280.840694,239.287453 242.839379,276.667386 195.96403,276.667386 M336.272326,58.9703923 C300.711716,22.994869 251.008833,0.61040089 195.96403,0.61040089 C87.8638278,0.61040089 0.228706349,86.822995 0.228706349,193.173003 C0.228706349,299.51848 87.8638278,385.731074 195.96403,385.731074 C251.008833,385.731074 300.711716,363.351136 336.272326,327.371083 C301.98733,292.68671 280.840694,245.371716 280.840694,193.173003 C280.840694,140.97429 301.98733,93.6592958 336.272326,58.9703923" id="Fill-15" fill="#DA1157"></path>
                            <path d="M336.254827,327.395094 C370.539823,292.71072 391.686459,245.391196 391.686459,193.192483 C391.686459,140.99377 370.539823,93.6787763 336.254827,58.9944032 C301.974435,93.6787763 280.8278,140.99377 280.8278,193.192483 C280.8278,245.391196 301.974435,292.71072 336.254827,327.395094 Z" id="Fill-16" fill="#FFFFFF"></path>
                        </g>
                    </g>
                </g>
            </g>
        </g>
    </g>
</svg>