
<svg width="1579px" height="1531px" viewBox="0 0 1579 1531" version="1.1" xmlns="http://www.w3.org/2000/svg" xmlns:xlink="http://www.w3.org/1999/xlink">
    <!-- Generator: Sketch 49.2 (51160) - http://www.bohemiancoding.com/sketch -->
    <desc>Created with Sketch.</desc>
    <defs></defs>
    <g id="Website---PreSales" stroke="none" stroke-width="1" fill="none" fill-rule="evenodd">
        <g id="Homepage-January---2500px" transform="translate(0.000000, -114.000000)">
            <g id="Group-6" transform="translate(-5.000000, 114.000000)">
                <polygon id="Path-2" fill="#00A7E7" points="498.020993 65.005945 626 179.149395 500.087977 302.132368"></polygon>
                <polygon id="Path-2" fill="#1F3464" points="498.020993 65.005945 400.551679 240.48856 500.087977 302.132368"></polygon>
                <polygon id="Path-2" fill="#232323" points="498.020993 65.005945 400.551679 240.48856 292.949005 101.030636"></polygon>
                <polygon id="Path-2" fill="#DA1157" points="427.040906 342.827521 400.551679 240.48856 500.087977 302.132368"></polygon>
                <polygon id="Path-2-Copy-5" fill="#1F3464" transform="translate(562.000000, 122.000000) scale(-1, 1) translate(-562.000000, -122.000000) " points="557.700392 72.834116 626 65 498 179"></polygon>
                <polygon id="Path-2-Copy" fill="#DA1157" points="626 179 613.044036 307 500 302.107321"></polygon>
                <polygon id="Path-2-Copy-9" fill="#00A7E7" transform="translate(563.558380, 368.039034) scale(-1, -1) translate(-563.558380, -368.039034) " points="500.116759 302.078069 627 434 514.032089 429.10147"></polygon>
                <polygon id="Path-2-Copy-12" fill="#13203C" points="500.234711 301.958531 628 435 494 429.587134"></polygon>
                <polygon id="Path-2-Copy-12" fill="#232323" points="500.234711 301.958531 427.034482 342.781178 494 429.587134"></polygon>
                <polygon id="Path-2-Copy-13" fill="#DA1157" points="494.061104 429.487889 628 434.161609 499.06991 503.857477"></polygon>
                <polygon id="Path-2-Copy-13" fill="#00A7E7" points="494.061104 429.487889 412.776442 461.294214 499.06991 503.857477"></polygon>
                <polygon id="Path-2-Copy-13" fill="#DA1157" points="414.069076 585.340457 412.776442 461.294214 499.06991 503.857477"></polygon>
                <polygon id="Path-2-Copy-13" fill="#1F3464" points="414.069076 585.340457 412.776442 461.294214 351.7438 562.34179"></polygon>
                <polygon id="Path-2-Copy-13" fill="#0492C9" points="494.061104 429.487889 412.776442 461.294214 427.033016 342.777702"></polygon>
                <polygon id="Path-2-Copy-14" fill="#C20F4D" transform="translate(563.000000, 473.000000) scale(-1, -1) translate(-563.000000, -473.000000) " points="506.555706 434 627 442.132737 499 512"></polygon>
                <polygon id="Path-2-Copy-18" fill="#1F3464" points="499.112657 503.792804 621 511.117572 493 580"></polygon>
                <polygon id="Path-2-Copy-18" fill="#232323" points="499.112657 503.792804 414.089267 585.305187 493 580"></polygon>
                <polygon id="Path-2-Copy-6" fill="#DA1157" points="892 0 625.700807 179 624.345503 176.58984 566 72.8330236"></polygon>
                <polygon id="Path-2-Copy-2" fill="#1F3464" points="625.946859 179 684 260.808236 613 307"></polygon>
                <polygon id="Path-2-Copy-22" fill="#1F3464" points="1031.76027 338 1090 419.415265 1003 473"></polygon>
                <polygon id="Path-2-Copy-4" fill="#00A7E7" transform="translate(658.500000, 219.000000) scale(-1, 1) translate(-658.500000, -219.000000) " points="626 177 691 179.012212 632.977085 261"></polygon>
                <polygon id="Path-2-Copy-23" fill="#00A7E7" transform="translate(1064.500000, 378.000000) scale(-1, 1) translate(-1064.500000, -378.000000) " points="1032 336 1097 338.083545 1038.60315 420"></polygon>
                <polygon id="Path-2-Copy-8" fill="#DA1157" transform="translate(680.517366, 348.340350) scale(-1, 1) translate(-680.517366, -348.340350) " points="627 305.018312 677.066229 260.680701 734.034731 436"></polygon>
                <polygon id="Path-2-Copy-24" fill="#DA1157" transform="translate(1159.500000, 507.722335) scale(-1, 1) translate(-1159.500000, -507.722335) " points="1033 518.680778 1229.07277 419.444671 1286 596"></polygon>
                <polygon id="Path-2-Copy-24" fill="#232323" transform="translate(1159.497184, 596.343777) scale(-1, 1) translate(-1159.497184, -596.343777) " points="1033.00132 518.658055 1067.96539 674.029499 1285.99437 595.337528"></polygon>
                <polygon id="Path-2-Copy-15" fill="#13203C" transform="translate(665.000000, 472.500000) scale(-1, 1) translate(-665.000000, -472.500000) " points="619 442.559114 703.719527 434 711 511"></polygon>
                <polygon id="Path-2-Copy-16" fill="#0492C9" transform="translate(677.000000, 490.000000) scale(-1, 1) translate(-677.000000, -490.000000) " points="619 538 643.006132 442 735 511.019705"></polygon>
                <polygon id="Path-2-Copy-16" fill="#C20F4D" transform="translate(676.500000, 561.705041) scale(-1, 1) translate(-676.500000, -561.705041) " points="619 536.186892 733.019955 612.410082 734 511"></polygon>
                <polygon id="Path-2-Copy-16" fill="#00A7E7" transform="translate(556.535084, 561.689496) scale(-1, 1) translate(-556.535084, -561.689496) " points="620.026105 579.952799 493.044063 612.378991 494.070168 511"></polygon>
                <polygon id="Path-2-Copy-17" fill="#00A7E7" transform="translate(800.500000, 490.500000) scale(-1, 1) translate(-800.500000, -490.500000) " points="866.602464 538 710 460.073202 891 443"></polygon>
                <polygon id="Path-2-Copy-8" fill="#00A7E7" transform="translate(745.000000, 370.000000) scale(-1, 1) translate(-745.000000, -370.000000) " points="627 340.999639 756.000283 305 863 435"></polygon>
                <polygon id="Path-2-Copy-8" fill="#0492C9" transform="translate(798.500000, 344.000000) scale(-1, 1) translate(-798.500000, -344.000000) " points="734 340.817818 863 305 840.333264 383"></polygon>
                <polygon id="Path-2-Copy-11" fill="#1F3464" transform="translate(759.000000, 400.500000) scale(-1, 1) translate(-759.000000, -400.500000) " points="627 460 655.018789 341 891 434.745199"></polygon>
                <polygon id="Path-2-Copy-11" fill="#13203C" transform="translate(786.500000, 392.000000) scale(-1, 1) translate(-786.500000, -392.000000) " points="863 443 710 341 816.367725 383.235305"></polygon>
                <polygon id="Path-2-Copy-11" fill="#DA1157" transform="translate(800.500000, 400.500000) scale(-1, 1) translate(-800.500000, -400.500000) " points="710 460 738.012084 341 891 442.823834"></polygon>
                <polygon id="Path-2-Copy-21" fill="#1F3464" transform="translate(859.000000, 507.000000) scale(-1, 1) translate(-859.000000, -507.000000) " points="734 554 827.090109 460 984 536.162"></polygon>
                <polygon id="Path-2-Copy-21" fill="#DA1157" transform="translate(859.000000, 580.500000) scale(-1, 1) translate(-859.000000, -580.500000) " points="734.864142 553.845102 734 625 984 536"></polygon>
                <polygon id="Path-2-Copy-21" fill="#13203C" transform="translate(802.011868, 580.500000) scale(-1, 1) translate(-802.011868, -580.500000) " points="984 612.319534 620.023736 625 870.280179 536"></polygon>
                <polygon id="Path-2-Copy-21" fill="#00A7E7" transform="translate(859.000000, 580.500000) scale(-1, 1) translate(-859.000000, -580.500000) " points="864.727558 618.769809 734 625 984 536"></polygon>
                <polygon id="Path-2-Copy-7" fill="#232323" transform="translate(759.000000, 89.500000) scale(-1, -1) translate(-759.000000, -89.500000) " points="827.026142 1.78450502 892 1.13686838e-13 626 179"></polygon>
                <polygon id="Path-2-Copy-3" fill="#13203C" transform="translate(648.497365, 348.380496) scale(1, -1) translate(-648.497365, -348.380496) " points="626.961085 260.760991 684.002491 436.001561 612.992238 389.810343"></polygon>
                <polygon id="Path-2-Copy-25" fill="#13203C" transform="translate(1046.523842, 507.672790) scale(1, -1) translate(-1046.523842, -507.672790) " points="1033.39722 419.34558 1090.0052 596 1003.04249 542.417036"></polygon>
                <polygon id="Path-2-Copy-25" fill="#0492C9" transform="translate(1008.500000, 534.500000) scale(1, -1) translate(-1008.500000, -534.500000) " points="1034 473 983 515.201664 1003.07264 596"></polygon>
                <polygon id="Path-2-Copy-25" fill="#C20F4D" transform="translate(1008.500000, 589.000000) scale(1, -1) translate(-1008.500000, -589.000000) " points="1034 582.565081 983 624 983 554"></polygon>
                <polygon id="Path-2-Copy-25" fill="#00A7E7" transform="translate(1116.990829, 634.502698) scale(1, -1) translate(-1116.990829, -634.502698) " points="1033.3816 674.005397 1250.98166 595 983 645.975418"></polygon>
                <polygon id="Path-2-Copy-10" fill="#C20F4D" transform="translate(709.000000, 241.000000) scale(1, -1) translate(-709.000000, -241.000000) " points="734 177 690.983622 305 684 221.292373"></polygon>
                <polygon id="Path-2-Copy-2" fill="#1F3464" points="506.330158 1366.75676 650.113689 1355.30963 579.453863 1402"></polygon>
                <polygon id="Path-2-Copy-4" fill="#00A7E7" transform="translate(580.771750, 1339.176414) scale(-1, 1) translate(-580.771750, -1339.176414) " points="506.410658 1311.56076 655.131411 1366.79207 511.43707 1355.32076"></polygon>
                <polygon id="Path-2-Copy-8" fill="#DA1157" transform="translate(646.539744, 1443.125097) scale(-1, 1) translate(-646.539744, -1443.125097) " points="593 1399.99588 642.966877 1355.25019 700.079487 1531"></polygon>
                <polygon id="Path-2-Copy-3" fill="#13203C" transform="translate(614.798721, 1443.151592) scale(1, -1) translate(-614.798721, -1443.151592) " points="593.003309 1355.30318 650.098416 1531 579.499026 1484.34269"></polygon>
                <polygon id="Path-2-Copy-10" fill="#C20F4D" transform="translate(675.045231, 1355.591900) scale(1, -1) translate(-675.045231, -1355.591900) " points="700 1311.1838 655.131419 1400 650.090463 1355.90224"></polygon>
                <polygon id="Path-2-Copy-10" fill="#232323" transform="translate(677.000000, 1345.500000) scale(1, -1) translate(-677.000000, -1345.500000) " points="700 1291 654 1381.97161 700 1400"></polygon>
                <polygon id="Path-2-Copy-10" fill="#0492C9" transform="translate(709.500000, 1343.000000) scale(1, -1) translate(-709.500000, -1343.000000) " points="700 1286 719 1400 700 1394.4566"></polygon>
                <polygon id="Path-2-Copy-26" fill="#C20F4D" transform="translate(1187.969086, 427.336089) scale(1, -1) translate(-1187.969086, -427.336089) " points="1285.93817 336 1096.56634 518.672177 1090 435.124511"></polygon>
                <polygon id="Path-2-Copy-26" fill="#1F3464" transform="translate(1333.981745, 529.000000) scale(1, -1) translate(-1333.981745, -529.000000) " points="1285.96349 539.317432 1382 431 1350.25972 627"></polygon>
                <polygon id="Path-2-Copy-26" fill="#DA1157" transform="translate(1467.000000, 529.000000) scale(1, -1) translate(-1467.000000, -529.000000) " points="1584 468.612976 1381.83515 431 1349.99987 627.000063"></polygon>
                <polygon id="Path-2-Copy-26" fill="#00A7E7" transform="translate(1316.500000, 596.338906) scale(1, -1) translate(-1316.500000, -596.338906) " points="1285.97468 674 1382 565.436459 1251 518.677201"></polygon>
                <polygon id="Path-2-Copy-26" fill="#C20F4D" transform="translate(1325.011264, 652.500000) scale(1, -1) translate(-1325.011264, -652.500000) " points="1399 627 1382.05625 678 1251.02253 631.024773"></polygon>
                <polygon id="Path-2-Copy-26" fill="#232323" transform="translate(1483.000000, 633.500000) scale(1, -1) translate(-1483.000000, -633.500000) " points="1398.99508 589 1382 640.274074 1584 678"></polygon>
                <path d="M282.5,648.5 L284,650" id="Line-2" stroke="#979797" stroke-linecap="square" transform="translate(283.500000, 649.500000) scale(-1, -1) translate(-283.500000, -649.500000) "></path>
                <polygon id="Path-2-Copy-9" fill="#00A7E7" points="976.680439 801.695331 1100 933 990.09507 929.312926"></polygon>
                <polygon id="Path-2-Copy-12" fill="#13203C" transform="translate(1042.303697, 867.333382) scale(-1, -1) translate(-1042.303697, -867.333382) " points="985.506068 801.666763 1107.97797 933 976.62942 927.667078"></polygon>
                <polygon id="Path-2-Copy-12" fill="#DA1157" transform="translate(1151.537009, 869.984037) scale(-1, -1) translate(-1151.537009, -869.984037) " points="1204 806.988179 1099.07402 817.727154 1195.09821 932.979895"></polygon>
                <polygon id="Path-2-Copy-12" fill="#1F3464" transform="translate(1151.500000, 959.396533) scale(-1, -1) translate(-1151.500000, -959.396533) " points="1204 985.995693 1099 996.793067 1196.01274 922"></polygon>
                <polygon id="Path-2-Copy-13" fill="#DA1157" transform="translate(1042.277877, 770.000000) scale(-1, -1) translate(-1042.277877, -770.000000) " points="976.555754 733 1108 738.33623 984.082234 807"></polygon>
                <polygon id="Path-2-Copy-14" fill="#C20F4D" points="983.555706 724 1104 732.132737 976 802"></polygon>
                <polygon id="Path-2-Copy-18" fill="#1F3464" transform="translate(1116.500000, 703.500000) scale(-1, -1) translate(-1116.500000, -703.500000) " points="1130.12311 674 1251 682.115144 982 733"></polygon>
                <polygon id="Path-2-Copy-18" fill="#0492C9" transform="translate(1174.500000, 740.500000) scale(-1, -1) translate(-1174.500000, -740.500000) " points="1251 746.604428 1241.01809 674 1098.00129 807"></polygon>
                <polygon id="Path-2-Copy-22" fill="#1F3464" transform="translate(556.551434, 829.506436) scale(-1, -1) translate(-556.551434, -829.506436) " points="546.03927 761 600 842.952685 513.102868 898.012872"></polygon>
                <polygon id="Path-2-Copy-23" fill="#00A7E7" transform="translate(536.817539, 857.513764) scale(1, -1) translate(-536.817539, -857.513764) " points="506.474563 816.097613 567.160515 816.999178 513.133954 898.929915"></polygon>
                <polygon id="Path-2-Copy-23" fill="#DA1157" transform="translate(531.000000, 979.000000) scale(1, -1) translate(-531.000000, -979.000000) " points="506.503658 1059.06785 567 1060 495 898"></polygon>
                <polygon id="Path-2-Copy-8" fill="#DA1157" transform="translate(922.866098, 888.843566) scale(1, -1) translate(-922.866098, -888.843566) " points="869.013622 846.662525 918.562973 801.687132 976.718573 976"></polygon>
                <polygon id="Path-2-Copy-8" fill="#C20F4D" transform="translate(844.000000, 952.990621) scale(1, -1) translate(-844.000000, -952.990621) " points="869.020939 975 919 930.981242 769 944.463976"></polygon>
                <polygon id="Path-2-Copy-8" fill="#13203C" transform="translate(844.000000, 1009.000000) scale(1, -1) translate(-844.000000, -1009.000000) " points="912.411559 961 919 1043.06619 769 1057"></polygon>
                <polygon id="Path-2-Copy-8" fill="#232323" transform="translate(841.000000, 1009.000000) scale(1, -1) translate(-841.000000, -1009.000000) " points="913 961 808.727397 991.746016 769 1057"></polygon>
                <polygon id="Path-2-Copy-8" fill="#DA1157" transform="translate(749.000000, 993.500000) scale(1, -1) translate(-749.000000, -993.500000) " points="809 961 689 998.983968 769.407971 1026"></polygon>
                <polygon id="Path-2-Copy-24" fill="#DA1157" transform="translate(443.123318, 728.618529) scale(1, -1) translate(-443.123318, -728.618529) " points="316.214548 739.193911 513.124955 640.967041 570.032088 816.270018"></polygon>
                <polygon id="Path-2-Copy-24" fill="#232323" transform="translate(443.074374, 640.242238) scale(1, -1) translate(-443.074374, -640.242238) " points="316.150174 562.394976 351.857194 718.0895 570 639.507043"></polygon>
                <polygon id="Path-2-Copy-15" fill="#13203C" transform="translate(938.000000, 763.346332) scale(1, -1) translate(-938.000000, -763.346332) " points="892 733.006476 976.624084 725 984 801.692663"></polygon>
                <polygon id="Path-2-Copy-16" fill="#0492C9" transform="translate(926.500000, 747.000000) scale(1, -1) translate(-926.500000, -747.000000) " points="869 794 891.969272 700 984 768.943422"></polygon>
                <polygon id="Path-2-Copy-16" fill="#C20F4D" transform="translate(926.475914, 674.000000) scale(1, -1) translate(-926.475914, -674.000000) " points="868.951828 648.00227 983.062475 725 984 623"></polygon>
                <polygon id="Path-2-Copy-16" fill="#232323" transform="translate(1116.991133, 674.000000) scale(1, -1) translate(-1116.991133, -674.000000) " points="1250.98227 674 983 725 983.96709 623"></polygon>
                <polygon id="Path-2-Copy-17" fill="#00A7E7" transform="translate(802.932086, 745.635183) scale(1, -1) translate(-802.932086, -745.635183) " points="868.675725 793.270367 712.898357 715.279993 892.965814 698"></polygon>
                <polygon id="Path-2-Copy-8" fill="#00A7E7" transform="translate(858.343571, 866.381248) scale(1, -1) translate(-858.343571, -866.381248) " points="740 837.634719 869.115075 801.771795 976.687142 930.9907"></polygon>
                <polygon id="Path-2-Copy-8" fill="#0492C9" transform="translate(804.500000, 892.000000) scale(1, -1) translate(-804.500000, -892.000000) " points="740 888.915473 869 853 846.483034 931"></polygon>
                <polygon id="Path-2-Copy-11" fill="#1F3464" transform="translate(844.500000, 835.500000) scale(1, -1) translate(-844.500000, -835.500000) " points="712 895 740.698188 776 977 869.322931"></polygon>
                <polygon id="Path-2-Copy-11" fill="#13203C" transform="translate(816.999871, 844.128803) scale(1, -1) translate(-816.999871, -844.128803) " points="892.998391 895 741 793.257606 846.502682 835.216457"></polygon>
                <polygon id="Path-2-Copy-19" fill="#C20F4D" transform="translate(653.894580, 837.068421) scale(1, -1) translate(-653.894580, -837.068421) " points="566.789159 776 741 778.905327 713.035569 898.136843"></polygon>
                <polygon id="Path-2-Copy-19" fill="#00A7E7" transform="translate(619.307249, 974.472906) scale(1, -1) translate(-619.307249, -974.472906) " points="566.89793 1050.96529 741 1053.94581 497.614498 895"></polygon>
                <polygon id="Path-2-Copy-19" fill="#1F3464" transform="translate(683.645104, 974.224442) scale(1, -1) translate(-683.645104, -974.224442) " points="869 1017.435 740.933554 1053.44888 498.290208 895"></polygon>
                <polygon id="Path-2-Copy-20" fill="#232323" transform="translate(639.950522, 790.044715) scale(1, -1) translate(-639.950522, -790.044715) " points="566.889145 682 713.0119 804.044768 619.019395 898.08943"></polygon>
                <polygon id="Path-2-Copy-11" fill="#DA1157" transform="translate(803.000000, 835.500000) scale(1, -1) translate(-803.000000, -835.500000) " points="713 895 741.090587 776 893 877.759908"></polygon>
                <polygon id="Path-2-Copy-21" fill="#1F3464" transform="translate(744.000000, 729.000000) scale(1, -1) translate(-744.000000, -729.000000) " points="619.001285 776 712.93115 682 869 758.042997"></polygon>
                <polygon id="Path-2-Copy-21" fill="#DA1157" transform="translate(744.000000, 656.156991) scale(1, -1) translate(-744.000000, -656.156991) " points="619 630.352708 619.995432 700 869 612.31324"></polygon>
                <polygon id="Path-2-Copy-21" fill="#232323" transform="translate(744.509402, 656.161864) scale(1, -1) translate(-744.509402, -656.161864) " points="851.042503 695.085376 620.018805 700 869 612.323727"></polygon>
                <polygon id="Path-2-Copy-21" fill="#1F3464" transform="translate(916.999150, 658.609380) scale(1, -1) translate(-916.999150, -658.609380) " points="983 693.82581 850.9983 699.989985 869.004823 617.228774"></polygon>
                <polygon id="Path-2-Copy-17" fill="#00A7E7" transform="translate(230.486970, 250.453199) scale(-1, 1) translate(-230.486970, -250.453199) " points="296.576405 298 139.973941 220.073202 321 202.906399"></polygon>
                <polygon id="Path-2-Copy-17" fill="#1F3464" transform="translate(107.278301, 287.595638) scale(-1, 1) translate(-107.278301, -287.595638) " points="50.1590655 298 164.397536 372.191277 74.5566011 203"></polygon>
                <polygon id="Path-2-Copy-17" fill="#0492C9" transform="translate(95.202216, 283.516999) scale(-1, 1) translate(-95.202216, -283.516999) " points="133.37304 194.842721 140.245367 372.191277 50.1590655 202.674714"></polygon>
                <polygon id="Path-2-Copy-17" fill="#00A7E7" transform="translate(31.015696, 283.516999) scale(-1, 1) translate(-31.015696, -283.516999) " points="5 194.842721 11.8723269 372.191277 57.0313924 197.904494"></polygon>
                <polygon id="Path-2-Copy-17" fill="#C20F4D" transform="translate(27.579533, 285.047886) scale(-1, 1) translate(-27.579533, -285.047886) " points="50.1590655 302.242026 5 372.191277 50.1590655 197.904494"></polygon>
                <polygon id="Path-2-Copy-8" fill="#00A7E7" transform="translate(175.000000, 130.000000) scale(-1, 1) translate(-175.000000, -130.000000) " points="57 100.999639 186.000283 65 293 195"></polygon>
                <polygon id="Path-2-Copy-8" fill="#DA1157" transform="translate(84.499858, 131.457617) scale(-1, 1) translate(-84.499858, -131.457617) " points="163.999717 197.915234 5 65 111.999717 195"></polygon>
                <polygon id="Path-2-Copy-8" fill="#0492C9" transform="translate(228.504097, 104.000000) scale(-1, 1) translate(-228.504097, -104.000000) " points="164 101.012453 293.008193 65 270.341457 143"></polygon>
                <polygon id="Path-2-Copy-11" fill="#1F3464" transform="translate(189.038643, 160.500000) scale(-1, 1) translate(-189.038643, -160.500000) " points="57.0772864 220 85.0960756 101 321 194.901657"></polygon>
                <polygon id="Path-2-Copy-11" fill="#13203C" transform="translate(216.500000, 152.000000) scale(-1, 1) translate(-216.500000, -152.000000) " points="293 203 140 101 246.367725 143.235305"></polygon>
                <polygon id="Path-2-Copy-11" fill="#DA1157" transform="translate(230.495583, 160.500000) scale(-1, 1) translate(-230.495583, -160.500000) " points="139.991167 220 168.00325 101 321 202.966073"></polygon>
                <polygon id="Path-2-Copy-11" fill="#C20F4D" transform="translate(346.827792, 170.743002) scale(-1, 1) translate(-346.827792, -170.743002) " points="372.655584 220 400.667668 101 292.987916 240.486003"></polygon>
                <polygon id="Path-2-Copy-11" fill="#C20F4D" transform="translate(346.827792, 170.743002) scale(-1, 1) translate(-346.827792, -170.743002) " points="372.655584 220 400.667668 101 292.987916 240.486003"></polygon>
                <polygon id="Path-2-Copy-21" fill="#1F3464" transform="translate(282.343298, 258.081000) scale(-1, 1) translate(-282.343298, -258.081000) " points="164 240.482955 243.776705 220 400.686596 296.162"></polygon>
                <polygon id="Path-2-Copy-21" fill="#0492C9" transform="translate(295.544027, 291.603711) scale(-1, 1) translate(-295.544027, -291.603711) " points="190.510914 240.482522 164.001489 342.724899 427.088054 296"></polygon>
                <polygon id="Path-2-Copy-21" fill="#13203C" transform="translate(232.011868, 340.500000) scale(-1, 1) translate(-232.011868, -340.500000) " points="414 372.319534 50.0237355 385 300.280179 296"></polygon>
                <polygon id="Path-2-Copy-21" fill="#00A7E7" transform="translate(295.599921, 337.384904) scale(-1, 1) translate(-295.599921, -337.384904) " points="307.927401 378.769809 164 342.725622 427.199842 296"></polygon>
                <polygon id="Path-2-Copy-16" fill="#0492C9" transform="translate(356.000408, 511.475218) scale(1, -1) translate(-356.000408, -511.475218) " points="299 562.950436 351.407807 460 413.000817 561.429305"></polygon>
                <polygon id="Path-2-Copy-16" fill="#C20F4D" transform="translate(363.024779, 402.161725) scale(1, -1) translate(-363.024779, -402.161725) " points="298.951828 344.32572 427.09773 461.555545 413.062475 342.767905"></polygon>
                <polygon id="Path-2-Copy-17" fill="#00A7E7" transform="translate(278.081373, 510.209662) scale(1, -1) translate(-278.081373, -510.209662) " points="298.675725 562.419324 204.807974 462.362947 351.354773 458"></polygon>
                <polygon id="Path-2-Copy-21" fill="#1F3464" transform="translate(174.000000, 500.107674) scale(1, -1) translate(-174.000000, -500.107674) " points="49.0012847 558.215349 204.850655 442 299 540.258345"></polygon>
                <polygon id="Path-2-Copy-21" fill="#0492C9" transform="translate(102.634485, 529.390724) scale(1, -1) translate(-102.634485, -529.390724) " points="49.0012847 616.781448 204.850655 500.5661 0.418314302 442"></polygon>
                <polygon id="Path-2-Copy-21" fill="#232323" transform="translate(27.000642, 515.255892) scale(1, -1) translate(-27.000642, -515.255892) " points="49.0012847 588.511784 5 614.909103 5 415.602681"></polygon>
                <polygon id="Path-2-Copy-21" fill="#DA1157" transform="translate(174.000000, 416.156991) scale(1, -1) translate(-174.000000, -416.156991) " points="49 390.352708 49.995432 460 299 372.31324"></polygon>
                <polygon id="Path-2-Copy-21" fill="#00A7E7" transform="translate(27.497716, 407.137628) scale(1, -1) translate(-27.497716, -407.137628) " points="49 372.313982 49.995432 441.961275 5 398.118266"></polygon>
                <polygon id="Path-2-Copy-21" fill="#1F3464" transform="translate(27.497716, 358.461419) scale(1, -1) translate(-27.497716, -358.461419) " points="5 416.156991 49.995432 344.608856 5 300.765847"></polygon>
                <polygon id="Path-2-Copy-21" fill="#232323" transform="translate(174.509402, 416.161864) scale(1, -1) translate(-174.509402, -416.161864) " points="281.042503 455.085376 50.0188047 460 299 372.323727"></polygon>
                <polygon id="Path-2-Copy-21" fill="#1F3464" transform="translate(354.060862, 401.369725) scale(1, -1) translate(-354.060862, -401.369725) " points="427.123424 459.989985 280.9983 425.510676 299.004823 342.749464"></polygon>
                <polygon id="Path-2-Copy-3" fill="#13203C" transform="translate(954.431532, 888.409808) scale(-1, 1) translate(-954.431532, -888.409808) " points="932.171627 801.694811 990.074016 975.124805 918.789048 928.957217"></polygon>
                <polygon id="Path-2-Copy-3" fill="#00A7E7" transform="translate(951.017323, 992.541762) scale(-1, 1) translate(-951.017323, -992.541762) " points="990.059178 1056.13672 983.118474 974.868758 911.975469 928.946805"></polygon>
                <polygon id="Path-2-Copy-3" fill="#DA1157" transform="translate(960.500000, 1015.467318) scale(-1, 1) translate(-960.500000, -1015.467318) " points="1009 1056.07469 912 1102 930.976808 928.934636 932.600314 931.65063"></polygon>
                <polygon id="Path-2-Copy-3" fill="#0492C9" transform="translate(1044.542112, 1015.481602) scale(-1, 1) translate(-1044.542112, -1015.481602) " points="990.021174 932.972087 1080.12211 1102 1099.06305 928.96431"></polygon>
                <polygon id="Path-2-Copy-3" fill="#00A7E7" transform="translate(1057.969255, 1017.510174) scale(-1, 1) translate(-1057.969255, -1017.510174) " points="1016.87 933 1107 1102.01925 1008.93851 996.85143"></polygon>
                <polygon id="Path-2-Copy-3" fill="#C20F4D" transform="translate(960.500000, 1091.000000) scale(-1, 1) translate(-960.500000, -1091.000000) " points="1009 1056 912 1101.995 1009 1126"></polygon>
                <polygon id="Path-2-Copy-3" fill="#13203C" transform="translate(860.500000, 1076.000000) scale(-1, 1) translate(-860.500000, -1076.000000) " points="809 1056.07856 912 1026 809 1126"></polygon>
                <polygon id="Path-2-Copy-3" fill="#00A7E7" transform="translate(857.461720, 1085.552571) scale(-1, 1) translate(-857.461720, -1085.552571) " points="912 1145.10514 905.865696 1026 802.92344 1125.96723"></polygon>
                <polygon id="Path-2-Copy-3" fill="#0492C9" transform="translate(895.500000, 1157.000000) scale(-1, 1) translate(-895.500000, -1157.000000) " points="988 1145.07939 803 1188 878.93377 1126"></polygon>
                <polygon id="Path-2-Copy-3" fill="#C20F4D" transform="translate(751.000000, 1067.000000) scale(-1, 1) translate(-751.000000, -1067.000000) " points="699.072808 1145 693 1026.08168 809 989"></polygon>
                <polygon id="Path-2-Copy-3" fill="#1F3464" transform="translate(680.091287, 1067.000000) scale(-1, 1) translate(-680.091287, -1067.000000) " points="557.182574 1145 803 1140.9665 667.042509 989"></polygon>
                <polygon id="Path-2-Copy-3" fill="#DA1157" transform="translate(680.065827, 1157.978140) scale(-1, 1) translate(-680.065827, -1157.978140) " points="557.131655 1144.99223 803 1140.95628 565.125109 1175"></polygon>
                <polygon id="Path-2-Copy-3" fill="#232323" transform="translate(650.509835, 1178.469695) scale(-1, 1) translate(-650.509835, -1178.469695) " points="795.01967 1216 743.906224 1140.93939 506 1174.99554"></polygon>
                <polygon id="Path-2-Copy-3" fill="#00A7E7" transform="translate(650.500000, 1270.877467) scale(-1, 1) translate(-650.500000, -1270.877467) " points="795 1215.99023 794.49937 1366.75493 506 1175"></polygon>
                <polygon id="Path-2-Copy-3" fill="#0492C9" transform="translate(454.121610, 1286.173782) scale(-1, 1) translate(-454.121610, -1286.173782) " points="402.24322 1215.99023 401.74259 1366.75493 506.50063 1205.59263"></polygon>
                <polygon id="Path-2-Copy-3" fill="#DA1157" transform="translate(453.871295, 1146.159194) scale(-1, 1) translate(-453.871295, -1146.159194) " points="401.74259 1215.99023 478.535697 1076.32815 506 1205.59263"></polygon>
                <polygon id="Path-2-Copy-3" fill="#232323" transform="translate(346.602010, 1044.763232) scale(-1, 1) translate(-346.602010, -1044.763232) " points="429.206892 883.933834 263.997128 1076.32815 291.461431 1205.59263"></polygon>
                <polygon id="Path-2-Copy-3" fill="#1F3464" transform="translate(747.184587, 1270.903259) scale(-1, 1) translate(-747.184587, -1270.903259) " points="506.39523 1187.90271 987.973944 1366.80351 699.369138 1175.003"></polygon>
                <polygon id="Path-2-Copy-3" fill="#13203C" transform="translate(891.497746, 1166.511506) scale(-1, 1) translate(-891.497746, -1166.511506) " points="980.041159 1145.02301 794.995492 1188 988 1175.01083"></polygon>
                <polygon id="Path-2-Copy-3" fill="#00A7E7" transform="translate(561.000000, 1064.996679) scale(-1, 1) translate(-561.000000, -1064.996679) " points="693 1076.28649 564.782161 1140.99336 429.001574 989"></polygon>
                <polygon id="Path-2-Copy-3" fill="#0492C9" transform="translate(493.086261, 1145.923575) scale(-1, 1) translate(-493.086261, -1145.923575) " points="557.172522 1076 429 1140.90717 480.130299 1215.84715"></polygon>
                <polygon id="Path-2-Copy-3" fill="#1F3464" transform="translate(960.500000, 1144.955550) scale(-1, 1) translate(-960.500000, -1144.955550) " points="933.127697 1187.9111 912 1102 1009 1125.95967"></polygon>
                <polygon id="Path-2-Copy-25" fill="#13203C" transform="translate(556.557620, 728.521221) scale(-1, 1) translate(-556.557620, -728.521221) " points="543.096428 640.988494 600 816.053949 513.115241 761.401303"></polygon>
                <polygon id="Path-2-Copy-25" fill="#0492C9" transform="translate(594.597067, 701.129049) scale(-1, 1) translate(-594.597067, -701.129049) " points="619.194135 641 570 682.113784 589.234056 761.258099"></polygon>
                <polygon id="Path-2-Copy-25" fill="#C20F4D" transform="translate(594.986631, 647.141363) scale(-1, 1) translate(-594.986631, -647.141363) " points="620.011135 640.979532 570.96693 682 569.962127 612.282725"></polygon>
                <polygon id="Path-2-Copy-25" fill="#0492C9" transform="translate(556.515775, 610.469803) scale(-1, 1) translate(-556.515775, -610.469803) " points="543.032735 640.988886 620 579.950721 493.031551 612.316918"></polygon>
                <polygon id="Path-2-Copy-25" fill="#DA1157" transform="translate(512.030243, 610.469803) scale(-1, 1) translate(-512.030243, -610.469803) " points="454.061669 640.988886 531.028934 579.950721 569.998816 599.640591"></polygon>
                <polygon id="Path-2-Copy-25" fill="#C20F4D" transform="translate(453.516519, 589.795656) scale(-1, 1) translate(-453.516519, -589.795656) " points="493.031551 585.293948 414.001487 579.950721 452.971369 599.640591"></polygon>
                <polygon id="Path-2-Copy-26" fill="#C20F4D" transform="translate(414.668618, 808.514225) scale(-1, 1) translate(-414.668618, -808.514225) " points="513.142134 718.029904 322.82422 898.998545 316.195101 816.256929"></polygon>
                <polygon id="Path-2-Copy-26" fill="#13203C" transform="translate(385.245982, 808.482159) scale(-1, 1) translate(-385.245982, -808.482159) " points="454.313459 718.00459 264 898.959728 506.491964 883.984973"></polygon>
                <polygon id="Path-2-Copy-26" fill="#C20F4D" transform="translate(385.245982, 969.131070) scale(-1, 1) translate(-385.245982, -969.131070) " points="274.994522 1054.27717 264 898.959728 506.491964 883.984973"></polygon>
                <polygon id="Path-2-Copy-26" fill="#1F3464" transform="translate(379.748721, 980.133933) scale(-1, 1) translate(-379.748721, -980.133933) " points="264 1054.27717 330.46051 1076.28289 495.497442 883.984973"></polygon>
                <polygon id="Path-2-Copy-26" fill="#0492C9" transform="translate(268.704455, 746.448760) scale(-1, 1) translate(-268.704455, -746.448760) " points="221.181789 717.987071 316.227121 608.950766 273.336339 883.946754"></polygon>
                <polygon id="Path-2-Copy-26" fill="#1F3464" transform="translate(134.405845, 746.470043) scale(-1, 1) translate(-134.405845, -746.470043) " points="263.811691 649.937554 47.5481441 609 4.77579853 883.940085 264.035892 819.68884"></polygon>
                <polygon id="Path-2-Copy-26" fill="#00A7E7" transform="translate(134.405845, 908.228085) scale(-1, 1) translate(-134.405845, -908.228085) " points="112.206039 996.76733 4.77579853 883.940085 264.035892 819.68884"></polygon>
                <polygon id="Path-2-Copy-26" fill="#232323" transform="translate(80.690725, 915.604933) scale(-1, 1) translate(-80.690725, -915.604933) " points="4.77579853 996.76733 156.38145 1011.52103 156.605652 819.68884"></polygon>
                <polygon id="Path-2-Copy-26" fill="#1F3464" transform="translate(80.802826, 1094.797791) scale(-1, 1) translate(-80.802826, -1094.797791) " points="5 996.76733 156.605652 1011.52103 156.605652 1192.82825"></polygon>
                <polygon id="Path-2-Copy-26" fill="#C20F4D" transform="translate(203.445859, 1101.319124) scale(-1, 1) translate(-203.445859, -1101.319124) " points="250.286065 996.76733 5 1205.87092 401.891717 1192.82825"></polygon>
                <polygon id="Path-2-Copy-26" fill="#DA1157" transform="translate(279.287927, 1044.973265) scale(-1, 1) translate(-279.287927, -1044.973265) " points="401.970203 996.76733 294.539963 883.940085 156.605652 1206.00644"></polygon>
                <polygon id="Path-2-Copy-26" fill="#DA1157" transform="translate(141.542660, 746.374324) scale(-1, 1) translate(-141.542660, -746.374324) " points="264.08532 646.614374 61.6822815 608.792086 19 883.956561"></polygon>
                <polygon id="Path-2-Copy-26" fill="#00A7E7" transform="translate(286.500000, 640.000000) scale(-1, 1) translate(-286.500000, -640.000000) " points="256.791333 718 352 608.967229 221 562"></polygon>
                <polygon id="Path-2-Copy-26" fill="#C20F4D" transform="translate(278.391440, 583.504267) scale(-1, 1) translate(-278.391440, -583.504267) " points="352 558.008533 336.020561 609 204.782879 562.317083"></polygon>
                <polygon id="Path-2-Copy-26" fill="#13203C" transform="translate(112.944871, 604.129227) scale(-1, 1) translate(-112.944871, -604.129227) " points="21.0349365 558 4.88974165 609.036135 221 650.258455 221 614.887157"></polygon>
                <polygon id="Path-2-Copy-26" fill="#232323" transform="translate(120.125630, 602.667034) scale(-1, 1) translate(-120.125630, -602.667034) " points="35.3977267 558 19.2512594 609.055607 221 647.334067"></polygon>
            </g>
        </g>
    </g>
</svg>