
<svg width="406px" height="461px" viewBox="0 0 406 461" version="1.1" xmlns="http://www.w3.org/2000/svg" xmlns:xlink="http://www.w3.org/1999/xlink">
    <!-- Generator: Sketch 49.2 (51160) - http://www.bohemiancoding.com/sketch -->
    <desc>Created with Sketch.</desc>
    <defs>
        <path d="M199.10008,391.791956 L317.619657,312.902576 C309.673063,304.308764 304.67736,292.949557 304.201123,280.391075 L268.707447,265.447289 C260.181512,293.412904 234.282832,313.713603 203.477173,313.903133 L185.932102,372.461999 C191.710826,377.739891 196.256369,384.339182 199.10008,391.791956 Z M202.396119,411.830386 C201.424314,439.109601 179.130421,460.760364 151.56187,460.760364 C123.370365,460.760364 100.69459,438.12008 100.69459,409.972701 C100.69459,395.767706 106.469808,382.965295 115.814638,373.767621 L58.354852,278.512021 C55.9714065,278.850914 53.5335681,279.026196 51.0530267,279.026196 C22.8615218,279.026196 0.185746179,256.385913 0.185746179,228.238533 C0.185746179,201.576399 20.531606,179.855511 46.6389009,177.637467 L45.6309566,99.6440536 C24.2963254,93.6045514 8.7657694,74.0820021 8.7657694,50.787663 C8.7657694,22.6402835 31.441545,0 59.6330499,0 C87.8245547,0 110.50033,22.6402835 110.50033,50.787663 C110.50033,64.3909124 105.204043,76.7078921 96.5484814,85.804621 L167.870998,186.463613 C178.147987,180.348277 190.173221,176.838971 203.042009,176.838971 C241.039255,176.838971 271.682195,207.433949 271.682195,245.371721 C271.682195,245.737371 271.679349,246.102339 271.673676,246.466605 L307.074298,261.371213 C314.056067,241.662601 332.833776,227.626634 355.030992,227.626634 C383.222497,227.626634 405.898273,250.266917 405.898273,278.414297 C405.898273,306.561676 383.222497,329.20196 355.030992,329.20196 C347.336509,329.20196 340.052916,327.51539 333.529113,324.490606 C333.348389,324.638033 333.161342,324.780832 332.968075,324.918663 L202.396119,411.830386 Z M184.783877,311.467959 C156.339199,303.69135 135.353925,278.165723 134.43335,247.476643 L99.6675396,243.294519 C95.8565389,255.661351 87.46415,265.981537 76.4480157,272.300498 L131.352013,363.319165 C137.540012,360.657837 144.371536,359.185038 151.56187,359.185038 C157.890486,359.185038 163.941141,360.325978 169.519706,362.414033 L184.783877,311.467959 Z M65.0471831,179.379897 C85.3585005,185.126144 100.410976,203.092473 101.81336,224.900768 L136.347292,229.054971 C139.234114,217.189312 145.201973,206.54643 153.362513,198.013289 L81.5534347,96.6676017 C76.1758625,99.2209069 70.2716809,100.860865 64.0392765,101.3894 L65.0471831,179.379897 Z" id="path-1"></path>
    </defs>
    <g id="Website---Branding" stroke="none" stroke-width="1" fill="none" fill-rule="evenodd">
        <g id="MF_Illustration_PPNetwork" transform="translate(-57.000000, -19.000000)">
            <g id="Icon-MFT" transform="translate(57.000000, 19.000000)">
                <g id="Group-3">
                    <mask id="mask-2" fill="white">
                        <use xlink:href="#path-1"></use>
                    </mask>
                    <use id="Combined-Shape" fill="#DA1157" fill-rule="nonzero" xlink:href="#path-1"></use>
                    <g id="Group-6" mask="url(#mask-2)">
                        <g transform="translate(-790.058824, -701.175309)">
                            <polygon id="Path-2-Copy-24" fill="#232323" transform="translate(1321.891747, 678.801189) scale(-1, 1) translate(-1321.891747, -678.801189) " points="1177.67937 590.373737 1217.54037 767.22864 1466.10562 677.655803"></polygon>
                            <polygon id="Path-2-Copy-21" fill="#DA1157" transform="translate(979.308123, 660.766667) scale(-1, 1) translate(-979.308123, -660.766667) " points="837.786291 630.426153 836.80112 711.419753 1121.81513 610.11358"></polygon>
                            <polygon id="Path-2-Copy-21" fill="#13203C" transform="translate(914.338460, 660.766667) scale(-1, 1) translate(-914.338460, -660.766667) " points="1121.81513 696.985939 706.861794 711.419753 992.16816 610.11358"></polygon>
                            <polygon id="Path-2-Copy-21" fill="#00A7E7" transform="translate(979.308123, 660.766667) scale(-1, 1) translate(-979.308123, -660.766667) " points="985.837861 704.328103 836.80112 711.419753 1121.81513 610.11358"></polygon>
                            <polygon id="Path-2-Copy-25" fill="#C20F4D" transform="translate(1149.746499, 670.441975) scale(1, -1) translate(-1149.746499, -670.441975) " points="1178.81793 663.11729 1120.67507 710.281481 1120.67507 630.602469"></polygon>
                            <polygon id="Path-2-Copy-25" fill="#00A7E7" transform="translate(1273.432122, 722.236405) scale(1, -1) translate(-1273.432122, -722.236405) " points="1178.11292 767.201204 1426.18917 677.271605 1120.67507 735.295475"></polygon>
                            <polygon id="Path-2-Copy-9" fill="#00A7E7" points="1113.47042 912.547032 1254.06162 1062.00741 1128.76385 1057.81052"></polygon>
                            <polygon id="Path-2-Copy-12" fill="#13203C" transform="translate(1188.284607, 987.260960) scale(-1, -1) translate(-1188.284607, -987.260960) " points="1123.53213 912.514513 1263.15696 1062.00741 1113.41225 1055.93709"></polygon>
                            <polygon id="Path-2-Copy-13" fill="#DA1157" transform="translate(1188.255171, 876.469136) scale(-1, -1) translate(-1188.255171, -876.469136) " points="1113.32827 834.353086 1263.18207 840.427166 1121.90888 918.585185"></polygon>
                            <polygon id="Path-2-Copy-14" fill="#C20F4D" points="1121.30861 824.108642 1258.62185 833.365906 1112.69468 912.893827"></polygon>
                            <polygon id="Path-2-Copy-18" fill="#1F3464" transform="translate(1272.872549, 800.774074) scale(-1, -1) translate(-1272.872549, -800.774074) " points="1288.40366 767.195062 1426.21008 776.432299 1119.53501 834.353086"></polygon>
                            <polygon id="Path-2-Copy-8" fill="#DA1157" transform="translate(1052.119053, 1011.745392) scale(1, -1) translate(-1052.119053, -1011.745392) " points="990.724214 963.731911 1047.21325 912.537698 1113.51389 1110.95309"></polygon>
                            <polygon id="Path-2-Copy-8" fill="#C20F4D" transform="translate(962.207283, 1084.762164) scale(1, -1) translate(-962.207283, -1084.762164) " points="990.732555 1109.81481 1047.71148 1059.70951 876.703081 1075.05653"></polygon>
                            <polygon id="Path-2-Copy-8" fill="#13203C" transform="translate(962.207283, 1148.516049) scale(1, -1) translate(-962.207283, -1148.516049) " points="1040.20029 1093.87901 1047.71148 1187.29263 876.703081 1203.15309"></polygon>
                            <polygon id="Path-2-Copy-8" fill="#232323" transform="translate(958.787115, 1148.516049) scale(1, -1) translate(-958.787115, -1148.516049) " points="1040.87115 1093.87901 921.994539 1128.87633 876.703081 1203.15309"></polygon>
                            <polygon id="Path-2-Copy-8" fill="#DA1157" transform="translate(853.901961, 1130.872840) scale(1, -1) translate(-853.901961, -1130.872840) " points="922.305322 1093.87901 785.498599 1137.11508 877.168191 1167.86667"></polygon>
                            <polygon id="Path-2-Copy-15" fill="#13203C" transform="translate(1069.372549, 868.895454) scale(1, -1) translate(-1069.372549, -868.895454) " points="1016.92997 834.360457 1113.40617 825.246914 1121.81513 912.543995"></polygon>
                            <polygon id="Path-2-Copy-16" fill="#0492C9" transform="translate(1056.261905, 850.288889) scale(1, -1) translate(-1056.261905, -850.288889) " points="990.708683 903.787654 1016.89494 796.790123 1121.81513 875.266463"></polygon>
                            <polygon id="Path-2-Copy-16" fill="#C20F4D" transform="translate(1056.234445, 767.195062) scale(1, -1) translate(-1056.234445, -767.195062) " points="990.653764 737.602584 1120.74629 825.246914 1121.81513 709.14321"></polygon>
                            <polygon id="Path-2-Copy-16" fill="#232323" transform="translate(1273.432468, 767.195062) scale(1, -1) translate(-1273.432468, -767.195062) " points="1426.18987 767.195062 1120.67507 825.246914 1121.77761 709.14321"></polygon>
                            <polygon id="Path-2-Copy-17" fill="#00A7E7" transform="translate(915.387560, 848.735357) scale(1, -1) translate(-915.387560, -848.735357) " points="990.338992 902.957133 812.744065 814.182906 1018.03105 794.51358"></polygon>
                            <polygon id="Path-2-Copy-8" fill="#00A7E7" transform="translate(978.559757, 986.177173) scale(1, -1) translate(-978.559757, -986.177173) " points="843.641457 953.455816 990.839875 912.634068 1113.47806 1059.72028"></polygon>
                            <polygon id="Path-2-Copy-8" fill="#0492C9" transform="translate(917.175070, 1015.338272) scale(1, -1) translate(-917.175070, -1015.338272) " points="843.641457 1011.82724 990.708683 970.945679 965.038081 1059.73086"></polygon>
                            <polygon id="Path-2-Copy-11" fill="#1F3464" transform="translate(962.777311, 951.025926) scale(1, -1) translate(-962.777311, -951.025926) " points="811.719888 1018.75309 844.43743 883.298765 1113.83473 989.525608"></polygon>
                            <polygon id="Path-2-Copy-11" fill="#13203C" transform="translate(931.425624, 960.847847) scale(1, -1) translate(-931.425624, -960.847847) " points="1018.06819 1018.75309 844.781513 902.942608 965.060481 950.703177"></polygon>
                            <polygon id="Path-2-Copy-19" fill="#C20F4D" transform="translate(745.476453, 952.811215) scale(1, -1) translate(-745.476453, -952.811215) " points="646.171394 883.298765 844.781513 886.605817 812.900495 1022.32367"></polygon>
                            <polygon id="Path-2-Copy-19" fill="#00A7E7" transform="translate(706.044959, 1109.214838) scale(1, -1) translate(-706.044959, -1109.214838) " points="646.2954 1196.28395 844.781513 1199.67659 567.308405 1018.75309"></polygon>
                            <polygon id="Path-2-Copy-19" fill="#1F3464" transform="translate(779.393718, 1108.932019) scale(1, -1) translate(-779.393718, -1108.932019) " points="990.708683 1158.11737 844.70576 1199.11095 568.078753 1018.75309"></polygon>
                            <polygon id="Path-2-Copy-20" fill="#232323" transform="translate(729.579447, 899.285466) scale(1, -1) translate(-729.579447, -899.285466) " points="646.285384 776.301235 812.87351 915.221328 705.716789 1022.2697"></polygon>
                            <polygon id="Path-2-Copy-11" fill="#DA1157" transform="translate(915.464986, 951.025926) scale(1, -1) translate(-915.464986, -951.025926) " points="812.859944 1018.75309 844.884787 883.298765 1018.07003 999.129179"></polygon>
                            <polygon id="Path-2-Copy-21" fill="#1F3464" transform="translate(848.201681, 829.800000) scale(1, -1) translate(-848.201681, -829.800000) " points="705.696143 883.298765 812.781451 776.301235 990.708683 862.858818"></polygon>
                            <polygon id="Path-2-Copy-21" fill="#DA1157" transform="translate(848.201681, 746.884871) scale(1, -1) translate(-848.201681, -746.884871) " points="705.694678 717.512588 706.829526 796.790123 990.708683 696.978774"></polygon>
                            <polygon id="Path-2-Copy-21" fill="#232323" transform="translate(848.782428, 746.890418) scale(1, -1) translate(-848.782428, -746.890418) " points="970.23613 791.195947 706.856172 796.790123 990.708683 696.990712"></polygon>
                            <polygon id="Path-2-Copy-21" fill="#1F3464" transform="translate(1045.430404, 749.676356) scale(1, -1) translate(-1045.430404, -749.676356) " points="1120.67507 789.762218 970.185737 796.778724 990.714182 702.573987"></polygon>
                            <polygon id="Path-2-Copy-3" fill="#13203C" transform="translate(1088.105416, 1011.251658) scale(-1, 1) translate(-1088.105416, -1011.251658) " points="1062.72788 912.546439 1128.73984 1109.95688 1047.47099 1057.40562"></polygon>
                            <polygon id="Path-2-Copy-3" fill="#00A7E7" transform="translate(1084.213027, 1129.782104) scale(-1, 1) translate(-1084.213027, -1129.782104) " points="1128.72293 1202.17044 1120.81014 1109.66543 1039.70313 1057.39377"></polygon>
                            <polygon id="Path-2-Copy-3" fill="#DA1157" transform="translate(1095.023810, 1155.877614) scale(-1, 1) translate(-1095.023810, -1155.877614) " points="1150.31653 1202.09984 1039.73109 1254.37531 1061.36572 1057.37992 1063.2166 1060.47146"></polygon>
                            <polygon id="Path-2-Copy-3" fill="#0492C9" transform="translate(1190.836525, 1155.893873) scale(-1, 1) translate(-1190.836525, -1155.893873) " points="1128.6796 1061.97564 1231.39972 1254.37531 1252.99345 1057.4137"></polygon>
                            <polygon id="Path-2-Copy-3" fill="#00A7E7" transform="translate(1206.144221, 1158.202939) scale(-1, 1) translate(-1206.144221, -1158.202939) " points="1159.28876 1062.00741 1262.04202 1254.39722 1150.24642 1134.68768"></polygon>
                            <polygon id="Path-2-Copy-3" fill="#C20F4D" transform="translate(856.182073, 1214.535802) scale(-1, 1) translate(-856.182073, -1214.535802) " points="796.982165 1303.32099 790.058824 1167.95964 922.305322 1125.75062"></polygon>
                            <polygon id="Path-2-Copy-3" fill="#1F3464" transform="translate(775.342168, 1214.535802) scale(-1, 1) translate(-775.342168, -1214.535802) " points="635.219349 1303.32099 915.464986 1298.72977 760.465829 1125.75062"></polygon>
                        </g>
                    </g>
                </g>
            </g>
        </g>
    </g>
</svg>