
<svg width="581px" height="330px" viewBox="0 0 581 330" version="1.1" xmlns="http://www.w3.org/2000/svg" xmlns:xlink="http://www.w3.org/1999/xlink">
    <!-- Generator: Sketch 49.2 (51160) - http://www.bohemiancoding.com/sketch -->
    <desc>Created with Sketch.</desc>
    <defs>
        <path d="M361.749275,11.9950602 C362.388463,11.2871183 363.209932,10.9707019 364.016948,10.9707019 C365.597253,10.9707019 367.123756,12.1828326 367.123756,14.046174 L367.123756,280.718927 C367.123756,283.114423 364.496339,284.589435 362.438249,283.346142 C345.395368,273.046627 283.591639,238.106579 205.698993,222.626943 C204.954612,222.479921 204.190156,222.364861 203.436941,222.241011 C202.946308,222.161108 202.446039,222.193069 201.973072,222.344885 L176.203986,230.614861 C174.582728,231.134231 173.693003,232.868129 174.21415,234.481374 C184.784045,267.228879 190.070197,283.602632 190.070197,283.602632 L191.683424,288.584593 C197.073163,305.245997 187.808947,323.137909 171.016603,328.477037 C154.241121,333.825754 136.261942,324.636093 130.8714,307.95711 L113.461549,253.998516 C112.938795,252.381276 111.196284,251.492753 109.571012,252.016119 C107.704036,252.616192 105.754351,251.354521 105.550389,249.412076 L102.875594,223.897403 C102.711782,222.333699 101.386832,221.14474 99.8057237,221.14474 L80.2984348,221.14474 C69.7735084,221.14474 61.1806011,210.066968 61.1806011,196.440285 L61.1806011,120.617793 C61.1806011,106.975929 69.7735084,95.8725882 80.2984348,95.8725882 L120.42035,95.8725882 C131.480878,95.8725882 147.800255,99.6703847 148.556681,99.5425397 C196.535153,91.4619346 312.050777,66.9580369 361.749275,11.9950602 Z M378.365762,9.58837746 C378.365762,4.29319601 382.680283,0 388.001767,0 C393.323251,0 397.637772,4.29319601 397.637772,9.58837746 L397.637772,289.248588 C397.637772,294.545367 393.323251,298.836965 388.001767,298.836965 C382.680283,298.836965 378.365762,294.545367 378.365762,289.248588 L378.365762,9.58837746 Z M545.07561,20.0007945 C546.702491,18.6356797 550.679289,20.6962819 553.957349,24.602921 C557.235408,28.5095602 558.574141,32.7837617 556.947261,34.1488765 L471.025046,106.246175 C469.397674,107.611702 465.421367,105.550688 462.143308,101.644049 C458.865248,97.7374098 457.526024,93.4636202 459.153395,92.0980935 L545.07561,20.0007945 Z M459.153395,200.347419 C457.526515,198.982304 458.865248,194.708103 462.143308,190.801464 C465.421367,186.894825 469.398165,184.834222 471.025046,186.199337 L556.947261,258.296636 C558.574632,259.662163 557.235408,263.935952 553.957349,267.842592 C550.679289,271.749231 546.702982,273.810245 545.07561,272.444718 L459.153395,200.347419 Z M464.013591,158.653387 C461.88985,158.653387 460.167975,154.518637 460.167975,149.418882 C460.167975,144.319127 461.88985,140.184377 464.013591,140.184377 L576.177077,140.184377 C578.30146,140.184377 580.022693,144.319127 580.022693,149.418882 C580.022693,154.518637 578.30146,158.653387 576.177077,158.653387 L464.013591,158.653387 Z M35.9302533,104.673121 L53.082342,104.673121 C50.9832989,108.66668 49.7418603,113.488036 49.7418603,118.694525 L49.7418603,195.033191 C49.7418603,201.486169 51.6698642,207.291132 54.7565978,211.742537 L35.9222232,211.742537 C19.3089478,211.742537 4.50081729,200.830164 0,185.751641 L0.580569295,130.567333 C5.47325078,115.594283 19.3579308,104.673121 35.9302533,104.673121 Z" id="path-1"></path>
        <filter x="-11.0%" y="-117.2%" width="122.0%" height="334.4%" filterUnits="objectBoundingBox" id="filter-3">
            <feGaussianBlur stdDeviation="5.77566964" in="SourceGraphic"></feGaussianBlur>
        </filter>
    </defs>
    <g id="Website---Branding" stroke="none" stroke-width="1" fill="none" fill-rule="evenodd">
        <g id="MF_Illustration_CensorshipResistant" transform="translate(-23.000000, -54.000000)">
            <g id="Group-3" transform="translate(23.000000, 54.000000)">
                <mask id="mask-2" fill="white">
                    <use xlink:href="#path-1"></use>
                </mask>
                <use id="Combined-Shape" fill="#1F3464" xlink:href="#path-1"></use>
                <g id="Group" mask="url(#mask-2)">
                    <g transform="translate(-256.000000, -394.000000)">
                        <path d="M485.150988,670.857175 L617.272083,670.857175 C620.856237,670.857175 624.252765,672.459279 626.532305,675.225118 L629.025846,678.250613 C630.613242,680.176651 630.338718,683.024853 628.412679,684.612249 C627.603351,685.279278 626.587224,685.64405 625.538444,685.64405 L477.119173,685.64405 C474.593036,685.64405 472.545198,683.596211 472.545198,681.070074 C472.545198,680.048016 472.887512,679.055404 473.517522,678.250613 L475.701919,675.46021 C477.976404,672.554725 481.461121,670.857175 485.150988,670.857175 Z" id="Rectangle-5-Copy-4" fill="#232323" opacity="0.0899999961" filter="url(#filter-3)"></path>
                        <g id="Group-2" stroke-width="1" fill="none">
                            <g id="Group-6" transform="translate(0.039481, 0.333258)">
                                <polygon id="Path-2-Copy-24" fill="#232323" transform="translate(752.075337, 376.430548) scale(-1, 1) translate(-752.075337, -376.430548) " points="670.02734 327.392929 692.705802 425.468167 834.124188 375.795373"></polygon>
                                <polygon id="Path-2-Copy-21" fill="#DA1157" transform="translate(557.166264, 366.429468) scale(-1, 1) translate(-557.166264, -366.429468) " points="476.649021 349.604076 476.088519 394.519238 638.244009 338.339698"></polygon>
                                <polygon id="Path-2-Copy-21" fill="#13203C" transform="translate(520.202510, 366.429468) scale(-1, 1) translate(-520.202510, -366.429468) " points="638.244009 386.514938 402.161011 394.519238 564.482836 338.339698"></polygon>
                                <polygon id="Path-2-Copy-21" fill="#00A7E7" transform="translate(557.166264, 366.429468) scale(-1, 1) translate(-557.166264, -366.429468) " points="560.881284 390.58655 476.088519 394.519238 638.244009 338.339698"></polygon>
                                <polygon id="Path-2-Copy-25" fill="#C20F4D" transform="translate(654.135247, 371.794930) scale(1, -1) translate(-654.135247, -371.794930) " points="670.675107 367.733011 637.595387 393.888007 637.595387 349.701852"></polygon>
                                <polygon id="Path-2-Copy-25" fill="#00A7E7" transform="translate(724.504782, 400.517634) scale(1, -1) translate(-724.504782, -400.517634) " points="670.274002 425.452953 811.414176 375.582314 637.595387 407.759567"></polygon>
                                <polygon id="Path-2-Copy-26" fill="#1F3464" transform="translate(865.249855, 333.921083) scale(1, -1) translate(-865.249855, -333.921083) " points="834.10416 340.433764 896.39555 272.060466 875.808108 395.781699"></polygon>
                                <polygon id="Path-2-Copy-26" fill="#00A7E7" transform="translate(853.910811, 376.427473) scale(1, -1) translate(-853.910811, -376.427473) " points="834.111421 425.449546 896.39555 356.920898 811.426073 327.405014"></polygon>
                                <polygon id="Path-2-Copy-26" fill="#C20F4D" transform="translate(859.431404, 411.878084) scale(1, -1) translate(-859.431404, -411.878084) " points="907.422123 395.781699 896.432031 427.974469 811.440685 398.32226"></polygon>
                                <polygon id="Path-2-Copy-9" fill="#00A7E7" points="633.496381 506.05477 713.484157 588.938318 642.197405 586.610923"></polygon>
                                <polygon id="Path-2-Copy-12" fill="#13203C" transform="translate(676.061068, 547.487528) scale(-1, -1) translate(-676.061068, -547.487528) " points="639.220878 506.036737 718.658846 588.938318 633.463289 585.572014"></polygon>
                                <polygon id="Path-2-Copy-12" fill="#DA1157" transform="translate(746.912192, 549.160703) scale(-1, -1) translate(-746.912192, -549.160703) " points="780.940841 509.395778 712.883544 516.17455 775.166945 588.925628"></polygon>
                                <polygon id="Path-2-Copy-12" fill="#1F3464" transform="translate(746.888188, 605.600623) scale(-1, -1) translate(-746.888188, -605.600623) " points="780.940841 622.390831 712.835535 629.206466 775.760127 581.99478"></polygon>
                                <polygon id="Path-2-Copy-13" fill="#DA1157" transform="translate(676.044320, 486.047701) scale(-1, -1) translate(-676.044320, -486.047701) " points="633.415508 462.692162 718.673132 466.060555 638.297348 509.40324"></polygon>
                                <polygon id="Path-2-Copy-14" fill="#C20F4D" points="637.95583 457.011085 716.078645 462.144719 633.055034 506.247086"></polygon>
                                <polygon id="Path-2-Copy-18" fill="#1F3464" transform="translate(724.186419, 444.070854) scale(-1, -1) translate(-724.186419, -444.070854) " points="733.022667 425.449546 811.426073 430.572075 636.946765 462.692162"></polygon>
                                <polygon id="Path-2-Copy-18" fill="#0492C9" transform="translate(761.806493, 467.426393) scale(-1, -1) translate(-761.806493, -467.426393) " points="811.426073 471.279696 804.951586 425.449546 712.18775 509.40324"></polygon>
                                <polygon id="Path-2-Copy-22" fill="#1F3464" transform="translate(360.991482, 523.609995) scale(-1, -1) translate(-360.991482, -523.609995) " points="354.173062 480.366624 389.173176 532.097681 332.809788 566.853366"></polygon>
                                <polygon id="Path-2-Copy-23" fill="#00A7E7" transform="translate(348.191645, 541.289083) scale(1, -1) translate(-348.191645, -541.289083) " points="328.510524 515.145933 367.872765 515.715029 332.829951 567.432232"></polygon>
                                <polygon id="Path-2-Copy-23" fill="#DA1157" transform="translate(344.418261, 617.974934) scale(1, -1) translate(-344.418261, -617.974934) " points="328.529396 668.516225 367.768652 669.104627 321.067871 566.845241"></polygon>
                                <polygon id="Path-2-Copy-8" fill="#DA1157" transform="translate(598.591218, 561.065418) scale(1, -1) translate(-598.591218, -561.065418) " points="563.66132 534.439447 595.800116 506.049594 633.521116 616.081242"></polygon>
                                <polygon id="Path-2-Copy-8" fill="#C20F4D" transform="translate(547.436935, 601.557014) scale(1, -1) translate(-547.436935, -601.557014) " points="563.666065 615.450011 596.083582 587.664016 498.790288 596.174733"></polygon>
                                <polygon id="Path-2-Copy-8" fill="#13203C" transform="translate(547.436935, 636.911858) scale(1, -1) translate(-547.436935, -636.911858) " points="591.810174 606.61278 596.083582 658.415488 498.790288 667.210935"></polygon>
                                <polygon id="Path-2-Copy-8" fill="#232323" transform="translate(545.491069, 636.911858) scale(1, -1) translate(-545.491069, -636.911858) " points="592.19185 606.61278 524.55835 626.020612 498.790288 667.210935"></polygon>
                                <polygon id="Path-2-Copy-8" fill="#DA1157" transform="translate(485.817849, 627.127781) scale(1, -1) translate(-485.817849, -627.127781) " points="524.735166 606.61278 446.900531 630.58943 499.054906 647.642781"></polygon>
                                <polygon id="Path-2-Copy-24" fill="#DA1157" transform="translate(287.419515, 459.926443) scale(1, -1) translate(-287.419515, -459.926443) " points="205.1037 466.60195 332.824114 404.598125 369.735331 515.254761"></polygon>
                                <polygon id="Path-2-Copy-24" fill="#232323" transform="translate(287.387769, 404.140608) scale(1, -1) translate(-287.387769, -404.140608) " points="205.061945 355.00102 228.222303 453.280196 369.714518 403.67653"></polygon>
                                <polygon id="Path-2-Copy-15" fill="#13203C" transform="translate(608.407399, 481.847701) scale(1, -1) translate(-608.407399, -481.847701) " points="578.570789 462.69625 633.459828 457.642316 638.244009 506.053086"></polygon>
                                <polygon id="Path-2-Copy-16" fill="#0492C9" transform="translate(600.948247, 471.529393) scale(1, -1) translate(-600.948247, -471.529393) " points="563.652484 501.19724 578.550858 441.861546 638.244009 485.380756"></polygon>
                                <polygon id="Path-2-Copy-16" fill="#C20F4D" transform="translate(600.932624, 425.449546) scale(1, -1) translate(-600.932624, -425.449546) " points="563.621238 409.038979 637.63591 457.642316 638.244009 393.256776"></polygon>
                                <polygon id="Path-2-Copy-16" fill="#232323" transform="translate(724.504978, 425.449546) scale(1, -1) translate(-724.504978, -425.449546) " points="811.41457 425.449546 637.595387 457.642316 638.222663 393.256776"></polygon>
                                <polygon id="Path-2-Copy-17" fill="#00A7E7" transform="translate(520.799384, 470.667879) scale(1, -1) translate(-520.799384, -470.667879) " points="563.442152 500.736673 462.40153 451.506749 579.197237 440.599085"></polygon>
                                <polygon id="Path-2-Copy-8" fill="#00A7E7" transform="translate(556.740490, 546.886511) scale(1, -1) translate(-556.740490, -546.886511) " points="479.980251 528.740817 563.727124 506.103036 633.500729 587.669986"></polygon>
                                <polygon id="Path-2-Copy-8" fill="#0492C9" transform="translate(521.816367, 563.057856) scale(1, -1) translate(-521.816367, -563.057856) " points="479.980251 561.110808 563.652484 538.439856 549.047485 587.675857"></polygon>
                                <polygon id="Path-2-Copy-11" fill="#1F3464" transform="translate(547.761246, 527.393317) scale(1, -1) translate(-547.761246, -527.393317) " points="461.818836 564.951549 480.433111 489.835086 633.703656 548.743392"></polygon>
                                <polygon id="Path-2-Copy-11" fill="#13203C" transform="translate(529.924058, 532.840083) scale(1, -1) translate(-529.924058, -532.840083) " points="579.218368 564.951549 480.628873 500.728618 549.060229 527.214336"></polygon>
                                <polygon id="Path-2-Copy-19" fill="#C20F4D" transform="translate(424.130384, 528.383353) scale(1, -1) translate(-424.130384, -528.383353) " points="367.631896 489.835086 480.628873 491.669018 462.490529 566.93162"></polygon>
                                <polygon id="Path-2-Copy-19" fill="#00A7E7" transform="translate(401.696282, 615.117293) scale(1, -1) translate(-401.696282, -615.117293) " points="367.702447 663.401642 480.628873 665.283037 322.763691 564.951549"></polygon>
                                <polygon id="Path-2-Copy-19" fill="#1F3464" transform="translate(443.427228, 614.960455) scale(1, -1) translate(-443.427228, -614.960455) " points="563.652484 642.236287 480.585774 664.969361 323.201972 564.951549"></polygon>
                                <polygon id="Path-2-Copy-20" fill="#232323" transform="translate(415.085963, 498.700542) scale(1, -1) translate(-415.085963, -498.700542) " points="367.696749 430.499392 462.475176 507.537806 401.509574 566.901692"></polygon>
                                <polygon id="Path-2-Copy-11" fill="#DA1157" transform="translate(520.843434, 527.393317) scale(1, -1) translate(-520.843434, -527.393317) " points="462.467458 564.951549 480.68763 489.835086 579.219411 554.069072"></polygon>
                                <polygon id="Path-2-Copy-21" fill="#1F3464" transform="translate(482.574739, 460.167239) scale(1, -1) translate(-482.574739, -460.167239) " points="401.497827 489.835086 462.422801 430.499392 563.652484 478.500072"></polygon>
                                <polygon id="Path-2-Copy-21" fill="#DA1157" transform="translate(482.574739, 414.186490) scale(1, -1) translate(-482.574739, -414.186490) " points="401.496994 397.898032 402.142653 441.861546 563.652484 386.510964"></polygon>
                                <polygon id="Path-2-Copy-21" fill="#232323" transform="translate(482.905148, 414.189565) scale(1, -1) translate(-482.905148, -414.189565) " points="552.004857 438.759285 402.157813 441.861546 563.652484 386.517584"></polygon>
                                <polygon id="Path-2-Copy-21" fill="#1F3464" transform="translate(594.785787, 415.734513) scale(1, -1) translate(-594.785787, -415.734513) " points="637.595387 437.964207 551.976186 441.855225 563.655612 389.613801"></polygon>
                                <polygon id="Path-2-Copy-3" fill="#13203C" transform="translate(619.065252, 560.791617) scale(-1, 1) translate(-619.065252, -560.791617) " points="604.626989 506.054441 642.183749 615.528792 595.946754 586.386389"></polygon>
                                <polygon id="Path-2-Copy-3" fill="#00A7E7" transform="translate(616.850721, 626.522911) scale(-1, 1) translate(-616.850721, -626.522911) " points="642.174125 666.666006 637.672232 615.367167 591.527316 586.379817"></polygon>
                                <polygon id="Path-2-Copy-3" fill="#DA1157" transform="translate(623.001393, 640.994228) scale(-1, 1) translate(-623.001393, -640.994228) " points="654.459558 666.626853 591.543228 695.61632 603.852003 586.372135 604.905044 588.086554"></polygon>
                                <polygon id="Path-2-Copy-3" fill="#0492C9" transform="translate(677.512952, 641.003244) scale(-1, 1) translate(-677.512952, -641.003244) " points="642.149475 588.920699 700.59092 695.61632 712.87643 586.390867"></polygon>
                                <polygon id="Path-2-Copy-3" fill="#00A7E7" transform="translate(686.222093, 642.283742) scale(-1, 1) translate(-686.222093, -642.283742) " points="659.564211 588.938318 718.02451 695.62847 654.419675 629.243306"></polygon>
                                <polygon id="Path-2-Copy-3" fill="#C20F4D" transform="translate(623.001393, 688.672782) scale(-1, 1) translate(-623.001393, -688.672782) " points="654.459558 666.579704 591.543228 695.613163 654.459558 710.765859"></polygon>
                                <polygon id="Path-2-Copy-3" fill="#13203C" transform="translate(558.139197, 679.204320) scale(-1, 1) translate(-558.139197, -679.204320) " points="524.735166 666.629297 591.543228 647.642781 524.735166 710.765859"></polygon>
                                <polygon id="Path-2-Copy-3" fill="#00A7E7" transform="translate(556.168502, 685.234197) scale(-1, 1) translate(-556.168502, -685.234197) " points="591.543228 722.825612 587.564384 647.642781 520.793776 710.745177"></polygon>
                                <polygon id="Path-2-Copy-3" fill="#0492C9" transform="translate(580.840966, 730.334013) scale(-1, 1) translate(-580.840966, -730.334013) " points="640.838497 722.809356 520.843434 749.902167 570.095745 710.765859"></polygon>
                                <polygon id="Path-2-Copy-3" fill="#C20F4D" transform="translate(487.115092, 673.523243) scale(-1, 1) translate(-487.115092, -673.523243) " points="453.433975 722.759244 449.495019 647.694339 524.735166 624.287242"></polygon>
                                <polygon id="Path-2-Copy-3" fill="#1F3464" transform="translate(441.122144, 673.523243) scale(-1, 1) translate(-441.122144, -673.523243) " points="361.400854 722.759244 520.843434 720.213173 432.65842 624.287242"></polygon>
                                <polygon id="Path-2-Copy-3" fill="#DA1157" transform="translate(441.105630, 730.951446) scale(-1, 1) translate(-441.105630, -730.951446) " points="361.367826 722.754342 520.843434 720.206724 366.552556 741.696167"></polygon>
                                <polygon id="Path-2-Copy-3" fill="#232323" transform="translate(421.934965, 743.886346) scale(-1, 1) translate(-421.934965, -743.886346) " points="515.667217 767.576629 482.513914 720.196062 328.202712 741.693353"></polygon>
                                <polygon id="Path-2-Copy-3" fill="#DA1157" transform="translate(294.390889, 723.490962) scale(-1, 1) translate(-294.390889, -723.490962) " points="260.579066 767.570464 310.388762 679.411461 328.202712 761.007178"></polygon>
                                <polygon id="Path-2-Copy-3" fill="#232323" transform="translate(224.813675, 659.486711) scale(-1, 1) translate(-224.813675, -659.486711) " points="278.393016 557.966244 171.234335 679.411461 189.048285 761.007178"></polygon>
                                <polygon id="Path-2-Copy-3" fill="#13203C" transform="translate(578.245016, 736.337968) scale(-1, 1) translate(-578.245016, -736.337968) " points="635.676218 722.773769 515.651535 749.902167 640.838497 741.703004"></polygon>
                                <polygon id="Path-2-Copy-3" fill="#00A7E7" transform="translate(363.876920, 672.258685) scale(-1, 1) translate(-363.876920, -672.258685) " points="449.495019 679.385162 366.330113 720.230128 278.259842 624.287242"></polygon>
                                <polygon id="Path-2-Copy-3" fill="#0492C9" transform="translate(319.826577, 723.342233) scale(-1, 1) translate(-319.826577, -723.342233) " points="361.394334 679.20432 278.258821 720.175726 311.423056 767.480145"></polygon>
                                <polygon id="Path-2-Copy-3" fill="#1F3464" transform="translate(623.001393, 722.731186) scale(-1, 1) translate(-623.001393, -722.731186) " points="605.247116 749.846051 591.543228 695.61632 654.459558 710.740401"></polygon>
                                <polygon id="Path-2-Copy-25" fill="#13203C" transform="translate(360.995495, 459.865019) scale(-1, 1) translate(-360.995495, -459.865019) " points="352.26427 404.611667 389.173176 515.118371 332.817813 480.619939"></polygon>
                                <polygon id="Path-2-Copy-25" fill="#0492C9" transform="translate(385.668716, 442.574237) scale(-1, 1) translate(-385.668716, -442.574237) " points="401.622914 404.61893 369.714518 430.571216 382.190149 480.529544"></polygon>
                                <polygon id="Path-2-Copy-25" fill="#C20F4D" transform="translate(385.921395, 408.495548) scale(-1, 1) translate(-385.921395, -408.495548) " points="402.152838 404.60601 370.34169 430.499392 369.689953 386.491703"></polygon>
                                <polygon id="Path-2-Copy-25" fill="#0492C9" transform="translate(360.968353, 385.347331) scale(-1, 1) translate(-360.968353, -385.347331) " points="352.222957 404.611915 402.145616 366.082746 319.791091 386.513286"></polygon>
                                <polygon id="Path-2-Copy-25" fill="#DA1157" transform="translate(332.114060, 385.347331) scale(-1, 1) translate(-332.114060, -385.347331) " points="294.51437 404.611915 344.437029 366.082746 369.71375 378.511598"></polygon>
                                <polygon id="Path-2-Copy-26" fill="#C20F4D" transform="translate(268.963172, 510.359065) scale(-1, 1) translate(-268.963172, -510.359065) " points="332.835257 453.242577 209.390878 567.475554 205.091087 515.246498"></polygon>
                                <polygon id="Path-2-Copy-26" fill="#13203C" transform="translate(249.879004, 510.338824) scale(-1, 1) translate(-249.879004, -510.338824) " points="294.677687 453.226598 171.236198 567.451051 328.521811 557.998525"></polygon>
                                <polygon id="Path-2-Copy-26" fill="#C20F4D" transform="translate(249.879004, 611.745362) scale(-1, 1) translate(-249.879004, -611.745362) " points="178.367486 665.492199 171.236198 567.451051 328.521811 557.998525"></polygon>
                                <polygon id="Path-2-Copy-26" fill="#1F3464" transform="translate(246.313360, 618.690708) scale(-1, 1) translate(-246.313360, -618.690708) " points="171.236198 665.492199 214.343944 679.38289 321.390523 557.998525"></polygon>
                                <polygon id="Path-2-Copy-26" fill="#C20F4D" transform="translate(131.959452, 695.186531) scale(-1, 1) translate(-131.959452, -695.186531) " points="162.341038 629.19022 3.2431098 761.182841 260.675794 752.949909"></polygon>
                                <polygon id="Path-2-Copy-26" fill="#DA1157" transform="translate(181.152283, 659.619290) scale(-1, 1) translate(-181.152283, -659.619290) " points="260.726701 629.19022 191.045088 557.97019 101.577865 761.26839"></polygon>
                            </g>
                        </g>
                    </g>
                </g>
            </g>
        </g>
    </g>
</svg>