
<svg width="382px" height="795px" viewBox="0 0 382 795" version="1.1" xmlns="http://www.w3.org/2000/svg" xmlns:xlink="http://www.w3.org/1999/xlink">
    <!-- Generator: Sketch 49.2 (51160) - http://www.bohemiancoding.com/sketch -->
    <desc>Created with Sketch.</desc>
    <defs>
        <polygon id="path-1" points="7.86771633e-05 0.232027715 141.210676 0.232027715 141.210676 958.999964 7.86771633e-05 958.999964"></polygon>
        <polygon id="path-3" points="0.324361843 0.235511723 304.379977 0.235511723 304.379977 393.271425 0.324361843 393.271425"></polygon>
        <path d="M0.165407407,221.896138 L115.986037,269.864101 C115.986037,269.864101 114.442951,221.201185 113.316247,212.117896 C112.189543,203.034967 113.090333,175.305499 113.316247,166.626671 C113.54216,157.947483 114.652753,90.6056724 114.652753,90.6056724 L21.4399506,0.0884420772" id="path-5"></path>
        <path d="M0.165407407,221.896138 L113.316247,268.85898 C113.316247,268.85898 114.442951,221.201185 113.316247,212.117896 C112.189543,203.034967 113.090333,175.305499 113.316247,166.626671 C113.54216,157.947483 114.652753,90.6056724 114.652753,90.6056724 L21.4399506,0.0884420772 L0.165407407,221.896138 Z" id="path-7"></path>
        <path d="M0.165407407,221.896138 L115.986037,269.864101 C115.986037,269.864101 114.442951,221.201185 113.316247,212.117896 C112.189543,203.034967 113.090333,175.305499 113.316247,166.626671 C113.54216,157.947483 114.652753,90.6056724 114.652753,90.6056724 L21.4399506,0.0884420772" id="path-9"></path>
        <path d="M7.59100348,75.692633 L6.28632753,145.096277 C6.28632753,145.096277 7.63080836,215.354082 7.73032056,220.557686 C7.73600697,220.850665 8.07612544,221.139694 8.10278049,221.375226 C8.1610662,221.889375 7.91548432,222.295452 7.58140767,222.823604 C5.33278746,226.379202 -0.787567944,229.608072 0.184097561,232.008271 C0.477658537,232.732819 1.94404181,234.181556 17.4110801,239.113364 C44.0362787,247.604003 101.774321,269.665372 101.774321,269.665372 C101.774321,269.665372 100.242899,221.066809 99.124453,211.995598 C98.006007,202.924747 98.9001951,175.231795 99.124453,166.564508 C99.3487108,157.896862 100.451164,90.6449601 100.451164,90.6449601 L7.92188153,0.247380319" id="path-11"></path>
        <path d="M7.59100348,75.692633 L6.28632753,145.096277 C6.28632753,145.096277 7.63080836,215.354082 7.73032056,220.557686 C7.73600697,220.850665 8.07612544,221.139694 8.10278049,221.375226 C8.1610662,221.889375 7.91548432,222.295452 7.58140767,222.823604 C5.33278746,226.379202 -0.787567944,229.608072 0.184097561,232.008271 C0.477658537,232.732819 1.94404181,234.181556 17.4110801,239.113364 C44.0362787,247.604003 101.774321,269.665372 101.774321,269.665372 C101.774321,269.665372 100.242899,221.066809 99.124453,211.995598 C98.006007,202.924747 98.9001951,175.231795 99.124453,166.564508 C99.3487108,157.896862 100.451164,90.6449601 100.451164,90.6449601 L7.92188153,0.247380319" id="path-13"></path>
        <path d="M7.59100348,75.692633 L6.28632753,145.096277 C6.28632753,145.096277 7.63080836,215.354082 7.73032056,220.557686 C7.73600697,220.850665 8.07612544,221.139694 8.10278049,221.375226 C8.1610662,221.889375 7.91548432,222.295452 7.58140767,222.823604 C5.33278746,226.379202 -0.787567944,229.608072 0.184097561,232.008271 C0.477658537,232.732819 1.94404181,234.181556 17.4110801,239.113364 C44.0362787,247.604003 101.774321,269.665372 101.774321,269.665372 C101.774321,269.665372 100.242899,221.066809 99.124453,211.995598 C98.006007,202.924747 98.9001951,175.231795 99.124453,166.564508 C99.3487108,157.896862 100.451164,90.6449601 100.451164,90.6449601 L7.92188153,0.247380319" id="path-15"></path>
        <path d="M7.59100348,75.692633 L6.28632753,145.096277 C6.28632753,145.096277 7.63080836,215.354082 7.73032056,220.557686 C7.73600697,220.850665 8.07612544,221.139694 8.10278049,221.375226 C8.1610662,221.889375 7.91548432,222.295452 7.58140767,222.823604 C5.33278746,226.379202 -0.787567944,229.608072 0.184097561,232.008271 C0.477658537,232.732819 1.94404181,234.181556 17.4110801,239.113364 C44.0362787,247.604003 101.774321,269.665372 101.774321,269.665372 C101.774321,269.665372 100.242899,221.066809 99.124453,211.995598 C98.006007,202.924747 98.9001951,175.231795 99.124453,166.564508 C99.3487108,157.896862 100.451164,90.6449601 100.451164,90.6449601 L7.92188153,0.247380319 L7.59100348,75.692633 Z" id="path-17"></path>
    </defs>
    <g id="Website---Branding" stroke="none" stroke-width="1" fill="none" fill-rule="evenodd">
        <g id="MF_Illustration_Flag" transform="translate(-21.000000, -20.000000)">
            <g id="Flag-1" transform="translate(-1.000000, 20.000000)">
                <g id="Group-11">
                    <g id="Group-3">
                        <mask id="mask-2" fill="white">
                            <use xlink:href="#path-1"></use>
                        </mask>
                        <g id="Clip-2"></g>
                        <path d="M4.74349601,958.999964 C4.52610685,958.999964 4.3062066,958.985956 4.08523016,958.955067 C1.49485538,958.594095 -0.313851113,956.199469 0.0455943268,953.604781 L131.781631,4.32228843 C132.142511,1.72760079 134.537738,-0.0833647566 137.125602,0.277607154 C139.715976,0.63893824 141.524324,3.03320566 141.165237,5.62861165 L9.42920094,954.910386 C9.09917119,957.283462 7.06984699,958.999964 4.74349601,958.999964" id="Fill-1" fill="#FEFEFE" mask="url(#mask-2)"></path>
                    </g>
                    <path d="M270.767631,358.165488 C270.767631,358.165488 269.286085,354.809347 269.846777,346.828456 C270.196895,341.841297 270.767631,335.770863 270.767631,335.770863 L284.31894,339.986512 L281.68767,360.668586 L270.767631,358.165488 Z" id="Fill-4" fill="#BEC2CB"></path>
                    <path d="M367.057002,412.505589 C367.057002,412.505589 374.109953,405.166545 372.272549,397.380686 C371.088746,392.364434 365.181214,386.263111 365.181214,386.263111 L368.491197,387.992902 C368.491197,387.992902 375.661452,394.671422 375.661452,401.257992 C375.661452,407.844562 367.057002,412.505589 367.057002,412.505589" id="Fill-6" fill="#BEC2CB"></path>
                    <g id="Group-10" transform="translate(99.008924, 19.395506)">
                        <mask id="mask-4" fill="white">
                            <use xlink:href="#path-3"></use>
                        </mask>
                        <g id="Clip-9"></g>
                        <path d="M0.324361843,253.208577 C0.324361843,253.208577 103.007378,294.698796 178.01704,326.387461 C185.326482,329.475297 166.475685,337.101323 173.138698,339.955694 C204.302833,353.305549 245.146525,357.343047 255.028047,361.295779 C264.909209,365.248511 289.957749,380.281106 268.001803,393.271425 C268.001803,393.271425 276.642842,389.124738 276.706696,380.853273 C276.741851,376.224572 267.742084,364.679217 267.672132,359.847222 C267.555186,351.767557 267.752487,348.555446 267.00418,346.307004 C265.007859,340.311638 281.308817,308.335633 280.310836,305.33795 C279.603066,303.212346 289.884569,276.729938 295.926624,261.503389 C298.404717,255.256599 304.380049,249.850281 304.380049,249.850281 C304.380049,249.850281 294.822818,248.528154 289.328899,245.022237 C271.011172,233.332853 223.533523,202.831266 180.047441,161.45742 C175.919917,157.52983 182.564276,149.06441 178.390117,145.07145 C117.054807,86.3928619 52.6007148,22.2188806 40.1255904,0.235511723 C40.1255904,0.235511723 34.4706025,108.486498 29.4803375,149.455912 C24.4904312,190.424607 0.324361843,253.208577 0.324361843,253.208577" id="Fill-8" fill="#FEFEFE" mask="url(#mask-4)"></path>
                    </g>
                </g>
                <g id="Group-21" transform="translate(163.000000, 78.000000)">
                    <g id="Group-14">
                        <mask id="mask-6" fill="white">
                            <use xlink:href="#path-5"></use>
                        </mask>
                        <g id="Clip-13"></g>
                        <path d="M122.512791,205.661265 C112.564001,198.528016 105.334409,183.474887 106.365162,172.038535 C107.396273,160.602543 116.297483,157.114474 126.246273,164.247723 C136.195421,171.380613 143.424656,186.434461 142.393902,197.870453 C141.362791,209.306445 132.46194,212.794874 122.512791,205.661265 M128.684421,137.199907 C117.001717,128.823795 105.952359,126.811198 97.6000012,130.321558 C104.101014,144.140093 107.531248,159.092916 106.364446,172.038176 C105.197643,184.983435 99.6514827,193.50012 91.5995074,196.884288 C98.3432605,211.218735 108.392298,224.332969 120.074643,232.709081 C143.019372,249.159667 163.546717,241.115033 165.924359,214.741318 C168.302001,188.366884 151.629149,153.650852 128.684421,137.199907" id="Fill-12" fill="#21A5DE" mask="url(#mask-6)"></path>
                    </g>
                    <g id="Group-17">
                        <mask id="mask-8" fill="white">
                            <use xlink:href="#path-7"></use>
                        </mask>
                        <g id="Clip-16"></g>
                        <path d="M62.9528778,162.958338 C53.0037296,155.825089 45.7744951,140.771601 46.8052481,129.335609 C47.8363593,117.899617 56.7372111,114.411188 66.6863593,121.544437 C76.6355074,128.677686 83.8651,143.731174 82.8339889,155.167166 C81.8032358,166.603518 72.9020259,170.091587 62.9528778,162.958338 M97.6000012,130.321774 C90.8558901,115.987326 80.8072111,102.873092 69.1245074,94.4966205 C46.179779,78.0460346 25.6524333,86.0903089 23.2747914,112.464743 C20.8971494,138.838818 37.5703593,173.555209 60.5147296,190.005795 C72.1974333,198.381907 83.2467914,200.394863 91.5995074,196.884144 C85.098137,183.065609 81.6679025,168.113145 82.835063,155.167885 C84.0018654,142.222266 89.5480259,133.705941 97.6000012,130.321774" id="Fill-15" fill="#D91157" mask="url(#mask-8)"></path>
                    </g>
                    <g id="Group-20">
                        <mask id="mask-10" fill="white">
                            <use xlink:href="#path-9"></use>
                        </mask>
                        <g id="Clip-19"></g>
                        <path d="M82.8311247,155.170726 C81.6639642,168.115985 85.0945568,183.068449 91.5955691,196.886984 C99.6479025,193.502816 105.193705,184.986491 106.360865,172.040872 C107.527668,159.095613 104.097075,144.14279 97.596063,130.324614 C89.5440877,133.708782 83.9982852,142.225107 82.8311247,155.170726" id="Fill-18" fill="#1F3462" mask="url(#mask-10)"></path>
                    </g>
                </g>
                <g id="Group-34" transform="translate(269.000000, 125.000000)">
                    <g id="Group-24">
                        <mask id="mask-12" fill="white">
                            <use xlink:href="#path-11"></use>
                        </mask>
                        <g id="Clip-23"></g>
                        <path d="M16.7130021,162.776358 C6.83712753,155.652594 -0.339478746,140.619483 0.683719861,129.198339 C1.70727387,117.777555 10.543246,114.294124 20.4191206,121.417887 C30.2953505,128.541291 37.4716014,143.575121 36.4484028,154.995906 C35.4248488,166.41669 26.5892321,169.90048 16.7130021,162.776358 M22.8393993,94.4060386 C11.2423192,86.0410652 0.273942857,84.0311449 -8.0172,87.5368364 C-1.56383415,101.336996 1.84125993,116.269935 0.683009059,129.19798 C-0.475241812,142.126025 -5.98075401,150.631384 -13.9737157,154.011052 C-7.27938815,168.326438 2.69599861,181.423233 14.2927233,189.788206 C37.0692878,206.216916 57.4461868,198.18298 59.8064028,171.844336 C62.1666188,145.504975 45.6159638,110.835108 22.8393993,94.4060386" id="Fill-22" fill="#21A5DE" mask="url(#mask-12)"></path>
                    </g>
                    <g id="Group-27">
                        <mask id="mask-14" fill="white">
                            <use xlink:href="#path-13"></use>
                        </mask>
                        <g id="Clip-26"></g>
                        <path d="M-42.4103561,120.130253 C-52.2865861,113.006489 -59.4628369,97.9730186 -58.4396383,86.552234 C-57.4160843,75.1314495 -48.5804676,71.6476596 -38.7042376,78.7714229 C-28.8280077,85.8951862 -21.6514014,100.928657 -22.6749554,112.349441 C-23.698154,123.770585 -32.5341261,127.254016 -42.4103561,120.130253 M-8.01716446,87.5370878 C-14.7118474,73.2217021 -24.6868787,60.1249069 -36.2839589,51.7595745 C-59.0605233,35.3308644 -79.4374223,43.3644415 -81.7976383,69.7038032 C-84.157499,96.0428059 -67.6068439,130.713032 -44.8306348,147.141742 C-33.2335547,155.506715 -22.2651784,157.516995 -13.9736801,154.010944 C-20.4274014,140.210785 -23.8324955,125.278205 -22.6738892,112.35016 C-21.5156383,99.4217553 -16.0101261,90.9167553 -8.01716446,87.5370878" id="Fill-25" fill="#D91157" mask="url(#mask-14)"></path>
                    </g>
                    <g id="Group-30">
                        <mask id="mask-16" fill="white">
                            <use xlink:href="#path-15"></use>
                        </mask>
                        <g id="Clip-29"></g>
                        <path d="M-22.6777986,112.35296 C-23.8364049,125.281005 -20.4309554,140.213585 -13.9775895,154.013745 C-5.98427247,150.634077 -0.479115679,142.129077 0.679490592,129.200673 C1.83774146,116.272269 -1.56770801,101.339689 -8.02107387,87.5398883 C-16.0140355,90.9195559 -21.5191923,99.4245559 -22.6777986,112.35296" id="Fill-28" fill="#1F3462" mask="url(#mask-16)"></path>
                    </g>
                    <g id="Group-33">
                        <mask id="mask-18" fill="white">
                            <use xlink:href="#path-17"></use>
                        </mask>
                        <g id="Clip-32"></g>
                        <path d="M-1.70674077,51.967891 L7.74940557,53.0145 C7.74940557,53.0145 8.14212334,54.1171197 8.61551707,54.5637686 C9.0889108,55.0104176 20.8921233,65.9619335 20.8921233,65.9619335 L8.54905714,221.737213 C8.54905714,221.737213 8.63364251,221.255378 8.3738446,220.841761 C8.11440209,220.428144 7.58130105,220.018476 7.58130105,220.018476 L-1.70674077,51.967891 Z" id="Fill-31" fill="#1F3462" opacity="0.100486866" mask="url(#mask-18)"></path>
                    </g>
                </g>
            </g>
        </g>
    </g>
</svg>