
<svg width="401px" height="478px" viewBox="0 0 401 478" version="1.1" xmlns="http://www.w3.org/2000/svg" xmlns:xlink="http://www.w3.org/1999/xlink">
    <!-- Generator: Sketch 49.2 (51160) - http://www.bohemiancoding.com/sketch -->
    <desc>Created with Sketch.</desc>
    <defs>
        <path d="M226.085152,389.803874 C226.032099,390.649693 227.758157,391.531373 228.645244,390.941525 C230.479874,389.72226 232.392232,388.567297 233.806144,386.81383 C234.425501,386.045915 234.01712,385.291603 233.607505,384.63127 C233.117695,383.844807 232.594572,384.508849 232.097359,384.719067 C231.44469,384.993587 230.958581,385.482035 230.487277,385.987796 C230.071493,386.431727 229.594021,386.703774 228.964793,386.791571 C227.39049,387.010445 226.180153,388.311325 226.085152,389.803874 Z M239.433412,390.356624 C238.314374,390.380119 237.516119,390.277483 236.785721,390.689264 C236.125649,391.061473 235.849283,391.459651 236.657408,391.970358 C238.746197,393.28855 240.693101,394.773679 242.287144,396.690375 C242.552406,397.008175 242.831241,397.40388 243.37287,397.345761 C244.333984,397.243125 246.106925,395.746866 246.412902,394.830562 C246.934791,393.272474 245.995885,392.390794 244.926198,391.626589 C243.179166,390.37641 241.063235,390.688027 239.433412,390.356624 Z M273.602934,0 C275.308017,0.643020336 276.992126,1.35405244 278.725586,1.90927577 C280.623139,2.51767193 281.977829,3.67881827 282.934008,5.4026074 C285.086953,9.2891707 286.5058,13.3711133 287.04126,17.8326851 C287.505161,21.6994632 288.450236,25.5081221 289.159659,29.3464589 C289.519923,31.2915954 289.828368,33.245388 290.157787,35.1942342 C290.215775,35.5355296 290.226879,35.8904274 290.330516,36.2168839 C290.582207,37.0120032 290.767274,38.02847 291.759233,38.0779331 C292.90418,38.1360522 293.074442,37.0515737 293.284184,36.2008083 C294.305754,32.0718758 295.380375,27.905846 297.371696,24.1713818 C299.625811,19.9410499 301.506091,15.4188857 305.130935,12.0182974 C306.080945,11.1279615 306.64725,9.83821114 307.454141,8.78093732 C308.633634,7.23521536 309.888388,6.37950368 312.042567,7.33908788 C313.618104,8.04022736 315.23929,8.64367721 316.864177,9.22610525 C318.765431,9.90869606 319.592064,11.310975 319.906677,13.2289068 C320.373046,16.0594329 319.933821,18.8590445 319.680896,21.6500001 C318.938161,29.8151218 317.476132,37.8875002 316.392874,46.0093416 C315.812997,50.3596215 315.901829,54.7704937 315.8204,59.1652904 C315.647671,68.6572598 315.493448,78.1504658 315.740204,87.6387255 C315.914167,94.3657075 315.640268,101.074141 315.349096,107.781338 C315.113444,113.162923 314.362073,118.506175 313.125826,123.761629 C312.828485,125.026648 312.649587,126.291667 312.703873,127.581418 C312.886472,131.98858 312.846991,136.368538 311.414573,140.616182 C311.140674,141.42614 311.187558,142.234862 312.035164,142.693632 C316.069623,144.882374 316.959178,148.836949 317.843798,152.845934 C318.798743,157.180138 318.303998,161.489611 317.822824,165.806503 C317.758667,166.386458 317.672303,167.087598 317.320676,167.489485 C315.86605,169.152682 315.377473,171.275886 314.396618,173.157957 C313.162839,175.52353 312.431208,178.096848 311.059245,180.409248 C309.873583,182.408794 308.499153,184.288392 306.632444,185.500238 C303.742933,187.377363 302.842274,190.076811 303.015003,193.122502 C303.256824,197.387458 302.807728,201.598005 301.622066,205.579784 C300.387053,209.729739 300.378416,213.853725 300.358676,218.044486 C300.354974,218.594763 300.073673,219.355258 300.770758,219.633488 C301.334595,219.858546 301.725703,219.258805 302.143954,218.932349 C305.143272,216.606347 308.222786,214.368141 310.875412,211.637778 C316.376834,205.975489 321.992999,200.425729 327.916374,195.214791 C335.24379,188.769749 343.700114,184.996951 353.628338,184.727377 C357.084154,184.633397 360.535035,184.45533 363.945202,184.935122 C370.291763,185.831641 375.160257,189.219863 378.906011,194.35537 C380.474145,196.507015 382.047214,198.661133 383.752297,200.701486 C384.65419,201.779781 393.512727,211.244546 395.838401,212.802634 C399.195515,215.055678 401.041249,218.258414 400.9993,222.417025 C400.988196,223.466879 400.831506,223.902154 399.524934,223.480481 C396.938932,222.645791 394.483711,221.599647 392.027256,220.426135 C389.288266,219.121545 386.212453,219.180901 383.209434,219.723759 C380.926942,220.136776 378.604969,220.277745 376.323711,220.632643 C373.23186,221.114908 370.41144,222.499875 367.758814,224.127211 C363.364092,226.82295 359.886067,230.519081 356.887983,234.666562 C355.210043,236.986381 353.619701,239.41131 352.496962,242.036564 C350.532785,246.637869 347.967758,250.920138 345.772864,255.397785 C342.615622,261.835408 340.798265,268.694704 338.809413,275.523085 C337.405372,280.344501 336.071656,285.233929 333.442472,289.582972 C330.766404,294.00992 327.846048,298.25509 324.644391,302.349399 C318.55939,310.133654 311.567562,317.136393 305.598537,325.007209 C301.57765,330.308417 297.524684,335.582421 292.630281,340.12437 C291.50384,341.170515 290.372465,342.172143 289.60382,343.529905 C289.418753,343.858834 289.101672,344.155613 288.777188,344.355939 C285.083252,346.630005 281.331329,348.854608 277.796551,351.329 C271.173622,355.964929 263.514319,358.68169 256.867949,363.265683 C254.327598,365.016677 251.253019,366.119704 248.190778,366.932135 C246.654723,367.338969 245.438217,368.026507 244.500544,369.410237 C242.896631,371.777046 241.147132,374.051112 239.365554,376.288081 C238.541389,377.32186 238.881912,377.809072 239.875105,378.287627 C240.902843,378.784731 241.931815,378.855216 243.016307,378.52134 C244.725092,377.997031 246.479526,377.790523 248.263571,377.901815 C251.402306,378.094721 253.372652,380.262442 255.393583,382.265697 C256.649571,383.512167 257.597113,385.088804 258.916023,386.251187 C261.614299,388.629125 261.382349,393.730008 259.072713,396.079505 C256.246125,398.954548 253.797072,402.257447 250.10437,404.172905 C249.841575,404.307692 249.577547,404.47463 249.515858,404.797377 C248.768187,408.690123 246.240173,411.572586 243.972487,414.600964 C243.439494,415.311996 242.855916,415.984694 242.300715,416.677178 C242.051492,416.988795 241.812139,417.343693 241.396355,417.399339 C238.624053,417.770312 236.838774,419.761202 234.864726,421.415743 C233.696337,422.395113 232.546455,423.410343 231.70255,424.718642 C231.257155,425.408652 230.588447,425.817959 229.76675,425.967585 C227.970367,426.296515 226.209764,426.742919 224.517018,427.449005 C222.692258,428.211973 221.119189,427.33153 219.457289,426.599476 C221.449842,426.721897 222.132122,424.341486 224.040779,424.361271 C224.425718,424.366217 224.614487,423.875296 224.635461,423.440021 C224.677409,422.552158 224.739098,421.668005 224.781047,420.780142 C224.810658,420.151961 224.422017,419.79088 223.939609,419.487919 C223.522592,419.225764 223.096938,418.969793 222.713233,418.664358 C222.419593,418.428172 221.970497,418.191985 222.121018,417.735688 C222.253033,417.333801 222.711999,417.484663 223.035249,417.456222 C224.259158,417.351113 225.091959,416.928203 225.437418,415.551892 C225.840863,413.941868 227.046266,412.989704 228.709401,412.718893 C229.929609,412.519804 230.922801,411.83845 231.845668,411.123708 C233.113993,410.140629 232.462558,406.88101 230.854943,406.148956 C228.398488,405.03109 225.776707,404.942057 223.162328,405.310557 C222.12472,405.45771 221.353608,406.275087 220.712042,407.12338 C219.99645,408.069361 219.296897,409.027709 218.550461,409.947723 C218.277795,410.284072 217.927402,410.599399 217.546164,410.793542 C215.522766,411.819901 215.556078,411.798879 215.875627,414.022246 C215.926212,414.373434 217.099536,415.533344 215.282179,415.342911 C214.757823,415.288501 215.62517,416.295075 215.131658,416.73406 C212.516045,415.174736 211.305708,411.262205 212.611046,408.650553 C212.851633,408.170761 213.049038,407.658818 213.197092,407.141928 C213.579563,405.801478 214.2347,404.874045 215.646144,404.253283 C217.394409,403.484132 218.756502,402.007658 220.169179,400.706779 C220.863797,400.068704 220.150673,398.719598 218.939101,398.42282 C216.935443,397.931898 214.955227,397.274039 212.840529,397.397697 C211.843635,397.45458 210.804793,397.359363 209.960888,396.865969 C208.234831,395.858158 206.524812,396.117839 205.191097,397.241888 C203.666145,398.527929 202.252234,397.234469 200.828452,397.532484 C199.080187,397.899747 198.179528,396.498705 197.112309,395.614552 C196.467042,395.080351 195.800801,394.593139 195.109885,394.140552 C193.781104,393.268764 193.029732,393.440649 191.87985,394.599322 C191.08653,395.396914 190.19204,396.098054 189.303718,396.789301 C189.050794,396.987153 188.620205,397.149145 188.336435,397.076187 C186.277257,396.543222 185.06692,398.00362 183.692489,399.028743 C183.059561,399.499879 182.630205,399.924025 181.803573,399.229068 C181.063305,398.608306 179.25952,399.138798 178.695683,400.133007 C174.028295,408.36243 167.462121,415.268716 162.618302,423.373245 C161.287054,425.599085 160.62945,428.096972 159.574568,430.43163 C157.448766,435.140518 154.646853,439.401764 151.369935,443.38478 C149.809204,445.280454 148.157173,447.115535 146.948069,449.299331 C145.787083,451.399039 143.92531,452.924976 142.232564,454.575807 C141.671195,455.123611 141.058006,455.131031 140.335011,454.803337 C139.61325,454.479354 138.797722,454.523871 138.437459,455.348668 C137.577514,457.311117 136.038991,458.708449 134.597937,460.184923 C132.824996,462.001455 130.9916,463.759869 129.203853,465.561562 C128.205726,466.564427 126.727658,466.957658 125.946675,468.263484 C125.675244,468.716072 125.022575,468.844676 124.467374,468.568919 C123.939316,468.308001 123.69256,467.852941 123.677755,467.248254 C123.664183,466.773408 123.830744,466.268885 123.389051,465.611025 C122.490859,466.558244 121.447082,467.349653 120.817854,468.392088 C119.595179,470.415129 117.82964,471.869344 116.127025,473.398991 C115.007987,474.401855 113.761869,475.069607 112.095033,474.779012 C111.427559,474.661537 110.512094,475.020144 109.943322,475.462839 C108.420838,476.648717 106.571403,477.058024 104.883592,477.837068 C103.959491,478.263687 103.463512,477.828412 103.54124,476.813182 C103.717671,474.494599 104.451769,472.287308 104.916904,470.026844 C105.193271,468.677738 105.580678,467.35089 105.83607,465.998074 C105.928604,465.503443 106.230879,464.794884 105.158725,464.757787 C104.283975,464.728109 105.029178,463.834063 104.583784,463.323357 C102.670192,464.954403 100.264322,465.567745 98.0694283,466.618836 C96.599997,467.323685 95.8005079,466.806796 95.2934245,465.13618 C94.1299705,465.958504 91.3700058,465.956031 90.3360986,465.129997 C89.7031698,464.625473 89.847522,463.955248 90.0868752,463.374057 C90.5174642,462.326675 90.8703251,461.163056 91.5896186,460.340732 C93.2811302,458.407961 93.3563908,455.786417 94.6703659,453.70031 C95.2946583,452.709812 94.843095,452.284429 93.6475627,452.472389 C92.2768337,452.687553 90.9529884,453.062236 89.7438845,453.744827 C88.9567332,454.188758 88.3694542,454.074993 87.8265912,453.371381 C87.5884718,453.061 87.2972998,452.77535 86.9802185,452.545347 C84.5953228,450.812902 84.885261,450.913064 86.6002144,448.672386 C88.6976395,445.934603 91.0122098,443.363758 93.2108048,440.70017 C93.5377564,440.303229 94.1521785,439.879083 93.8795133,439.328806 C93.595744,438.751324 92.8924897,439.029554 92.3915752,439.097566 C90.0523294,439.417839 89.2145931,438.558418 88.6828342,436.128543 C88.0856849,433.39818 89.1245272,431.479011 90.9357155,429.672372 C92.6482014,427.964658 94.2607511,426.159255 95.9226521,424.402078 C96.264409,424.039761 96.6197375,423.679917 96.683894,423.161791 C97.248965,418.585217 100.037307,415.010271 102.668958,411.652963 C105.554768,407.971672 109.500395,405.201738 113.362125,402.414492 C120.769737,397.067531 128.916383,392.848328 136.115486,387.205825 C142.01912,382.577315 147.96347,377.993322 153.495737,372.912224 C155.336536,371.221823 156.034855,368.822862 157.041619,366.666271 C160.525812,359.204762 163.494286,351.490991 167.721214,344.393036 C173.860501,334.084925 180.214465,323.915311 187.981107,314.718884 C188.744816,313.816182 189.520864,312.9209 190.280872,312.014489 C190.556005,311.684323 190.664577,311.310876 190.364769,310.934957 C189.958855,310.423014 189.680021,310.934957 189.364174,311.080873 C189.097677,311.204531 188.849688,311.370232 188.588126,311.508729 C186.769535,312.464603 186.250114,312.397828 184.679513,310.902806 C183.955284,310.214032 183.338395,310.670329 182.677089,310.983183 C179.971411,312.264278 177.174432,313.322788 174.36635,314.347911 C172.73406,314.945178 171.255992,314.470332 169.902536,313.551555 C169.006812,312.944395 168.188817,312.222234 167.332574,311.554482 C165.357293,310.011233 162.765122,310.176935 161.01809,312.028091 C160.390097,312.694607 159.85587,312.866491 158.960146,312.488098 C157.435195,311.843841 155.907776,311.300984 154.121263,311.658355 C152.264425,312.028091 151.293441,311.249047 150.660512,309.44859 C150.162065,308.032709 149.973297,306.574784 150.022648,305.076052 C150.038687,304.554216 150.13122,303.907486 149.414395,303.733129 C148.843155,303.593396 148.458215,304.001466 148.22133,304.433032 C146.711184,307.184417 144.321353,308.377714 141.287489,308.80928 C139.207337,309.103585 138.025376,311.099422 136.315358,312.146803 C135.941523,312.378043 135.631844,312.711919 135.275282,312.976546 C132.358627,315.145503 129.652949,314.716411 127.512341,311.773356 C127.117532,311.229262 126.843633,310.722265 127.096558,310.00505 C127.461757,308.966325 126.902854,308.670783 125.962714,308.743741 C124.524128,308.85627 123.141061,309.166651 121.841891,309.817091 C120.446486,310.516993 119.020237,310.725975 117.951784,309.368213 C116.868526,307.990666 115.341107,306.671237 116.488522,304.540614 C117.370674,302.900912 117.502689,301.052229 117.723535,299.244352 C117.779055,298.786819 117.94068,298.185842 117.432363,297.877934 C116.858656,297.530456 116.416963,297.959548 115.99501,298.310736 C113.642193,300.267002 111.288142,302.222031 108.932857,304.17706 C108.819349,304.27104 108.684867,304.347708 108.588632,304.456527 C106.49861,306.856724 104.212416,306.303974 101.823819,304.969707 C99.6326269,303.744258 99.0737248,301.765734 99.0872964,299.459517 C99.0909977,298.780636 99.2982727,298.227886 99.7337968,297.704813 C100.631988,296.622808 101.176085,295.355316 101.440114,293.981478 C101.509205,293.620398 101.626415,293.151735 101.229138,292.884634 C100.825692,292.612587 100.470363,292.920495 100.143412,293.118347 C98.4975498,294.116265 96.8319475,295.093161 95.3711526,296.356944 C93.0985309,298.323102 91.1960429,297.957075 89.5218042,295.132732 C89.0455653,294.33143 88.3435448,293.632763 88.2065953,292.669469 C88.0634769,291.676498 88.1091267,290.707021 88.8617322,289.885933 C89.18745,289.531036 89.4045951,289.063609 89.6143377,288.620914 C89.8240802,288.180693 90.0930441,287.689772 89.763625,287.217399 C89.3971925,286.694327 88.8555633,286.981213 88.3965973,287.070246 C86.7519693,287.391756 85.4626698,288.432955 84.068499,289.258988 C82.2548431,290.333574 81.8563324,290.297714 80.3560565,288.796508 C79.5540999,287.99397 78.7731175,287.170409 77.9909013,286.349321 C76.9360199,285.241348 77.0927099,283.897188 77.3221928,282.571577 C77.6034946,280.943004 77.4875193,280.769883 75.8046441,280.816873 C75.3135999,280.830476 74.775672,280.792142 74.3438492,280.976392 C71.7973284,282.06829 70.7177714,280.0774 69.3618477,278.659046 C68.1983937,277.44349 68.4439158,276.017716 68.8880764,274.635222 C69.5012648,272.727183 69.3840558,272.447716 67.4198789,272.090346 C66.9868223,272.011205 66.5426617,271.970397 66.1009686,271.958032 C62.2750185,271.850449 59.7235626,268.442442 60.7661062,264.742602 C61.1337725,263.439249 60.9733812,262.566225 59.5483659,262.092616 C58.4774453,261.736482 57.4768502,261.173839 56.4355403,260.722488 C54.9340307,260.074521 53.9136951,258.954182 53.483106,257.405987 C53.0882966,255.988869 52.5910835,254.559385 52.6293306,253.073019 C52.6589413,251.884668 52.2024429,251.203314 51.0920414,250.895406 C48.7466267,250.244966 46.5356939,249.300221 44.7146354,247.640734 C41.8732413,245.053814 40.1928336,241.807797 39.7104259,238.009031 C39.591983,237.079125 40.0312085,236.081207 40.1903661,235.110493 C40.3384196,234.204082 39.9966627,233.584557 39.0898348,233.290251 C33.5427623,231.492267 31.0431251,226.773487 28.5225137,222.114063 C27.6835436,220.564631 27.7069854,218.955844 28.5780337,217.308723 C29.5749276,215.420469 29.4700563,215.321542 27.4947754,214.318678 C27.3183449,214.229644 27.1517847,214.119589 26.9679515,214.047868 C19.4604035,211.122125 16.2982267,204.806923 14.2390488,197.63972 C13.7887193,196.070503 14.4043753,194.722633 15.2334751,193.455141 C15.9379631,192.378082 16.5375799,191.256506 17.0619362,190.075575 C17.5406427,188.997279 17.2951205,188.301086 16.5129044,187.455267 C12.9361777,183.593435 10.0047177,179.283962 7.99982605,174.388352 C7.62969221,173.48194 7.47670356,172.490205 7.19293428,171.54546 C6.83760579,170.365765 7.18923294,169.424729 8.05781369,168.603642 C8.91899175,167.788737 9.68270124,166.884799 10.383488,165.921505 C11.0176506,165.050955 11.0373911,164.284276 10.1823819,163.590556 C6.29967795,160.440993 4.25900671,156.010336 1.97157958,151.750326 C1.00429648,149.948633 0.648967999,147.929301 0,146.016316 L0,144.235644 C2.02339832,141.364311 3.57672667,141.031672 6.55260274,142.818526 C7.14481688,143.173424 7.75307016,143.504827 8.37366123,143.806552 C8.85483522,144.042738 9.43224401,144.38527 9.89737887,143.984619 C10.4266703,143.528322 9.97510697,142.959496 9.74439021,142.506909 C9.16328009,141.361838 8.5673646,140.220477 7.89125346,139.129816 C4.71673889,134.005438 2.11223044,128.672079 1.51754874,122.546074 C1.2855982,120.165662 1.21157143,117.822347 1.94567022,115.500055 C2.91788843,112.42345 4.47491812,111.428005 7.71975811,112.025272 C8.9041864,112.242909 9.28665803,111.790322 9.15834497,110.699661 C9.10159111,110.211212 9.02879812,109.720291 8.90171884,109.246682 C8.13307423,106.382768 7.36566341,103.517618 6.56370675,100.663597 C5.56434539,97.1133828 5.11031454,93.5297811 5.59272231,89.8361239 C5.92090765,87.3196885 6.92890547,84.9862666 7.39280655,82.5081652 C7.54826277,81.6796582 8.2552184,81.2493292 9.05100615,80.9649164 C10.646283,80.3948541 12.1539615,80.8573341 13.6998872,81.2011027 C15.2667871,81.548581 15.7368571,81.0984667 15.4950363,79.5181206 C15.1927603,77.5445428 15.2569169,75.5722016 15.3778273,73.5973872 C15.462958,72.2012911 15.7837407,70.8670239 16.5856973,69.6774363 C17.8651267,67.7805263 19.1605951,67.6494491 20.5806753,69.4684547 C21.8847801,71.1415442 23.0247924,72.9543669 23.771229,74.9600957 C27.4417229,84.8230384 32.3719056,94.0516168 37.8165744,103.018041 C40.3347183,107.164285 43.3167632,110.984073 46.3777701,114.73956 C46.7330986,115.174835 47.1624538,115.807963 47.8311623,115.475323 C48.4838316,115.15134 48.2555824,114.425469 48.174153,113.860353 C47.9323322,112.156349 46.7873849,110.949449 45.7929586,109.662172 C43.2822174,106.41121 40.9960241,102.980943 39.2539275,99.2835765 C37.6981315,95.9806778 36.1225952,92.6802523 34.6013451,89.3575683 C30.8580582,81.1800809 28.1548474,72.693449 26.6792471,63.8160586 C26.6311297,63.5254629 26.6064542,63.2274477 26.5953501,62.9319057 C26.5817786,62.5572227 26.3794387,62.1033987 26.8791194,61.8907074 C27.3072409,61.7089305 27.625556,61.997053 27.9438711,62.2357125 C28.7754385,62.857711 29.5354466,63.5464847 30.2164929,64.3428407 C32.2966451,66.7764253 33.6278931,69.6650705 35.1096622,72.4473701 C40.0127018,81.6462706 44.5591792,91.0380772 50.1136543,99.8796069 C52.5577714,103.771116 54.9019524,107.724455 57.9752971,111.174506 C58.3590025,111.604835 58.7353052,112.354201 59.3670003,111.977045 C60.1492165,111.509619 59.4903782,110.846813 59.2337521,110.316322 C58.3947821,108.581403 57.4632786,106.889765 56.6761273,105.133825 C54.1851265,99.5803551 52.4714069,93.7325798 50.288851,88.061635 C48.7318213,84.0130801 48.1038276,79.7604898 47.5831726,75.4868777 C47.5190161,74.9526762 47.346287,74.3331509 47.9187606,74.0017481 C48.4665587,73.6839476 48.9502003,74.1080937 49.4141013,74.3690116 C49.6275452,74.4889596 49.8113783,74.6596073 50.0124844,74.8042869 C53.4781709,77.3145394 55.385594,80.9908845 57.0104815,84.7463706 C60.0320074,91.7256144 62.5513851,98.9138398 65.5346638,105.916579 C67.4902043,110.504281 69.2569765,115.189674 71.6566775,119.554793 C75.3715875,126.308979 79.8057909,132.619235 84.5151271,138.708143 C89.2898537,144.883611 94.3347779,150.842678 99.9065259,156.32319 C104.61833,160.959119 109.168508,165.799084 114.689671,169.508817 C118.330555,171.954767 122.165141,174.134853 125.773946,176.603062 C134.655925,182.675895 143.7131,188.456895 152.8406,194.141442 C157.871953,197.274929 163.280842,199.712224 168.408429,202.670117 C169.916108,203.539431 171.362097,202.720817 171.668075,200.982189 C171.786518,200.302071 171.898792,199.61948 171.97652,198.93318 C172.214639,196.85202 173.98758,195.427483 176.068966,195.737863 C176.960989,195.871414 177.396513,195.411407 177.614892,194.707794 C178.202171,192.812121 179.566731,192.096143 181.418634,192.014528 C181.84182,191.99598 182.409359,192.118401 182.609231,191.625006 C182.838714,191.061127 182.316825,190.721068 181.972601,190.403268 C180.492065,189.038086 179.882578,187.362524 179.9418,185.356795 C179.999787,183.380744 179.957839,181.400983 179.910955,179.423696 C179.859137,177.222588 180.474793,175.240354 181.645649,173.39167 C182.358774,172.266385 182.955923,171.069378 183.633268,169.921834 C184.218079,168.930098 184.209443,168.02987 183.578982,167.017113 C182.799233,165.765696 182.028121,164.472236 181.793703,162.971031 C181.194086,159.117855 180.510572,155.279519 180.585833,151.345965 C180.63395,148.83324 181.428504,146.528259 182.722739,144.52253 C183.671515,143.049766 184.311847,141.776092 183.884959,140.021388 C183.70236,139.272022 183.727035,138.428676 183.852881,137.659525 C184.320483,134.769643 184.367367,131.858739 184.48581,128.944126 C184.664708,124.514705 186.140308,120.656583 189.791061,117.870574 C190.922437,117.007443 191.092699,115.900706 190.743539,114.562729 C190.118013,112.158822 189.700995,109.701743 190.15626,107.224878 C190.889125,103.240625 192.274659,99.4294926 193.43688,95.5602414 C193.542985,95.2053437 193.860066,94.9060919 194.103121,94.5994206 C196.022881,92.1621263 198.386803,91.3360924 201.428069,92.3265911 C203.028281,92.8471902 203.561274,92.3513226 203.271336,90.7895252 C202.399054,86.0707452 202.285546,81.4323427 203.620495,76.7284016 C204.59148,73.3117378 205.184928,69.7874917 206.654359,66.5216904 C207.648785,64.3131628 209.682054,63.2200282 212.064482,63.5773992 C212.892348,63.7022935 213.721448,63.8259513 214.549314,63.9446627 C216.499919,64.2253658 217.040315,63.7839076 216.734337,61.85361 C215.854653,56.3322912 216.04959,50.8221015 216.74174,45.3082021 C216.902131,44.0357638 216.936677,42.691604 217.606619,41.5786842 C218.365394,40.3210848 218.776242,38.9620861 219.117999,37.5783558 C219.800279,34.8022391 221.892769,32.9943627 223.488046,30.8204593 C225.562029,27.9948796 228.287448,28.6601583 231.02027,28.9804319 C231.215207,29.0039269 231.413845,29.0039269 231.61125,29.0138195 C234.620438,29.1819941 237.512417,29.5752257 239.548153,32.2351041 C240.172446,33.0524819 240.82018,32.759413 240.88557,31.7614949 C241.018818,29.7434003 241.121222,27.7191228 241.106417,25.6973185 C241.091611,23.5827708 240.646217,21.4298893 240.7844,19.3709876 C240.968234,16.6047636 242.26617,14.0635967 244.1008,11.8934031 C244.89412,10.9548407 245.886078,10.3687029 247.102585,10.1337532 C253.958697,8.80690545 256.601453,10.6246745 259.556355,15.4176491 C260.77903,17.4011196 261.79073,19.4822796 262.771584,21.5869346 C263.02821,22.1359751 263.193537,23.0275475 263.95848,22.9014166 C264.756735,22.7703394 264.540824,21.8886596 264.611149,21.2765537 C264.745631,20.0993318 264.757969,18.8949053 265.020764,17.7473613 C266.238505,12.4078193 268.182941,7.3267221 270.596214,2.41874573 C271.090959,1.41340816 271.781876,0.607159587 272.714613,0 L273.602934,0 Z" id="path-1"></path>
        <filter x="-11.0%" y="-117.3%" width="122.1%" height="334.6%" filterUnits="objectBoundingBox" id="filter-3">
            <feGaussianBlur stdDeviation="5.77566964" in="SourceGraphic"></feGaussianBlur>
        </filter>
    </defs>
    <g id="Website---Branding" stroke="none" stroke-width="1" fill="none" fill-rule="evenodd">
        <g id="MF_Illustration_Freedom" transform="translate(-49.000000, -11.000000)">
            <g id="Group-3" transform="translate(49.000000, 11.000000)">
                <mask id="mask-2" fill="white">
                    <use xlink:href="#path-1"></use>
                </mask>
                <use id="Fill-1" fill="#000000" xlink:href="#path-1"></use>
                <g id="Group" mask="url(#mask-2)">
                    <g transform="translate(-252.000000, -284.000000)">
                        <path d="M483.397093,669.801785 L615.135678,669.801785 C618.722998,669.801785 622.122181,671.406707 624.401647,674.176707 L626.87921,677.187432 C628.464046,679.11332 628.187569,681.959325 626.261681,683.544161 C625.453319,684.209372 624.438959,684.573079 623.392081,684.573079 L475.374324,684.573079 C472.849932,684.573079 470.803508,682.526655 470.803508,680.002263 C470.803508,678.982078 471.144806,677.991217 471.773063,677.187432 L473.942515,674.411861 C476.216768,671.50221 479.704086,669.801785 483.397093,669.801785 Z" id="Rectangle-5-Copy-4" fill="#232323" opacity="0.0899999961" filter="url(#filter-3)"></path>
                        <g id="Group-2" stroke-width="1" fill="none">
                            <g id="Group-6" transform="translate(0.039323, 0.332870)">
                                <polygon id="Path-2-Copy-13" fill="#DA1157" points="319.173574 270.790258 405.70084 273.737019 322.409365 317.679962"></polygon>
                                <polygon id="Path-2-Copy-13" fill="#00A7E7" points="319.173574 270.790258 266.662021 290.844009 322.409365 317.679962"></polygon>
                                <polygon id="Path-2-Copy-13" fill="#DA1157" points="267.497089 369.054629 266.662021 290.844009 322.409365 317.679962"></polygon>
                                <polygon id="Path-2-Copy-13" fill="#DA1157" points="267.497089 369.054629 266.662021 290.844009 227.233686 354.554069"></polygon>
                                <polygon id="Path-2-Copy-13" fill="#0492C9" points="319.173574 270.790258 266.662021 290.844009 275.87206 216.11986"></polygon>
                                <polygon id="Path-2-Copy-14" fill="#C20F4D" transform="translate(363.709511, 298.224456) scale(-1, -1) translate(-363.709511, -298.224456) " points="327.245343 273.635125 405.054819 278.76278 322.364202 322.813788"></polygon>
                                <polygon id="Path-2-Copy-18" fill="#1F3464" points="322.436981 317.639186 401.178697 322.257421 318.48808 365.687494"></polygon>
                                <polygon id="Path-2-Copy-18" fill="#DA1157" points="322.436981 317.639186 267.510133 369.032391 318.48808 365.687494"></polygon>
                                <polygon id="Path-2-Copy-22" fill="#1F3464" points="666.53823 213.10754 704.162286 264.439512 647.958507 298.224456"></polygon>
                                <polygon id="Path-2-Copy-15" fill="#13203C" transform="translate(429.603596, 297.909208) scale(-1, 1) translate(-429.603596, -297.909208) " points="399.886656 279.031609 454.617202 273.635125 459.320537 322.183292"></polygon>
                                <polygon id="Path-2-Copy-16" fill="#0492C9" transform="translate(437.355842, 308.942883) scale(-1, 1) translate(-437.355842, -308.942883) " points="399.886656 339.206675 415.395108 278.67909 474.825027 322.195716"></polygon>
                                <polygon id="Path-2-Copy-16" fill="#C20F4D" transform="translate(437.032831, 354.152601) scale(-1, 1) translate(-437.032831, -354.152601) " points="399.886656 338.063519 473.545878 386.121911 474.179007 322.183292"></polygon>
                                <polygon id="Path-2-Copy-16" fill="#00A7E7" transform="translate(359.533043, 354.142800) scale(-1, 1) translate(-359.533043, -354.142800) " points="400.549541 365.657734 318.516545 386.102308 319.17943 322.183292"></polygon>
                                <polygon id="Path-2-Copy-17" fill="#00A7E7" transform="translate(517.139367, 309.258131) scale(-1, 1) translate(-517.139367, -309.258131) " points="559.84291 339.206675 458.674516 290.074166 575.604217 279.309586"></polygon>
                                <polygon id="Path-2-Copy-11" fill="#1F3464" transform="translate(490.329518, 252.513520) scale(-1, 1) translate(-490.329518, -252.513520) " points="405.054819 290.028012 423.15553 214.999027 575.604217 274.10497"></polygon>
                                <polygon id="Path-2-Copy-11" fill="#DA1157" transform="translate(517.139367, 252.513520) scale(-1, 1) translate(-517.139367, -252.513520) " points="458.674516 290.028012 476.770895 214.999027 575.604217 279.198514"></polygon>
                                <polygon id="Path-2-Copy-21" fill="#1F3464" transform="translate(554.931563, 319.661309) scale(-1, 1) translate(-554.931563, -319.661309) " points="474.179007 349.294606 534.317121 290.028012 635.684118 338.047825"></polygon>
                                <polygon id="Path-2-Copy-21" fill="#DA1157" transform="translate(554.931563, 366.002742) scale(-1, 1) translate(-554.931563, -366.002742) " points="474.73726 349.196944 474.179007 394.0598 635.684118 337.945684"></polygon>
                                <polygon id="Path-2-Copy-21" fill="#13203C" transform="translate(518.116064, 366.002742) scale(-1, 1) translate(-518.116064, -366.002742) " points="635.684118 386.064821 400.54801 394.0598 562.218789 337.945684"></polygon>
                                <polygon id="Path-2-Copy-21" fill="#00A7E7" transform="translate(554.931563, 366.002742) scale(-1, 1) translate(-554.931563, -366.002742) " points="558.631683 390.131691 474.179007 394.0598 635.684118 337.945684"></polygon>
                                <polygon id="Path-2-Copy-25" fill="#13203C" transform="translate(676.075799, 320.085501) scale(1, -1) translate(-676.075799, -320.085501) " points="667.595735 264.395576 704.165644 375.775425 647.985953 341.991598"></polygon>
                                <polygon id="Path-2-Copy-25" fill="#0492C9" transform="translate(651.511619, 336.999941) scale(1, -1) translate(-651.511619, -336.999941) " points="667.985141 298.224456 635.038098 324.832423 648.005431 375.775425"></polygon>
                                <polygon id="Path-2-Copy-25" fill="#C20F4D" transform="translate(651.511619, 371.361955) scale(1, -1) translate(-651.511619, -371.361955) " points="667.985141 367.304767 635.038098 393.429304 635.038098 349.294606"></polygon>
                                <polygon id="Path-2-Copy-25" fill="#00A7E7" transform="translate(721.598913, 400.051210) scale(1, -1) translate(-721.598913, -400.051210) " points="667.585644 424.95749 808.159728 375.144929 635.038098 407.28471"></polygon>
                                <polygon id="Path-2-Copy-9" fill="#00A7E7" points="630.955532 505.465443 710.62249 588.252469 639.621658 585.927784"></polygon>
                                <polygon id="Path-2-Copy-12" fill="#13203C" transform="translate(673.349499, 546.849950) scale(-1, -1) translate(-673.349499, -546.849950) " points="636.657069 505.44743 715.776425 588.252469 630.922573 584.890085"></polygon>
                                <polygon id="Path-2-Copy-13" fill="#DA1157" transform="translate(673.332818, 485.481673) scale(-1, -1) translate(-673.332818, -485.481673) " points="630.874983 462.153333 715.790654 465.517803 635.737243 508.810013"></polygon>
                                <polygon id="Path-2-Copy-14" fill="#C20F4D" points="635.397095 456.478872 713.206572 461.606527 630.515955 505.657535"></polygon>
                                <polygon id="Path-2-Copy-18" fill="#1F3464" transform="translate(721.281827, 443.553710) scale(-1, -1) translate(-721.281827, -443.553710) " points="730.082635 424.954088 808.171577 430.070651 634.392077 462.153333"></polygon>
                                <polygon id="Path-2-Copy-22" fill="#1F3464" transform="translate(359.543605, 523.000224) scale(-1, -1) translate(-359.543605, -523.000224) " points="352.752533 479.807212 387.612267 531.478025 331.474943 566.193235"></polygon>
                                <polygon id="Path-2-Copy-23" fill="#00A7E7" transform="translate(346.795106, 540.658723) scale(1, -1) translate(-346.795106, -540.658723) " points="327.192923 514.546019 366.397289 515.114451 331.495025 566.771427"></polygon>
                                <polygon id="Path-2-Copy-23" fill="#DA1157" transform="translate(343.036857, 617.255270) scale(1, -1) translate(-343.036857, -617.255270) " points="327.211719 667.737703 366.293593 668.32542 319.780121 566.18512"></polygon>
                                <polygon id="Path-2-Copy-8" fill="#DA1157" transform="translate(596.190368, 560.412028) scale(1, -1) translate(-596.190368, -560.412028) " points="561.400568 533.817064 593.410461 505.460273 630.980168 615.363783"></polygon>
                                <polygon id="Path-2-Copy-8" fill="#C20F4D" transform="translate(545.241256, 600.856469) scale(1, -1) translate(-545.241256, -600.856469) " points="561.405294 614.733287 593.692789 586.979651 496.789723 595.480456"></polygon>
                                <polygon id="Path-2-Copy-8" fill="#13203C" transform="translate(545.241256, 636.170140) scale(1, -1) translate(-545.241256, -636.170140) " points="589.436522 605.906348 593.692789 657.648729 496.789723 666.433933"></polygon>
                                <polygon id="Path-2-Copy-8" fill="#232323" transform="translate(543.303195, 636.170140) scale(1, -1) translate(-543.303195, -636.170140) " points="589.816667 605.906348 522.454433 625.291578 496.789723 666.433933"></polygon>
                                <polygon id="Path-2-Copy-8" fill="#DA1157" transform="translate(483.869314, 626.397457) scale(1, -1) translate(-483.869314, -626.397457) " points="522.63054 605.906348 445.108087 629.855075 497.05328 646.888567"></polygon>
                                <polygon id="Path-2-Copy-24" fill="#DA1157" transform="translate(286.266723, 459.390834) scale(1, -1) translate(-286.266723, -459.390834) " points="204.281063 466.058567 331.489212 404.12695 368.252383 514.654719"></polygon>
                                <polygon id="Path-2-Copy-24" fill="#232323" transform="translate(286.235105, 403.669965) scale(1, -1) translate(-286.235105, -403.669965) " points="204.239476 354.587602 227.306941 452.752327 368.231654 403.206427"></polygon>
                                <polygon id="Path-2-Copy-15" fill="#13203C" transform="translate(605.967178, 481.286564) scale(1, -1) translate(-605.967178, -481.286564) " points="576.250237 462.157416 630.919125 457.109367 635.684118 505.46376"></polygon>
                                <polygon id="Path-2-Copy-16" fill="#0492C9" transform="translate(598.537943, 470.980272) scale(1, -1) translate(-598.537943, -470.980272) " points="561.391767 500.613569 576.230387 441.346975 635.684118 484.815505"></polygon>
                                <polygon id="Path-2-Copy-16" fill="#C20F4D" transform="translate(598.522383, 424.954088) scale(1, -1) translate(-598.522383, -424.954088) " points="561.360647 408.562631 635.078458 457.109367 635.684118 392.798808"></polygon>
                                <polygon id="Path-2-Copy-16" fill="#232323" transform="translate(721.599109, 424.954088) scale(1, -1) translate(-721.599109, -424.954088) " points="808.16012 424.954088 635.038098 457.109367 635.662858 392.798808"></polygon>
                                <polygon id="Path-2-Copy-17" fill="#00A7E7" transform="translate(518.710544, 470.119761) scale(1, -1) translate(-518.710544, -470.119761) " points="561.182279 500.153539 460.546914 450.980945 576.874173 440.085984"></polygon>
                                <polygon id="Path-2-Copy-8" fill="#00A7E7" transform="translate(554.507496, 546.249633) scale(1, -1) translate(-554.507496, -546.249633) " points="478.05513 528.125071 561.466108 505.513653 630.959862 586.985614"></polygon>
                                <polygon id="Path-2-Copy-8" fill="#0492C9" transform="translate(519.723448, 562.402146) scale(1, -1) translate(-519.723448, -562.402146) " points="478.05513 560.457365 561.391767 537.812814 546.845347 586.991477"></polygon>
                                <polygon id="Path-2-Copy-11" fill="#1F3464" transform="translate(545.564266, 526.779140) scale(1, -1) translate(-545.564266, -526.779140) " points="459.966557 564.293633 478.506173 489.264647 631.161975 548.104352"></polygon>
                                <polygon id="Path-2-Copy-11" fill="#13203C" transform="translate(527.798621, 532.219563) scale(1, -1) translate(-527.798621, -532.219563) " points="576.895219 564.293633 478.70115 500.145493 546.85804 526.600367"></polygon>
                                <polygon id="Path-2-Copy-19" fill="#C20F4D" transform="translate(422.429268, 527.768023) scale(1, -1) translate(-422.429268, -527.768023) " points="366.157385 489.264647 478.70115 491.096443 460.635556 566.271399"></polygon>
                                <polygon id="Path-2-Copy-19" fill="#00A7E7" transform="translate(400.085145, 614.400957) scale(1, -1) translate(-400.085145, -614.400957) " points="366.227654 662.629076 478.70115 664.50828 321.46914 564.293633"></polygon>
                                <polygon id="Path-2-Copy-19" fill="#1F3464" transform="translate(441.648715, 614.244301) scale(1, -1) translate(-441.648715, -614.244301) " points="561.391767 641.488369 478.658224 664.19497 321.905662 564.293633"></polygon>
                                <polygon id="Path-2-Copy-20" fill="#232323" transform="translate(413.421122, 498.119779) scale(1, -1) translate(-413.421122, -498.119779) " points="366.221978 429.998053 460.620265 506.946752 399.899185 566.241505"></polygon>
                                <polygon id="Path-2-Copy-11" fill="#DA1157" transform="translate(518.754418, 526.779140) scale(1, -1) translate(-518.754418, -526.779140) " points="460.612578 564.293633 478.759671 489.264647 576.896258 553.423829"></polygon>
                                <polygon id="Path-2-Copy-21" fill="#1F3464" transform="translate(480.639211, 459.631350) scale(1, -1) translate(-480.639211, -459.631350) " points="399.887486 489.264647 460.568099 429.998053 561.391767 477.942834"></polygon>
                                <polygon id="Path-2-Copy-21" fill="#DA1157" transform="translate(480.639211, 413.704148) scale(1, -1) translate(-480.639211, -413.704148) " points="399.886656 397.434659 400.529725 441.346975 561.391767 386.060852"></polygon>
                                <polygon id="Path-2-Copy-21" fill="#232323" transform="translate(480.968296, 413.707220) scale(1, -1) translate(-480.968296, -413.707220) " points="549.790857 438.248326 400.544824 441.346975 561.391767 386.067464"></polygon>
                                <polygon id="Path-2-Copy-21" fill="#1F3464" transform="translate(592.400199, 415.250368) scale(1, -1) translate(-592.400199, -415.250368) " points="635.038098 437.454175 549.762301 441.340661 561.394883 389.160075"></polygon>
                                <polygon id="Path-2-Copy-16" fill="#0492C9" transform="translate(229.983542, 322.482915) scale(1, -1) translate(-229.983542, -322.482915) " points="193.160113 354.937818 227.016628 290.028012 266.806972 353.978751"></polygon>
                                <polygon id="Path-2-Copy-16" fill="#C20F4D" transform="translate(234.521429, 253.561230) scale(1, -1) translate(-234.521429, -253.561230) " points="193.128993 217.095879 275.913866 291.008777 266.846804 216.113683"></polygon>
                                <polygon id="Path-2-Copy-21" fill="#1F3464" transform="translate(228.730556, 253.061877) scale(1, -1) translate(-228.730556, -253.061877) " points="275.930465 290.021698 181.530647 268.282642 193.163229 216.102056"></polygon>
                                <polygon id="Path-2-Copy-3" fill="#13203C" transform="translate(616.582283, 560.138545) scale(-1, 1) translate(-616.582283, -560.138545) " points="602.20193 505.465114 639.608057 614.811977 593.55651 585.703512"></polygon>
                                <polygon id="Path-2-Copy-3" fill="#00A7E7" transform="translate(614.376635, 625.793292) scale(-1, 1) translate(-614.376635, -625.793292) " points="639.598471 665.889638 635.114635 614.65054 589.154798 585.696947"></polygon>
                                <polygon id="Path-2-Copy-3" fill="#DA1157" transform="translate(620.502638, 640.247756) scale(-1, 1) translate(-620.502638, -640.247756) " points="651.834629 665.850531 589.170646 694.806239 601.430052 585.689274 602.47887 587.401697"></polygon>
                                <polygon id="Path-2-Copy-3" fill="#0492C9" transform="translate(674.795560, 640.256762) scale(-1, 1) translate(-674.795560, -640.256762) " points="639.57392 588.23487 697.780966 694.806239 710.0172 585.707984"></polygon>
                                <polygon id="Path-2-Copy-3" fill="#00A7E7" transform="translate(683.469769, 641.535768) scale(-1, 1) translate(-683.469769, -641.535768) " points="656.918808 588.252469 715.144633 694.818374 651.794906 628.51052"></polygon>
                                <polygon id="Path-2-Copy-3" fill="#C20F4D" transform="translate(620.502638, 687.870786) scale(-1, 1) translate(-620.502638, -687.870786) " points="651.834629 665.803437 589.170646 694.803085 651.834629 709.938135"></polygon>
                                <polygon id="Path-2-Copy-3" fill="#13203C" transform="translate(555.900593, 678.413351) scale(-1, 1) translate(-555.900593, -678.413351) " points="522.63054 665.852972 589.170646 646.888567 522.63054 709.938135"></polygon>
                                <polygon id="Path-2-Copy-3" fill="#00A7E7" transform="translate(553.937802, 684.436205) scale(-1, 1) translate(-553.937802, -684.436205) " points="589.170646 721.983844 585.20776 646.888567 518.704958 709.917477"></polygon>
                                <polygon id="Path-2-Copy-3" fill="#0492C9" transform="translate(578.511309, 729.483501) scale(-1, 1) translate(-578.511309, -729.483501) " points="638.2682 721.967607 518.754418 749.028867 567.809185 709.938135"></polygon>
                                <polygon id="Path-2-Copy-3" fill="#C20F4D" transform="translate(485.161355, 672.738890) scale(-1, 1) translate(-485.161355, -672.738890) " points="451.615327 721.917553 447.692169 646.940065 522.63054 623.560227"></polygon>
                                <polygon id="Path-2-Copy-3" fill="#1F3464" transform="translate(439.352876, 672.738890) scale(-1, 1) translate(-439.352876, -672.738890) " points="359.951335 721.917553 518.754418 719.374447 430.923099 623.560227"></polygon>
                                <polygon id="Path-2-Copy-3" fill="#DA1157" transform="translate(439.336429, 730.100214) scale(-1, 1) translate(-439.336429, -730.100214) " points="359.91844 721.912657 518.754418 719.368005 365.082374 740.832423"></polygon>
                                <polygon id="Path-2-Copy-3" fill="#232323" transform="translate(420.242653, 743.020051) scale(-1, 1) translate(-420.242653, -743.020051) " points="513.598962 766.682746 480.578631 719.357356 326.886345 740.829612"></polygon>
                                <polygon id="Path-2-Copy-3" fill="#00A7E7" transform="translate(420.236300, 801.282752) scale(-1, 1) translate(-420.236300, -801.282752) " points="513.586254 766.676588 513.262837 861.73308 326.886345 740.832423"></polygon>
                                <polygon id="Path-2-Copy-3" fill="#0492C9" transform="translate(293.371845, 810.927013) scale(-1, 1) translate(-293.371845, -810.927013) " points="259.857344 766.676588 259.533927 861.73308 327.209763 760.120945"></polygon>
                                <polygon id="Path-2-Copy-3" fill="#DA1157" transform="translate(293.210136, 722.648419) scale(-1, 1) translate(-293.210136, -722.648419) " points="259.533927 766.676588 309.143844 678.620251 326.886345 760.120945"></polygon>
                                <polygon id="Path-2-Copy-3" fill="#232323" transform="translate(223.911985, 658.718704) scale(-1, 1) translate(-223.911985, -658.718704) " points="277.276428 557.316463 170.547542 678.620251 188.290043 760.120945"></polygon>
                                <polygon id="Path-2-Copy-3" fill="#1F3464" transform="translate(482.696520, 801.299014) scale(-1, 1) translate(-482.696520, -801.299014) " points="327.141672 748.967524 638.251367 861.76371 451.806762 740.834317"></polygon>
                                <polygon id="Path-2-Copy-3" fill="#13203C" transform="translate(575.925771, 735.480464) scale(-1, 1) translate(-575.925771, -735.480464) " points="633.126626 721.932061 513.583342 749.028867 638.2682 740.839252"></polygon>
                                <polygon id="Path-2-Copy-3" fill="#00A7E7" transform="translate(362.417470, 671.475805) scale(-1, 1) translate(-362.417470, -671.475805) " points="447.692169 678.593982 364.860823 719.391382 277.143788 623.560227"></polygon>
                                <polygon id="Path-2-Copy-3" fill="#0492C9" transform="translate(318.543806, 722.499863) scale(-1, 1) translate(-318.543806, -722.499863) " points="359.944841 678.413351 277.142771 719.337044 310.17399 766.586374"></polygon>
                                <polygon id="Path-2-Copy-3" fill="#1F3464" transform="translate(620.502638, 721.889527) scale(-1, 1) translate(-620.502638, -721.889527) " points="602.81957 748.972816 589.170646 694.806239 651.834629 709.912707"></polygon>
                                <polygon id="Path-2-Copy-25" fill="#13203C" transform="translate(359.547602, 459.329482) scale(-1, 1) translate(-359.547602, -459.329482) " points="350.851396 404.140476 387.612267 514.518489 331.482936 480.060231"></polygon>
                                <polygon id="Path-2-Copy-25" fill="#0492C9" transform="translate(384.121862, 442.058836) scale(-1, 1) translate(-384.121862, -442.058836) " points="400.012071 404.14773 368.231654 430.069794 380.657247 479.969942"></polygon>
                                <polygon id="Path-2-Copy-25" fill="#C20F4D" transform="translate(384.373529, 408.019833) scale(-1, 1) translate(-384.373529, -408.019833) " points="400.53987 404.134825 368.856311 429.998053 368.207187 386.041613"></polygon>
                                <polygon id="Path-2-Copy-25" fill="#0492C9" transform="translate(359.520569, 384.898573) scale(-1, 1) translate(-359.520569, -384.898573) " points="350.810249 404.140723 400.532676 365.656424 318.508462 386.063171"></polygon>
                                <polygon id="Path-2-Copy-25" fill="#232323" transform="translate(330.782005, 384.898573) scale(-1, 1) translate(-330.782005, -384.898573) " points="293.333122 404.140723 343.055549 365.656424 368.230889 378.070802"></polygon>
                                <polygon id="Path-2-Copy-25" fill="#C20F4D" transform="translate(292.980944, 371.863613) scale(-1, 1) translate(-292.980944, -371.863613) " points="318.508462 369.025305 267.453425 365.656424 292.628766 378.070802"></polygon>
                                <polygon id="Path-2-Copy-26" fill="#C20F4D" transform="translate(267.884405, 509.764725) scale(-1, 1) translate(-267.884405, -509.764725) " points="331.50031 452.714752 208.551046 566.814699 204.2685 514.646467"></polygon>
                                <polygon id="Path-2-Copy-26" fill="#13203C" transform="translate(248.876781, 509.744508) scale(-1, 1) translate(-248.876781, -509.744508) " points="293.495783 452.698792 170.549398 566.790224 327.204164 557.348706"></polygon>
                                <polygon id="Path-2-Copy-26" fill="#C20F4D" transform="translate(248.876781, 611.032952) scale(-1, 1) translate(-248.876781, -611.032952) " points="177.652084 664.717199 170.549398 566.790224 327.204164 557.348706"></polygon>
                                <polygon id="Path-2-Copy-26" fill="#1F3464" transform="translate(245.325438, 617.970210) scale(-1, 1) translate(-245.325438, -617.970210) " points="170.549398 664.717199 213.484246 678.591713 320.101478 557.348706"></polygon>
                                <polygon id="Path-2-Copy-26" fill="#C20F4D" transform="translate(131.430184, 694.376949) scale(-1, 1) translate(-131.430184, -694.376949) " points="161.689915 628.457495 3.23010223 760.296404 259.630266 752.073059"></polygon>
                                <polygon id="Path-2-Copy-26" fill="#DA1157" transform="translate(180.425711, 658.851129) scale(-1, 1) translate(-180.425711, -658.851129) " points="259.68097 628.457495 190.278838 557.320404 101.170453 760.381853"></polygon>
                            </g>
                        </g>
                    </g>
                </g>
            </g>
        </g>
    </g>
</svg>