
<svg width="470px" height="470px" viewBox="0 0 470 470" version="1.1" xmlns="http://www.w3.org/2000/svg" xmlns:xlink="http://www.w3.org/1999/xlink">
    <!-- Generator: Sketch 49.2 (51160) - http://www.bohemiancoding.com/sketch -->
    <desc>Created with Sketch.</desc>
    <defs>
        <path d="M424.158373,258.003948 L411.73767,256.511411 C412.123002,253.302396 412.425763,250.044589 412.637195,246.826816 L425.121703,247.647523 C424.895258,251.087988 424.571229,254.57224 424.158373,258.003948 Z M419.29168,283.548459 L407.191253,280.366968 C408.010709,277.254286 408.753849,274.070292 409.403159,270.902562 L421.65997,273.410974 C420.964371,276.803898 420.168685,280.214336 419.29168,283.548459 Z M410.965755,308.200952 L399.415802,303.391808 C400.658123,300.410489 401.832885,297.350352 402.911315,294.300224 L414.70773,298.468816 C413.552984,301.732879 412.295651,305.008201 410.965755,308.200952 Z M399.334482,331.484766 L388.553943,325.136796 C390.187851,322.361905 391.769213,319.495685 393.256745,316.618206 L404.372574,322.359403 C402.779951,325.440808 401.085992,328.510954 399.334482,331.484766 Z M384.648077,352.948261 L374.824612,345.199084 C376.83009,342.658144 378.788027,340.033382 380.645878,337.398612 L390.87219,344.604822 C388.88673,347.423501 386.792425,350.23092 384.648077,352.948261 Z M367.193036,372.217365 L358.510554,363.208352 C360.836308,360.967672 363.130786,358.634411 365.331432,356.272376 L374.486821,364.797222 C372.133543,367.32565 369.678928,369.821551 367.193036,372.217365 Z M347.297142,388.940526 L339.915781,378.839322 C342.515521,376.938934 345.104002,374.93846 347.607409,372.892948 L355.524231,382.578794 C352.846924,384.766929 350.079539,386.907524 347.297142,388.940526 Z M325.323207,402.806224 L319.383088,391.795486 C322.221784,390.264166 325.055476,388.634012 327.801592,386.952563 L334.333471,397.624259 C331.394689,399.423309 328.363326,401.167312 325.323207,402.806224 Z M301.672827,413.542976 L297.294054,401.824128 C300.312905,400.695655 303.338012,399.469599 306.285552,398.179737 L311.299873,409.642114 C308.144654,411.023305 304.905613,412.334434 301.672827,413.542976 Z M292.107084,66.3287807 C289.054454,65.2966413 285.929261,64.3333112 282.815328,63.4675651 L286.170719,51.4146791 C289.50234,52.341728 292.848974,53.3726163 296.116789,54.4785693 L292.107084,66.3287807 Z M276.745097,420.945605 L274.012742,408.737585 C277.170463,408.030726 280.341946,407.228785 283.438364,406.355532 L286.835041,418.397159 C283.519685,419.331714 280.124259,420.189954 276.745097,420.945605 Z M251.046702,424.867734 L250.003303,412.400742 C253.231085,412.130509 256.483888,411.770198 259.667881,411.328568 L261.386863,423.721747 C257.976424,424.193403 254.498427,424.579986 251.046702,424.867734 Z M242.360468,274.713346 L223.993391,274.713346 L223.993391,200.13283 L281.653076,200.13283 L281.653076,216.274239 L242.360468,216.274239 L242.360468,231.969013 L277.311835,231.969013 L277.311835,247.997825 L242.360468,247.997825 L242.360468,274.713346 Z M235.444508,425.534559 L235.000375,425.534559 C231.53614,425.534559 228.038126,425.440728 224.603917,425.25682 L225.276997,412.762303 C228.488514,412.936203 231.758832,413.023778 235.000375,413.023778 L235.444508,413.023778 L235.444508,425.534559 Z M210.54305,58.6396549 L208.840333,46.2452246 C212.257027,45.7760703 215.737526,45.3944915 219.182995,45.1117479 L220.207628,57.5799918 C216.987353,57.8452203 213.737053,58.2005265 210.54305,58.6396549 Z M209.071783,423.784301 C205.638824,423.317649 202.184598,422.75091 198.801683,422.099099 L201.16622,409.813512 C204.325192,410.421536 207.552974,410.951993 210.758236,411.388619 L209.071783,423.784301 Z M186.766312,63.5851665 L183.384648,51.5397869 C186.713767,50.6064827 190.109192,49.7519964 193.479597,49.0038517 L196.193185,61.2168757 C193.046724,61.9162283 189.87399,62.711914 186.766312,63.5851665 Z M193.939994,274.713346 L176.130897,274.713346 L176.130897,237.535059 L156.650361,274.713346 L145.296828,274.713346 L125.704945,237.312368 L125.704945,274.713346 L107.895849,274.713346 L107.895849,200.13283 L125.927637,200.13283 L150.972969,246.327636 L176.019551,200.13283 L193.939994,200.13283 L193.939994,274.713346 Z M183.608591,418.522267 C180.274468,417.590213 176.929085,416.55307 173.665023,415.445866 L177.690992,403.599407 C180.738618,404.6353 183.86256,405.602383 186.977744,406.473134 L183.608591,418.522267 Z M159.093716,409.812261 C155.914727,408.42982 152.73824,406.943539 149.650579,405.394704 L155.265418,394.212569 C158.147901,395.660066 161.114207,397.048763 164.081765,398.339875 L159.093716,409.812261 Z M135.993811,397.824431 C133.036263,396.021628 130.094978,394.117487 127.251278,392.163303 L134.334882,381.851918 C136.992171,383.675989 139.74079,385.456273 142.505672,387.141476 L135.993811,397.824431 Z M114.75551,382.808992 C112.081956,380.630865 109.42842,378.345146 106.868714,376.019392 L115.283465,366.761414 C117.676777,368.937039 120.157665,371.072629 122.657319,373.108133 L114.75551,382.808992 Z M95.7566387,365.057446 C93.3983566,362.53277 91.0788578,359.911762 88.8644497,357.266983 L98.4564651,349.235062 C100.525748,351.705941 102.693867,354.156803 104.899517,356.517587 L95.7566387,365.057446 Z M79.3412435,344.908834 C77.3482762,342.090155 75.406603,339.181398 73.5700204,336.260131 L84.1628983,329.601894 C85.8781264,332.331746 87.6921895,335.050339 89.5550448,337.682607 L79.3412435,344.908834 Z M61.2794296,313.370407 L72.6805039,308.219719 C74.0053956,311.150994 75.4316246,314.089777 76.9179053,316.952243 L65.8145876,322.719713 C64.2244674,319.654572 62.6981521,316.510613 61.2794296,313.370407 Z M52.2278799,289.005662 L64.2269695,285.462609 C65.1402565,288.559027 66.1523786,291.669207 67.2345612,294.709327 L55.4469037,298.901689 C54.2884054,295.648886 53.2062229,292.319768 52.2278799,289.005662 Z M46.6005308,263.620037 L58.9724417,261.755931 C59.4528557,264.948682 60.0283516,268.167706 60.6826654,271.324176 L48.4321091,273.863864 C47.7315053,270.484702 47.1147239,267.037982 46.6005308,263.620037 Z M44.4837067,237.715215 L56.9932362,237.540064 C57.038275,240.770347 57.1721404,244.040665 57.3898279,247.26094 L44.9090732,248.10792 C44.6751216,244.664953 44.5324987,241.16819 44.4837067,237.715215 Z M45.867399,211.765354 L58.2868509,213.274154 C57.8977656,216.478165 57.5912515,219.735972 57.3760661,222.956247 L44.8928092,222.121778 C45.1230076,218.67756 45.45079,215.193308 45.867399,211.765354 Z M50.7641185,186.229599 L62.8607923,189.423602 C62.0363318,192.54379 61.2894382,195.727784 60.6388776,198.886756 L48.3845681,196.363332 C49.0814186,192.980417 49.8821085,189.571229 50.7641185,186.229599 Z M59.1250732,161.583362 L70.6675194,166.410021 C69.4226967,169.385084 68.2429301,172.441468 67.1607476,175.49535 L55.3693369,171.314247 C56.5278352,168.04518 57.7926751,164.771109 59.1250732,161.583362 Z M70.7813675,138.319565 L81.5569028,144.676293 C79.9129862,147.461193 78.3278703,150.326161 76.8415896,153.192381 L65.7345186,147.433669 C67.3246388,144.366026 69.0223517,141.300884 70.7813675,138.319565 Z M85.4927943,116.869832 L95.3049995,124.632771 C93.2982703,127.169958 91.3365799,129.792217 89.4774779,132.424485 L79.2586724,125.207016 C81.2478865,122.390839 83.3446933,119.584671 85.4927943,116.869832 Z M102.970355,97.6232472 L111.641577,106.642269 C109.315823,108.876694 107.018843,111.208704 104.814444,113.570739 L95.6690632,105.033382 C98.0260943,102.507456 100.483212,100.014057 102.970355,97.6232472 Z M122.886266,80.9238573 L130.256367,91.033819 C127.647869,92.9342066 125.058138,94.9321783 122.559735,96.9701844 L114.651671,87.2755806 C117.325224,85.0949515 120.095111,82.9568591 122.886266,80.9238573 Z M144.877716,67.0844318 L150.802822,78.1039273 C147.96913,79.6277404 145.135439,81.2528908 142.379314,82.9343397 L135.861197,72.2551374 C138.809988,70.4560872 141.843852,68.7158376 144.877716,67.0844318 Z M168.543109,56.3764547 L172.906869,68.1015583 C169.888018,69.2250264 166.86166,70.4460785 163.910367,71.7334379 L158.909808,60.2660564 C162.070031,58.8873684 165.311574,57.5787407 168.543109,56.3764547 Z M234.776432,44.4636895 L234.949081,44.4636895 L234.95909,44.4636895 C238.385793,44.4636895 241.802487,44.5537671 245.165385,44.7301691 L244.508569,57.2234346 C241.360856,57.0582923 238.16185,56.97447 235.000375,56.97447 L234.776432,56.97447 L234.776432,44.4636895 Z M260.700021,46.1826707 C264.12297,46.6443185 267.579699,47.2060526 270.971372,47.854111 L268.623098,60.1434507 C265.454117,59.537929 262.226336,59.0124762 259.02858,58.5808542 L260.700021,46.1826707 Z M303.468124,200.13283 L370.034234,200.13283 L370.034234,216.162893 L345.87967,216.162893 L345.87967,274.713346 L327.623939,274.713346 L327.623939,216.162893 L303.468124,216.162893 L303.468124,200.13283 Z M310.695602,60.0934076 C313.872089,61.4695935 317.051079,62.952121 320.141241,64.4997045 L314.543918,75.6868445 C311.65643,74.2431004 308.687622,72.858157 305.720065,71.5720488 L310.695602,60.0934076 Z M333.806767,72.0549649 C336.764316,73.851513 339.708102,75.7519006 342.556807,77.7048334 L335.485714,88.0249763 C332.824671,86.2009045 330.07355,84.4256247 327.309919,82.746678 L333.806767,72.0549649 Z M355.065085,87.0453822 C357.752401,89.2272623 360.409691,91.5092287 362.96189,93.8262253 L354.555897,103.091709 C352.170091,100.926093 349.687952,98.7942562 347.175787,96.754999 L355.065085,87.0453822 Z M374.083974,104.770656 C376.448511,107.295332 378.771763,109.913838 380.987423,112.553613 L371.406667,120.596794 C369.336133,118.130919 367.164261,115.68381 364.954857,113.324277 L374.083974,104.770656 Z M390.524391,124.903004 C392.514856,127.707921 394.460282,130.614176 396.305622,133.5442 L385.722753,140.2162 C383.996265,137.478841 382.178449,134.761499 380.320598,132.140491 L390.524391,124.903004 Z M408.62749,156.41766 L397.23142,161.582111 C395.904026,158.653337 394.474044,155.717057 392.98401,152.855841 L404.077319,147.073358 C405.674946,150.137249 407.205014,153.281208 408.62749,156.41766 Z M417.706564,180.773648 L405.711227,184.329212 C404.792936,181.235296 403.778312,178.125116 402.693627,175.087498 L414.47628,170.880123 C415.636029,174.131675 416.724467,177.460793 417.706564,180.773648 Z M423.36519,206.149264 L410.995781,208.032137 C410.510363,204.831879 409.929862,201.612855 409.274298,198.463892 L421.521101,195.910441 C422.222955,199.280846 422.84349,202.725064 423.36519,206.149264 Z M425.510789,232.054087 L413.00251,232.24425 C412.952467,229.010214 412.8161,225.739896 412.593408,222.523374 L425.074162,221.662632 C425.311867,225.101846 425.458243,228.597358 425.510789,232.054087 Z M235.000375,27.8956628 C120.619313,27.8956628 27.8956628,120.619313 27.8956628,234.999124 C27.8956628,349.380187 120.619313,442.102586 235.000375,442.102586 C349.380187,442.102586 442.105088,349.380187 442.105088,234.999124 C442.105088,120.619313 349.380187,27.8956628 235.000375,27.8956628 Z M235,456.474595 C112.682098,456.474595 13.5254049,357.316651 13.5254049,235 C13.5254049,112.682098 112.682098,13.5241538 235,13.5241538 C357.317902,13.5241538 456.474595,112.682098 456.474595,235 C456.474595,357.316651 357.317902,456.474595 235,456.474595 M235,0 C105.213162,0 0,105.211911 0,235 C0,364.786838 105.213162,470 235,470 C364.786838,470 470,364.786838 470,235 C470,105.211911 364.786838,0 235,0" id="path-1"></path>
    </defs>
    <g id="Website---Branding" stroke="none" stroke-width="1" fill="none" fill-rule="evenodd">
        <g id="MF_Illustration_MFT" transform="translate(-15.000000, -15.000000)">
            <g id="Icon-MFT" transform="translate(15.000000, 15.000000)">
                <mask id="mask-2" fill="white">
                    <use xlink:href="#path-1"></use>
                </mask>
                <use id="MFT-coin" fill="#1D1D1B" xlink:href="#path-1"></use>
                <g id="Group-6" mask="url(#mask-2)">
                    <g transform="translate(-1061.000000, -831.000000)">
                        <polygon id="Path-2-Copy-24" fill="#DA1157" transform="translate(1682.741049, 736.877224) scale(-1, 1) translate(-1682.741049, -736.877224) " points="1499.1561 752.781639 1783.70953 608.756407 1866.32599 864.99804"></polygon>
                        <polygon id="Path-2-Copy-24" fill="#232323" transform="translate(1682.736961, 865.496978) scale(-1, 1) translate(-1682.736961, -865.496978) " points="1499.15802 752.74866 1549.90012 978.245296 1866.31782 864.036569"></polygon>
                        <polygon id="Path-2-Copy-16" fill="#C20F4D" transform="translate(981.780353, 815.224429) scale(-1, 1) translate(-981.780353, -815.224429) " points="898.332651 778.188944 1063.80575 888.814632 1065.22805 741.634226"></polygon>
                        <polygon id="Path-2-Copy-21" fill="#DA1157" transform="translate(1246.636102, 842.502286) scale(-1, 1) translate(-1246.636102, -842.502286) " points="1066.48215 803.816993 1065.22805 907.086871 1428.04415 777.917701"></polygon>
                        <polygon id="Path-2-Copy-21" fill="#13203C" transform="translate(1163.931256, 842.502286) scale(-1, 1) translate(-1163.931256, -842.502286) " points="1428.04415 888.683217 899.818362 907.086871 1263.00662 777.917701"></polygon>
                        <polygon id="Path-2-Copy-21" fill="#00A7E7" transform="translate(1246.636102, 842.502286) scale(-1, 1) translate(-1246.636102, -842.502286) " points="1254.9483 898.044752 1065.22805 907.086871 1428.04415 777.917701"></polygon>
                        <polygon id="Path-2-Copy-25" fill="#13203C" transform="translate(1518.782775, 736.805317) scale(1, -1) translate(-1518.782775, -736.805317) " points="1499.73258 608.612593 1581.88572 864.99804 1455.67983 787.230996"></polygon>
                        <polygon id="Path-2-Copy-25" fill="#0492C9" transform="translate(1463.600127, 775.740692) scale(1, -1) translate(-1463.600127, -775.740692) " points="1500.60737 686.483344 1426.59289 747.732265 1455.72359 864.99804"></polygon>
                        <polygon id="Path-2-Copy-25" fill="#C20F4D" transform="translate(1463.600127, 854.838668) scale(1, -1) translate(-1463.600127, -854.838668) " points="1500.60737 845.499419 1426.59289 905.635532 1426.59289 804.041803"></polygon>
                        <polygon id="Path-2-Copy-25" fill="#00A7E7" transform="translate(1621.049003, 920.878508) scale(1, -1) translate(-1621.049003, -920.878508) " points="1499.70991 978.210314 1815.50512 863.546702 1426.59289 937.529313"></polygon>
                        <polygon id="Path-2-Copy-9" fill="#00A7E7" points="1417.42153 1163.5317 1596.39082 1354.09928 1436.88971 1348.74809"></polygon>
                        <polygon id="Path-2-Copy-12" fill="#13203C" transform="translate(1512.658229, 1258.794758) scale(-1, -1) translate(-1512.658229, -1258.794758) " points="1430.22985 1163.49023 1607.96897 1354.09928 1417.34749 1346.3594"></polygon>
                        <polygon id="Path-2-Copy-13" fill="#DA1157" transform="translate(1512.620757, 1117.531025) scale(-1, -1) translate(-1512.620757, -1117.531025) " points="1417.24058 1063.83148 1608.00093 1071.57616 1428.16349 1171.23057"></polygon>
                        <polygon id="Path-2-Copy-14" fill="#C20F4D" points="1427.39936 1050.76943 1602.19588 1062.57279 1416.43403 1163.97387"></polygon>
                        <polygon id="Path-2-Copy-18" fill="#1F3464" transform="translate(1620.336680, 1021.016982) scale(-1, -1) translate(-1620.336680, -1021.016982) " points="1640.10741 978.202482 1815.53174 989.980307 1425.14162 1063.83148"></polygon>
                        <polygon id="Path-2-Copy-8" fill="#DA1157" transform="translate(1339.322695, 1290.013327) scale(1, -1) translate(-1339.322695, -1290.013327) " points="1261.16852 1228.79434 1333.07772 1163.5198 1417.47687 1416.50686"></polygon>
                        <polygon id="Path-2-Copy-15" fill="#13203C" transform="translate(1361.285988, 1107.874297) scale(1, -1) translate(-1361.285988, -1107.874297) " points="1294.52783 1063.84088 1417.33974 1052.22077 1428.04415 1163.52782"></polygon>
                        <polygon id="Path-2-Copy-16" fill="#0492C9" transform="translate(1344.596448, 1084.150229) scale(1, -1) translate(-1344.596448, -1084.150229) " points="1261.14875 1152.36316 1294.48323 1015.9373 1428.04415 1115.99757"></polygon>
                        <polygon id="Path-2-Copy-16" fill="#C20F4D" transform="translate(1344.561492, 978.202482) scale(1, -1) translate(-1344.561492, -978.202482) " points="1261.07884 940.470962 1426.68355 1052.22077 1428.04415 904.184193"></polygon>
                        <polygon id="Path-2-Copy-16" fill="#232323" transform="translate(1621.049443, 978.202482) scale(1, -1) translate(-1621.049443, -978.202482) " points="1815.506 978.202482 1426.59289 1052.22077 1427.99639 904.184193"></polygon>
                        <polygon id="Path-2-Copy-17" fill="#00A7E7" transform="translate(1165.266735, 1082.169417) scale(1, -1) translate(-1165.266735, -1082.169417) " points="1260.67814 1151.30422 1034.60399 1038.11375 1295.92948 1013.03462"></polygon>
                        <polygon id="Path-2-Copy-8" fill="#00A7E7" transform="translate(1245.683450, 1257.412889) scale(1, -1) translate(-1245.683450, -1257.412889) " points="1073.93564 1215.69193 1261.31575 1163.64267 1417.43126 1351.18311"></polygon>
                        <polygon id="Path-2-Copy-8" fill="#0492C9" transform="translate(1167.542194, 1294.594383) scale(1, -1) translate(-1167.542194, -1294.594383) " points="1073.93564 1290.11769 1261.14875 1237.99216 1228.47068 1351.1966"></polygon>
                        <polygon id="Path-2-Copy-11" fill="#1F3464" transform="translate(1225.592769, 1212.593730) scale(1, -1) translate(-1225.592769, -1212.593730) " points="1033.30024 1298.9484 1074.9489 1126.23906 1417.8853 1261.68227"></polygon>
                        <polygon id="Path-2-Copy-11" fill="#13203C" transform="translate(1185.682812, 1225.117048) scale(1, -1) translate(-1185.682812, -1225.117048) " points="1295.97676 1298.9484 1075.38691 1151.2857 1228.49919 1212.18221"></polygon>
                        <polygon id="Path-2-Copy-19" fill="#C20F4D" transform="translate(948.973912, 1214.870041) scale(1, -1) translate(-948.973912, -1214.870041) " points="822.560918 1126.23906 1075.38691 1130.45567 1034.80312 1303.50102"></polygon>
                        <polygon id="Path-2-Copy-19" fill="#00A7E7" transform="translate(898.778551, 1414.290527) scale(1, -1) translate(-898.778551, -1414.290527) " points="822.718773 1525.30691 1075.38691 1529.63265 722.170196 1298.9484"></polygon>
                        <polygon id="Path-2-Copy-19" fill="#1F3464" transform="translate(992.149788, 1413.929922) scale(1, -1) translate(-992.149788, -1413.929922) " points="1261.14875 1476.64308 1075.29047 1528.91144 723.15083 1298.9484"></polygon>
                        <polygon id="Path-2-Copy-11" fill="#DA1157" transform="translate(1165.365297, 1212.593730) scale(1, -1) translate(-1165.365297, -1212.593730) " points="1034.7515 1298.9484 1075.51837 1126.23906 1295.97909 1273.92718"></polygon>
                        <polygon id="Path-2-Copy-21" fill="#1F3464" transform="translate(1079.740699, 1058.026127) scale(1, -1) translate(-1079.740699, -1058.026127) " points="898.334516 1126.23906 1034.65158 989.813194 1261.14875 1100.17736"></polygon>
                        <polygon id="Path-2-Copy-21" fill="#DA1157" transform="translate(1079.740699, 952.306227) scale(1, -1) translate(-1079.740699, -952.306227) " points="898.332651 914.855465 899.777286 1015.9373 1261.14875 888.674082"></polygon>
                        <polygon id="Path-2-Copy-21" fill="#232323" transform="translate(1080.479976, 952.313299) scale(1, -1) translate(-1080.479976, -952.313299) " points="1235.08767 1008.80451 899.811206 1015.9373 1261.14875 888.689303"></polygon>
                        <polygon id="Path-2-Copy-21" fill="#1F3464" transform="translate(1330.808203, 955.865475) scale(1, -1) translate(-1330.808203, -955.865475) " points="1426.59289 1006.97645 1235.02352 1015.92276 1261.15575 895.808188"></polygon>
                        <polygon id="Path-2-Copy-3" fill="#13203C" transform="translate(1385.132485, 1289.383797) scale(-1, 1) translate(-1385.132485, -1289.383797) " points="1352.82748 1163.53094 1436.85915 1415.23665 1333.40582 1348.23183"></polygon>
                    </g>
                </g>
            </g>
        </g>
    </g>
</svg>