
<svg width="334px" height="469px" viewBox="0 0 334 469" version="1.1" xmlns="http://www.w3.org/2000/svg" xmlns:xlink="http://www.w3.org/1999/xlink">
    <!-- Generator: Sketch 49.2 (51160) - http://www.bohemiancoding.com/sketch -->
    <desc>Created with Sketch.</desc>
    <defs>
        <path d="M166.991643,0 C74.7520891,0 0,76.039542 0,169.879069 L0,439.458032 C0,455.773268 13.0027855,469 29.0362117,469 L304.902507,469 C320.941504,469 333.94429,455.773268 333.94429,439.458032 L334,169.879069 C333.994429,76.039542 259.225627,0 166.991643,0 Z M186.952646,333.283968 L186.952646,386.479912 C186.952646,397.689199 178.011142,406.784702 166.991643,406.784702 C155.966574,406.784702 147.030641,397.689199 147.030641,386.479912 L147.030641,333.283968 C138.629526,327.01062 133.114206,316.968731 133.114206,305.5611 C133.114206,286.537047 148.289694,271.105859 166.997214,271.105859 C185.710306,271.105859 200.880223,286.537047 200.880223,305.5611 C200.86351,316.968731 195.348189,327.004953 186.952646,333.283968 Z M290.050139,195.862174 L43.9331476,195.862174 L43.9331476,169.867735 C43.9331476,100.855249 99.1364903,44.6898068 166.986072,44.6898068 C234.835655,44.6898068 290.050139,100.855249 290.050139,169.867735 L290.050139,195.862174 Z" id="path-1"></path>
    </defs>
    <g id="Website---Branding" stroke="none" stroke-width="1" fill="none" fill-rule="evenodd">
        <g id="MF_Illustration_Encryption" transform="translate(-20.000000, -10.000000)">
            <g id="Group-2" transform="translate(20.000000, 10.000000)">
                <mask id="mask-2" fill="white">
                    <use xlink:href="#path-1"></use>
                </mask>
                <use id="Shape" fill="#FFFFFF" fill-rule="nonzero" xlink:href="#path-1"></use>
                <g id="Group-6" mask="url(#mask-2)">
                    <g transform="translate(-830.000000, -724.000000)">
                        <polygon id="Path-2-Copy-16" fill="#C20F4D" transform="translate(795.227042, 664.433592) scale(-1, 1) translate(-795.227042, -664.433592) " points="727.635682 634.248505 861.666357 724.411926 862.818402 604.455258"></polygon>
                        <polygon id="Path-2-Copy-21" fill="#DA1157" transform="translate(1009.756141, 686.665905) scale(-1, 1) translate(-1009.756141, -686.665905) " points="863.834202 655.136172 862.818402 739.304376 1156.69388 634.027433"></polygon>
                        <polygon id="Path-2-Copy-21" fill="#13203C" transform="translate(942.766482, 686.665905) scale(-1, 1) translate(-942.766482, -686.665905) " points="1156.69388 724.304818 728.839085 739.304376 1023.01601 634.027433"></polygon>
                        <polygon id="Path-2-Copy-21" fill="#00A7E7" transform="translate(1009.756141, 686.665905) scale(-1, 1) translate(-1009.756141, -686.665905) " points="1016.4889 731.934764 862.818402 739.304376 1156.69388 634.027433"></polygon>
                        <polygon id="Path-2-Copy-25" fill="#C20F4D" transform="translate(1185.493676, 696.720444) scale(1, -1) translate(-1185.493676, -696.720444) " points="1215.46897 689.108662 1155.51838 738.121489 1155.51838 655.319399"></polygon>
                        <polygon id="Path-2-Copy-25" fill="#00A7E7" transform="translate(1313.024853, 750.544995) scale(1, -1) translate(-1313.024853, -750.544995) " points="1214.74205 797.272223 1470.53133 703.817766 1155.51838 764.115925"></polygon>
                        <polygon id="Path-2-Copy-9" fill="#00A7E7" points="1148.08972 948.314987 1293.0521 1103.63357 1163.85865 1099.27218"></polygon>
                        <polygon id="Path-2-Copy-12" fill="#13203C" transform="translate(1225.229987, 1025.957384) scale(-1, -1) translate(-1225.229987, -1025.957384) " points="1158.46426 948.281194 1302.43023 1103.63357 1148.02975 1097.32533"></polygon>
                        <polygon id="Path-2-Copy-13" fill="#DA1157" transform="translate(1225.199635, 910.822992) scale(-1, -1) translate(-1225.199635, -910.822992) " points="1147.94315 867.056172 1302.45612 873.36833 1156.79054 954.589811"></polygon>
                        <polygon id="Path-2-Copy-14" fill="#C20F4D" points="1156.17161 856.410189 1297.75411 866.030298 1147.28986 948.675376"></polygon>
                        <polygon id="Path-2-Copy-18" fill="#1F3464" transform="translate(1312.447882, 832.161006) scale(-1, -1) translate(-1312.447882, -832.161006) " points="1328.46187 797.265839 1470.55289 806.865137 1154.34288 867.056172"></polygon>
                        <polygon id="Path-2-Copy-8" fill="#DA1157" transform="translate(1084.830860, 1051.401501) scale(1, -1) translate(-1084.830860, -1051.401501) " points="1021.52717 1001.5061 1079.77253 948.305288 1148.13455 1154.49771"></polygon>
                        <polygon id="Path-2-Copy-8" fill="#C20F4D" transform="translate(992.123612, 1127.280219) scale(1, -1) translate(-992.123612, -1127.280219) " points="1021.53577 1153.31483 1080.28626 1101.24561 903.960969 1117.19416"></polygon>
                        <polygon id="Path-2-Copy-8" fill="#13203C" transform="translate(992.123612, 1193.532985) scale(1, -1) translate(-992.123612, -1193.532985) " points="1072.54153 1136.75441 1080.28626 1233.82944 903.960969 1250.31156"></polygon>
                        <polygon id="Path-2-Copy-8" fill="#232323" transform="translate(988.597106, 1193.532985) scale(1, -1) translate(-988.597106, -1193.532985) " points="1073.23324 1136.75441 950.6606 1173.12347 903.960969 1250.31156"></polygon>
                        <polygon id="Path-2-Copy-8" fill="#DA1157" transform="translate(880.450930, 1175.198236) scale(1, -1) translate(-880.450930, -1175.198236) " points="950.981045 1136.75441 809.920816 1181.68515 904.440539 1213.64206"></polygon>
                        <polygon id="Path-2-Copy-15" fill="#13203C" transform="translate(1102.620791, 902.952454) scale(1, -1) translate(-1102.620791, -902.952454) " points="1048.5477 867.063832 1148.02348 857.593076 1156.69388 948.311831"></polygon>
                        <polygon id="Path-2-Copy-16" fill="#0492C9" transform="translate(1089.102519, 883.616590) scale(1, -1) translate(-1089.102519, -883.616590) " points="1021.51116 939.21228 1048.51158 828.020901 1156.69388 909.573179"></polygon>
                        <polygon id="Path-2-Copy-16" fill="#C20F4D" transform="translate(1089.074206, 797.265839) scale(1, -1) translate(-1089.074206, -797.265839) " points="1021.45453 766.513462 1155.59182 857.593076 1156.69388 736.938602"></polygon>
                        <polygon id="Path-2-Copy-16" fill="#232323" transform="translate(1313.025210, 797.265839) scale(1, -1) translate(-1313.025210, -797.265839) " points="1470.53204 797.265839 1155.51838 857.593076 1156.65519 736.938602"></polygon>
                        <polygon id="Path-2-Copy-17" fill="#00A7E7" transform="translate(943.848200, 882.002167) scale(1, -1) translate(-943.848200, -882.002167) " points="1021.12997 938.349206 838.01338 846.095407 1049.68302 825.655127"></polygon>
                        <polygon id="Path-2-Copy-8" fill="#00A7E7" transform="translate(1008.984507, 1024.831117) scale(1, -1) translate(-1008.984507, -1024.831117) " points="869.871413 990.827221 1021.64643 948.405435 1148.0976 1101.2568"></polygon>
                        <polygon id="Path-2-Copy-8" fill="#0492C9" transform="translate(945.691286, 1055.135206) scale(1, -1) translate(-945.691286, -1055.135206) " points="869.871413 1051.48656 1021.51116 1009.00261 995.042423 1101.2678"></polygon>
                        <polygon id="Path-2-Copy-11" fill="#1F3464" transform="translate(992.711363, 988.302090) scale(1, -1) translate(-992.711363, -988.302090) " points="836.95736 1058.68387 870.692134 917.920314 1148.46537 1028.3108"></polygon>
                        <polygon id="Path-2-Copy-11" fill="#13203C" transform="translate(960.384909, 998.508989) scale(1, -1) translate(-960.384909, -998.508989) " points="1049.72131 1058.68387 871.046915 938.334111 995.06552 987.96669"></polygon>
                        <polygon id="Path-2-Copy-19" fill="#C20F4D" transform="translate(768.654327, 990.157355) scale(1, -1) translate(-768.654327, -990.157355) " points="666.261739 917.920314 871.046915 921.356987 838.174673 1062.3944"></polygon>
                        <polygon id="Path-2-Copy-19" fill="#00A7E7" transform="translate(727.996854, 1152.691334) scale(1, -1) translate(-727.996854, -1152.691334) " points="666.3896 1243.17318 871.046915 1246.6988 584.946793 1058.68387"></polygon>
                        <polygon id="Path-2-Copy-19" fill="#1F3464" transform="translate(803.626126, 1152.397429) scale(1, -1) translate(-803.626126, -1152.397429) " points="1021.51116 1203.51063 870.968807 1246.11099 585.741091 1058.68387"></polygon>
                        <polygon id="Path-2-Copy-20" fill="#232323" transform="translate(752.263061, 934.533624) scale(1, -1) translate(-752.263061, -934.533624) " points="666.379273 806.728935 838.14685 951.094105 727.658481 1062.33831"></polygon>
                        <polygon id="Path-2-Copy-11" fill="#DA1157" transform="translate(943.928034, 988.302090) scale(1, -1) translate(-943.928034, -988.302090) " points="838.132862 1058.68387 871.1534 917.920314 1049.72321 1038.29079"></polygon>
                        <polygon id="Path-2-Copy-21" fill="#1F3464" transform="translate(874.573421, 862.324624) scale(1, -1) translate(-874.573421, -862.324624) " points="727.637192 917.920314 838.051929 806.728935 1021.51116 896.679207"></polygon>
                        <polygon id="Path-2-Copy-21" fill="#DA1157" transform="translate(874.573421, 776.159576) scale(1, -1) translate(-874.573421, -776.159576) " points="727.635682 745.636024 728.805814 828.020901 1021.51116 724.297373"></polygon>
                        <polygon id="Path-2-Copy-21" fill="#232323" transform="translate(875.172224, 776.165340) scale(1, -1) translate(-875.172224, -776.165340) " points="1000.40209 822.207457 728.833289 828.020901 1021.51116 724.309778"></polygon>
                        <polygon id="Path-2-Copy-21" fill="#1F3464" transform="translate(1077.934252, 779.060475) scale(1, -1) translate(-1077.934252, -779.060475) " points="1155.51838 820.717532 1000.35013 828.009055 1021.51683 730.111894"></polygon>
                        <polygon id="Path-2-Copy-3" fill="#13203C" transform="translate(1121.936089, 1050.888414) scale(-1, 1) translate(-1121.936089, -1050.888414) " points="1095.76953 948.314371 1163.8339 1153.46246 1080.03828 1098.85142"></polygon>
                        <polygon id="Path-2-Copy-3" fill="#00A7E7" transform="translate(1117.922680, 1174.064749) scale(-1, 1) translate(-1117.922680, -1174.064749) " points="1163.81646 1249.2904 1155.65764 1153.15958 1072.0289 1098.8391"></polygon>
                        <polygon id="Path-2-Copy-3" fill="#DA1157" transform="translate(1129.069584, 1201.183091) scale(-1, 1) translate(-1129.069584, -1201.183091) " points="1186.08143 1249.21703 1072.05774 1303.54148 1094.36502 1098.82471 1096.27345 1102.03742"></polygon>
                        <polygon id="Path-2-Copy-3" fill="#0492C9" transform="translate(1227.861247, 1201.199988) scale(-1, 1) translate(-1227.861247, -1201.199988) " points="1163.77178 1103.60056 1269.6856 1303.54148 1291.95071 1098.85981"></polygon>
                        <polygon id="Path-2-Copy-3" fill="#C20F4D" transform="translate(882.801934, 1262.140431) scale(-1, 1) translate(-882.801934, -1262.140431) " points="821.761421 1354.40562 814.622824 1213.73868 950.981045 1169.87524"></polygon>
                        <polygon id="Path-2-Copy-3" fill="#1F3464" transform="translate(799.448607, 1262.140431) scale(-1, 1) translate(-799.448607, -1262.140431) " points="654.96918 1354.40562 943.928034 1349.63444 784.109743 1169.87524"></polygon>
                    </g>
                </g>
            </g>
        </g>
    </g>
</svg>