
<svg width="452px" height="477px" viewBox="0 0 452 477" version="1.1" xmlns="http://www.w3.org/2000/svg" xmlns:xlink="http://www.w3.org/1999/xlink">
    <!-- Generator: Sketch 49.2 (51160) - http://www.bohemiancoding.com/sketch -->
    <desc>Created with Sketch.</desc>
    <defs>
        <path d="M218.545231,0.275248271 C244.072507,44.6801995 275.357937,99.4523041 297.457649,139.387393 L139.632813,139.387393 L218.545231,0.275248271 Z M112.347093,354.85013 L112.347093,467.598572 L0.90967281,467.598572 L0.90967281,354.85013 C38.05548,354.85013 75.2012891,354.85013 112.347093,354.85013 Z M320.591215,410.303662 C320.591215,373.784632 349.959,343.943075 385.898045,343.943075 C421.837089,343.943075 451.20488,373.784632 451.20488,410.303662 C451.20488,446.822142 421.837089,476.664249 385.898045,476.664249 C349.959,476.664249 320.591215,446.822142 320.591215,410.303662 Z M237.972651,376.012548 L264.319139,402.669091 C267.032911,404.7501 268.633349,407.991649 268.648003,411.43683 C268.662657,414.882011 267.089853,418.137375 264.393884,420.241939 C264.386756,420.24195 255.57967,429.141947 237.972624,446.941932 C235.214674,449.761579 231.175668,450.871309 227.386911,449.850391 C223.598154,448.829473 220.639701,445.834209 219.633186,442.00019 C218.626671,438.166172 219.726191,434.080382 222.514886,431.291862 L231.183175,422.521113 L175.289059,422.521113 C171.342959,422.583578 167.669903,420.489356 165.678815,417.041756 C163.687728,413.594156 163.687728,409.328424 165.678815,405.880824 C167.669903,402.433224 171.342959,400.339002 175.289059,400.401467 L231.172499,400.401467 L222.514886,391.641718 C219.281732,388.462054 218.309574,383.600285 220.066858,379.399113 C221.824141,375.19794 225.950363,372.519224 230.457256,372.653737 C233.295725,372.75792 235.990979,373.954807 237.972651,376.012548 Z M129.557213,277.175698 L93.6519557,287.923776 C90.5404949,289.34292 86.9270175,289.234208 83.8782238,287.629732 C80.8294301,286.025256 78.6935001,283.108252 78.1009615,279.739819 C78.1042982,279.733522 74.3807433,267.77903 66.9302969,243.876345 C65.7354761,240.117475 66.6518412,236.030258 69.3319715,233.164276 C72.0121018,230.298294 76.045673,229.092326 79.9034407,230.003589 C83.7612085,230.914852 86.8525536,233.803833 88.0054572,237.575235 L91.6800535,249.346497 L117.920752,199.994922 C119.71818,196.481397 123.291664,194.221459 127.270473,194.081983 C131.249282,193.942506 135.0157,195.945146 137.124991,199.321723 C139.234282,202.698299 139.358975,206.924593 137.451239,210.379467 L111.215554,259.721615 L123.014456,256.18985 C127.339807,254.827906 132.088894,256.252004 134.973315,259.775924 C137.857736,263.299845 138.285757,268.200663 136.051132,272.116863 C134.626563,274.574172 132.30443,276.392036 129.557213,277.175698 Z M304.681598,277.175698 C301.934381,276.392036 299.612248,274.574172 298.187679,272.116863 C295.953054,268.200663 296.381075,263.299845 299.265496,259.775924 C302.149917,256.252004 306.899004,254.827906 311.224355,256.18985 L323.023258,259.721615 L296.787572,210.379467 C294.879837,206.924593 295.004529,202.698299 297.11382,199.321723 C299.223111,195.945146 302.989529,193.942506 306.968338,194.081983 C310.947147,194.221459 314.520631,196.481397 316.31806,199.994922 L342.558758,249.346497 L346.233354,237.575235 C347.386257,233.803833 350.477603,230.914852 354.33537,230.003589 C358.193138,229.092326 362.226709,230.298294 364.90684,233.164276 C367.58697,236.030258 368.503335,240.117475 367.308514,243.876345 C359.858068,267.77903 356.134513,279.733522 356.13785,279.739819 C355.545311,283.108252 353.409381,286.025256 350.360587,287.629732 C347.311794,289.234208 343.698316,289.34292 340.586855,287.923776 L304.681598,277.175698 Z" id="path-1"></path>
    </defs>
    <g id="Website---Branding" stroke="none" stroke-width="1" fill="none" fill-rule="evenodd">
        <g id="MF_Illustration_Interoperability" transform="translate(-24.000000, -8.000000)">
            <g id="Icon-MFT" transform="translate(24.000000, 8.000000)">
                <g id="Group-3">
                    <mask id="mask-2" fill="white">
                        <use xlink:href="#path-1"></use>
                    </mask>
                    <use id="Combined-Shape" fill="#DA1157" xlink:href="#path-1"></use>
                    <g id="Group-6" mask="url(#mask-2)">
                        <g transform="translate(-1059.655629, -785.510873)">
                            <polygon id="Path-2-Copy-16" fill="#0492C9" transform="translate(1013.258278, 733.575041) scale(-1, 1) translate(-1013.258278, -733.575041) " points="926.450331 805.435453 962.380038 661.714629 1100.06623 765.043471"></polygon>
                            <polygon id="Path-2-Copy-16" fill="#C20F4D" transform="translate(1012.509934, 840.924078) scale(-1, 1) translate(-1012.509934, -840.924078) " points="926.450331 802.721063 1097.10271 916.834185 1098.56954 765.013971"></polygon>
                            <polygon id="Path-2-Copy-17" fill="#00A7E7" transform="translate(1198.099338, 734.323587) scale(-1, 1) translate(-1198.099338, -734.323587) " points="1297.03415 805.435453 1062.64901 688.771874 1333.54967 663.21172"></polygon>
                            <polygon id="Path-2-Copy-21" fill="#1F3464" transform="translate(1285.655629, 759.025603) scale(-1, 1) translate(-1285.655629, -759.025603) " points="1098.56954 829.388924 1237.89645 688.662283 1472.74172 802.683798"></polygon>
                            <polygon id="Path-2-Copy-21" fill="#DA1157" transform="translate(1285.655629, 869.061859) scale(-1, 1) translate(-1285.655629, -869.061859) " points="1099.86289 829.157027 1098.56954 935.68245 1472.74172 802.441269"></polygon>
                            <polygon id="Path-2-Copy-21" fill="#13203C" transform="translate(1200.362133, 869.061859) scale(-1, 1) translate(-1200.362133, -869.061859) " points="1472.74172 916.698627 927.982545 935.68245 1302.53855 802.441269"></polygon>
                            <polygon id="Path-2-Copy-21" fill="#00A7E7" transform="translate(1285.655629, 869.061859) scale(-1, 1) translate(-1285.655629, -869.061859) " points="1294.228 926.355281 1098.56954 935.68245 1472.74172 802.441269"></polygon>
                            <polygon id="Path-2-Copy-25" fill="#13203C" transform="translate(1566.320453, 760.032832) scale(1, -1) translate(-1566.320453, -760.032832) " points="1546.67399 627.79888 1631.39851 892.266784 1501.2424 812.048162"></polygon>
                            <polygon id="Path-2-Copy-25" fill="#0492C9" transform="translate(1509.410596, 800.195631) scale(1, -1) translate(-1509.410596, -800.195631) " points="1547.57616 708.124478 1471.24503 771.304249 1501.28752 892.266784"></polygon>
                            <polygon id="Path-2-Copy-25" fill="#C20F4D" transform="translate(1509.410596, 881.787141) scale(1, -1) translate(-1509.410596, -881.787141) " points="1547.57616 872.153476 1471.24503 934.185358 1471.24503 829.388924"></polygon>
                            <polygon id="Path-2-Copy-25" fill="#00A7E7" transform="translate(1671.787599, 949.908863) scale(1, -1) translate(-1671.787599, -949.908863) " points="1546.65061 1009.04803 1872.33016 890.769692 1471.24503 967.084578"></polygon>
                            <polygon id="Path-2-Copy-9" fill="#00A7E7" points="1461.78662 1200.2116 1646.35762 1396.78676 1481.86414 1391.26687"></polygon>
                            <polygon id="Path-2-Copy-12" fill="#13203C" transform="translate(1560.004209, 1298.477797) scale(-1, -1) translate(-1560.004209, -1298.477797) " points="1474.99584 1200.16883 1658.29816 1396.78676 1461.71026 1388.80289"></polygon>
                            <polygon id="Path-2-Copy-13" fill="#DA1157" transform="translate(1559.965564, 1152.760778) scale(-1, -1) translate(-1559.965564, -1152.760778) " points="1461.6 1097.36838 1658.33113 1105.3572 1472.8648 1208.15318"></polygon>
                            <polygon id="Path-2-Copy-14" fill="#C20F4D" points="1472.07675 1083.89455 1652.34437 1096.07 1460.76821 1200.66772"></polygon>
                            <polygon id="Path-2-Copy-18" fill="#1F3464" transform="translate(1671.052980, 1053.204166) scale(-1, -1) translate(-1671.052980, -1053.204166) " points="1691.44254 1009.03995 1872.35762 1021.18907 1469.74834 1097.36838"></polygon>
                            <polygon id="Path-2-Copy-8" fill="#DA1157" transform="translate(1381.243299, 1330.680521) scale(1, -1) translate(-1381.243299, -1330.680521) " points="1300.64291 1267.53163 1374.80286 1200.19933 1461.84369 1461.16171"></polygon>
                            <polygon id="Path-2-Copy-15" fill="#13203C" transform="translate(1403.894040, 1142.799625) scale(1, -1) translate(-1403.894040, -1142.799625) " points="1335.04636 1097.37807 1461.70227 1085.39164 1472.74172 1200.20761"></polygon>
                            <polygon id="Path-2-Copy-16" fill="#0492C9" transform="translate(1386.682119, 1118.327664) scale(1, -1) translate(-1386.682119, -1118.327664) " points="1300.62252 1188.69098 1335.00037 1047.96434 1472.74172 1151.17898"></polygon>
                            <polygon id="Path-2-Copy-16" fill="#C20F4D" transform="translate(1386.646070, 1009.039954) scale(1, -1) translate(-1386.646070, -1009.039954) " points="1300.55042 970.118962 1471.33854 1085.39164 1472.74172 932.688266"></polygon>
                            <polygon id="Path-2-Copy-16" fill="#232323" transform="translate(1671.788053, 1009.039954) scale(1, -1) translate(-1671.788053, -1009.039954) " points="1872.33107 1009.03995 1471.24503 1085.39164 1472.69247 932.688266"></polygon>
                            <polygon id="Path-2-Copy-17" fill="#00A7E7" transform="translate(1201.739413, 1116.284408) scale(1, -1) translate(-1201.739413, -1116.284408) " points="1300.13718 1187.59866 1066.98694 1070.8399 1336.49188 1044.97016"></polygon>
                            <polygon id="Path-2-Copy-8" fill="#00A7E7" transform="translate(1284.673159, 1297.052365) scale(1, -1) translate(-1284.673159, -1297.052365) " points="1107.54967 1254.01617 1300.79475 1200.32608 1461.79665 1393.77865"></polygon>
                            <polygon id="Path-2-Copy-11" fill="#1F3464" transform="translate(1263.953642, 1250.820299) scale(1, -1) translate(-1263.953642, -1250.820299) " points="1065.64238 1339.89727 1108.59464 1161.74333 1462.2649 1301.45634"></polygon>
                            <polygon id="Path-2-Copy-11" fill="#13203C" transform="translate(1222.794509, 1263.738410) scale(1, -1) translate(-1222.794509, -1263.738410) " points="1336.54064 1339.89727 1109.04636 1187.57955 1266.95103 1250.39581"></polygon>
                            <polygon id="Path-2-Copy-19" fill="#C20F4D" transform="translate(978.676656, 1253.168370) scale(1, -1) translate(-978.676656, -1253.168370) " points="848.306953 1161.74333 1109.04636 1166.09287 1067.19231 1344.59341"></polygon>
                            <polygon id="Path-2-Copy-20" fill="#232323" transform="translate(957.806742, 1182.769559) scale(1, -1) translate(-957.806742, -1182.769559) " points="848.456601 1021.01669 1067.15688 1203.72893 926.47936 1344.52243"></polygon>
                            <polygon id="Path-2-Copy-11" fill="#DA1157" transform="translate(1201.841060, 1250.820299) scale(1, -1) translate(-1201.841060, -1250.820299) " points="1067.13907 1339.89727 1109.18194 1161.74333 1336.54305 1314.08727"></polygon>
                            <polygon id="Path-2-Copy-21" fill="#1F3464" transform="translate(1113.536424, 1091.380009) scale(1, -1) translate(-1113.536424, -1091.380009) " points="926.452254 1161.74333 1067.03603 1021.01669 1300.62252 1134.86004"></polygon>
                            <polygon id="Path-2-Copy-21" fill="#DA1157" transform="translate(1113.536424, 982.327329) scale(1, -1) translate(-1113.536424, -982.327329) " points="926.450331 943.695945 927.940183 1047.96434 1300.62252 916.689204"></polygon>
                            <polygon id="Path-2-Copy-21" fill="#232323" transform="translate(1114.298841, 982.334624) scale(1, -1) translate(-1114.298841, -982.334624) " points="1273.74573 1040.6067 927.975165 1047.96434 1300.62252 916.704905"></polygon>
                            <polygon id="Path-2-Copy-21" fill="#1F3464" transform="translate(1372.462304, 985.998780) scale(1, -1) translate(-1372.462304, -985.998780) " points="1471.24503 1038.72101 1273.67957 1047.94935 1300.62973 924.04821"></polygon>
                            <polygon id="Path-2-Copy-3" fill="#13203C" transform="translate(1428.486929, 1330.031145) scale(-1, 1) translate(-1428.486929, -1330.031145) " points="1395.17078 1200.21082 1481.83263 1459.85147 1375.14122 1390.73434"></polygon>
                        </g>
                    </g>
                </g>
            </g>
        </g>
    </g>
</svg>