
<svg width="694px" height="311px" viewBox="0 0 694 311" version="1.1" xmlns="http://www.w3.org/2000/svg" xmlns:xlink="http://www.w3.org/1999/xlink">
    <!-- Generator: Sketch 49.2 (51160) - http://www.bohemiancoding.com/sketch -->
    <desc>Created with Sketch.</desc>
    <defs>
        <path d="M0,0 C0,54.2724985 0,145.14461 0,199.428486 C0,224.835298 12.6217832,246.63532 34.2999984,258.650364 C84.8971728,286.685466 140.138107,311 191.329507,311 C268.358698,311 300.171754,267.900582 347.005502,267.900582 C390.229883,267.900582 428.293307,311 502.670493,311 C553.861893,311 609.102827,286.685466 659.700002,258.650364 C681.389221,246.63532 694,224.835298 694,199.428486 L694,0 C590.989963,22.0275801 454.901391,31.1981532 347.005502,31.1981532 C239.109614,31.1981532 103.032045,22.0275801 0,0 Z M185.915455,209.042797 C144.220654,206.66482 109.810614,185.957074 98.4323022,159.196295 C112.572661,133.903262 148.98546,117.223287 190.680261,119.578509 C232.375061,121.956486 266.796106,142.686988 278.174418,169.425011 C264.012051,194.729421 227.610256,211.420774 185.915455,209.042797 Z M492.788748,119.521619 C534.527566,118.804813 570.291119,136.929779 583.485119,162.76895 C571.127436,189.051858 535.969112,208.394258 494.230295,209.111064 C452.469469,209.827871 416.705916,191.714282 403.511916,165.863734 C415.869599,139.580826 451.027923,120.238426 492.788748,119.521619 Z" id="path-1"></path>
    </defs>
    <g id="Website---Branding" stroke="none" stroke-width="1" fill="none" fill-rule="evenodd">
        <g id="MF_Illustration_DarkRouting" transform="translate(-22.000000, -48.000000)">
            <g id="Group-2" transform="translate(22.000000, 48.000000)">
                <mask id="mask-2" fill="white">
                    <use xlink:href="#path-1"></use>
                </mask>
                <use id="Shape" fill="#DA1157" fill-rule="nonzero" xlink:href="#path-1"></use>
                <g id="Group-6" mask="url(#mask-2)">
                    <g transform="translate(-1068.000000, -1116.000000)">
                        <polygon id="Path-2-Copy-9" fill="#00A7E7" points="1548.87706 1272.44915 1744.44444 1480.85565 1570.15077 1475.00353"></polygon>
                        <polygon id="Path-2-Copy-12" fill="#13203C" transform="translate(1652.946267, 1376.629731) scale(-1, -1) translate(-1652.946267, -1376.629731) " points="1562.87326 1272.40381 1757.09638 1480.85565 1548.79615 1472.39125"></polygon>
                        <polygon id="Path-2-Copy-12" fill="#DA1157" transform="translate(1826.174852, 1380.836846) scale(-1, -1) translate(-1826.174852, -1380.836846) " points="1909.37374 1280.84995 1742.97597 1297.89483 1895.25676 1480.82374"></polygon>
                        <polygon id="Path-2-Copy-13" fill="#DA1157" transform="translate(1652.905320, 1222.142391) scale(-1, -1) translate(-1652.905320, -1222.142391) " points="1548.67933 1163.41607 1757.13131 1171.88572 1560.61526 1280.86871"></polygon>
                        <polygon id="Path-2-Copy-14" fill="#C20F4D" points="1559.78026 1149.13129 1750.78788 1162.03955 1547.79798 1272.93272"></polygon>
                        <polygon id="Path-2-Copy-18" fill="#1F3464" transform="translate(1770.611111, 1116.593730) scale(-1, -1) translate(-1770.611111, -1116.593730) " points="1792.21544 1069.77139 1983.90909 1082.65173 1557.31313 1163.41607"></polygon>
                        <polygon id="Path-2-Copy-18" fill="#0492C9" transform="translate(1862.590909, 1175.320052) scale(-1, -1) translate(-1862.590909, -1175.320052) " points="1983.90909 1185.00899 1968.07919 1069.77139 1741.27477 1280.86871"></polygon>
                        <polygon id="Path-2-Copy-8" fill="#DA1157" transform="translate(1463.535125, 1410.770650) scale(1, -1) translate(-1463.535125, -1410.770650) " points="1378.13271 1343.82099 1456.71098 1272.43614 1548.93754 1549.10516"></polygon>
                        <polygon id="Path-2-Copy-15" fill="#13203C" transform="translate(1487.535354, 1211.581702) scale(1, -1) translate(-1487.535354, -1211.581702) " points="1414.58586 1163.42635 1548.78769 1150.71848 1560.48485 1272.44492"></polygon>
                        <polygon id="Path-2-Copy-16" fill="#0492C9" transform="translate(1469.297980, 1185.636839) scale(1, -1) translate(-1469.297980, -1185.636839) " points="1378.11111 1260.23514 1414.53713 1111.03854 1560.48485 1220.46539"></polygon>
                        <polygon id="Path-2-Copy-16" fill="#C20F4D" transform="translate(1469.259782, 1069.771391) scale(1, -1) translate(-1469.259782, -1069.771391) " points="1378.03472 1028.50785 1558.99807 1150.71848 1560.48485 988.824298"></polygon>
                        <polygon id="Path-2-Copy-16" fill="#232323" transform="translate(1771.389978, 1069.771391) scale(1, -1) translate(-1771.389978, -1069.771391) " points="1983.88097 1069.77139 1558.89899 1150.71848 1560.43266 988.824298"></polygon>
                        <polygon id="Path-2-Copy-17" fill="#00A7E7" transform="translate(1273.336742, 1183.470604) scale(1, -1) translate(-1273.336742, -1183.470604) " points="1377.59686 1259.07707 1130.55598 1135.29091 1416.1175 1107.86414"></polygon>
                        <polygon id="Path-2-Copy-8" fill="#00A7E7" transform="translate(1361.211521, 1375.118505) scale(1, -1) translate(-1361.211521, -1375.118505) " points="1173.53535 1329.49207 1378.2936 1272.57052 1548.88769 1477.66649"></polygon>
                        <polygon id="Path-2-Copy-8" fill="#0492C9" transform="translate(1275.823232, 1415.780536) scale(1, -1) translate(-1275.823232, -1415.780536) " points="1173.53535 1410.88478 1378.11111 1353.87982 1342.40239 1477.68125"></polygon>
                        <polygon id="Path-2-Copy-11" fill="#1F3464" transform="translate(1339.257576, 1326.103854) scale(1, -1) translate(-1339.257576, -1326.103854) " points="1129.13131 1420.54213 1174.64258 1231.66558 1549.38384 1379.78754"></polygon>
                        <polygon id="Path-2-Copy-11" fill="#13203C" transform="translate(1295.646261, 1339.799472) scale(1, -1) translate(-1295.646261, -1339.799472) " points="1416.16917 1420.54213 1175.12121 1259.05681 1342.43355 1325.65381"></polygon>
                        <polygon id="Path-2-Copy-19" fill="#C20F4D" transform="translate(1036.984333, 1328.593249) scale(1, -1) translate(-1036.984333, -1328.593249) " points="898.847454 1231.66558 1175.12121 1236.27691 1130.77358 1425.52092"></polygon>
                        <polygon id="Path-2-Copy-19" fill="#00A7E7" transform="translate(982.133718, 1546.681359) scale(1, -1) translate(-982.133718, -1546.681359) " points="899.01995 1668.08992 1175.12121 1672.82059 789.146224 1420.54213"></polygon>
                        <polygon id="Path-2-Copy-19" fill="#1F3464" transform="translate(1084.164458, 1546.286998) scale(1, -1) translate(-1084.164458, -1546.286998) " points="1378.11111 1614.8707 1175.01584 1672.03187 790.217805 1420.54213"></polygon>
                        <polygon id="Path-2-Copy-20" fill="#232323" transform="translate(1014.871031, 1253.957320) scale(1, -1) translate(-1014.871031, -1253.957320) " points="899.006018 1082.46897 1130.73604 1276.17817 981.677223 1425.44567"></polygon>
                        <polygon id="Path-2-Copy-11" fill="#DA1157" transform="translate(1273.444444, 1326.103854) scale(1, -1) translate(-1273.444444, -1326.103854) " points="1130.71717 1420.54213 1175.26487 1231.66558 1416.17172 1393.17869"></polygon>
                        <polygon id="Path-2-Copy-21" fill="#1F3464" transform="translate(1179.878788, 1157.067276) scale(1, -1) translate(-1179.878788, -1157.067276) " points="981.648502 1231.66558 1130.60799 1082.46897 1378.11111 1203.16426"></polygon>
                        <polygon id="Path-2-Copy-3" fill="#13203C" transform="translate(1513.593440, 1410.082191) scale(-1, 1) translate(-1513.593440, -1410.082191) " points="1478.29238 1272.44833 1570.11738 1547.71605 1457.0695 1474.43895"></polygon>
                    </g>
                </g>
            </g>
        </g>
    </g>
</svg>